SplineFontDB: 3.0
FontName: Courier-X-Bold
FullName: Courier X Bold
FamilyName: Courier X
Weight: Bold
Copyright: Copyright 1990 as an unpublished work by Bitstream Inc.  All rights reserved.  Confidential.
Version: 2.0-1.0
ItalicAngle: 0
UnderlinePosition: -80
UnderlineWidth: 77
Ascent: 800
Descent: 200
sfntRevision: 0x00020000
LayerCount: 2
Layer: 0 0 "Back"  1
Layer: 1 0 "Fore"  0
XUID: [1021 97 1268352346 15045382]
FSType: 0
OS2Version: 3
OS2_WeightWidthSlopeOnly: 0
OS2_UseTypoMetrics: 1
CreationTime: 1289879481
ModificationTime: 1345706025
PfmFamily: 17
TTFWeight: 700
TTFWidth: 5
LineGap: 75
VLineGap: 0
Panose: 2 0 8 9 0 0 0 0 0 0
OS2TypoAscent: 105
OS2TypoAOffset: 1
OS2TypoDescent: 0
OS2TypoDOffset: 1
OS2TypoLinegap: 75
OS2WinAscent: 0
OS2WinAOffset: 1
OS2WinDescent: 0
OS2WinDOffset: 1
HheadAscent: 105
HheadAOffset: 1
HheadDescent: 0
HheadDOffset: 1
OS2SubXSize: 542
OS2SubYSize: 583
OS2SubXOff: 0
OS2SubYOff: 117
OS2SupXSize: 542
OS2SupYSize: 583
OS2SupXOff: 0
OS2SupYOff: 400
OS2StrikeYSize: 41
OS2StrikeYPos: 215
OS2Vendor: 'PfEd'
OS2CodePages: 00000001.00000000
OS2UnicodeRanges: 800000af.40000048.00000000.00000000
MarkAttachClasses: 1
DEI: 91125
LangName: 1033 "" "" "Bold" 
GaspTable: 3 9 2 14 3 65535 2
Encoding: UnicodeBmp
Compacted: 1
UnicodeInterp: none
NameList: Adobe Glyph List
DisplaySize: -24
AntiAlias: 1
FitToEm: 1
WinInfo: 0 67 19
BeginPrivate: 8
BlueValues 39 [-14 0 376 387 482 496 513 527 532 534]
OtherBlues 11 [-163 -162]
BlueScale 8 0.039625
BlueShift 1 0
StdHW 4 [86]
StdVW 5 [100]
ForceBold 4 true
ExpansionFactor 4 0.06
EndPrivate
BeginChars: 65536 229

StartChar: exclam
Encoding: 33 33 2
Width: 500
GlyphClass: 2
Flags: W
HStem: -9 137<191.705 311.021>
VStem: 171 160<12.0494 107.088> 197 107<339.5 502.037>
LayerCount: 2
Fore
SplineSet
171 60 m 0xc0
 171 98 203 128 251 128 c 0
 301 128 331 99 331 60 c 0
 331 20 300 -9 251 -9 c 0
 203 -9 171 21 171 60 c 0xc0
197 455 m 1xa0
 197 459 l 2
 197 490 217 510 250 510 c 0
 284 510 304 490 304 459 c 2
 304 455 l 1
 288 191 l 2
 287 174 272 160 250 160 c 0
 228 160 214 174 213 191 c 2
 197 455 l 1xa0
EndSplineSet
Validated: 1
EndChar

StartChar: quotedbl
Encoding: 34 34 3
Width: 500
GlyphClass: 2
Flags: W
HStem: 282 200<142.749 207.251 293.791 359.186>
VStem: 129 92<376.692 482> 281 91<369.917 482>
LayerCount: 2
Fore
SplineSet
162 282 m 2
 146 282 144 289 142 307 c 2
 129 458 l 1
 129 462 l 2
 129 475 136 482 148 482 c 2
 202 482 l 2
 214 482 221 475 221 462 c 2
 221 458 l 1
 208 307 l 2
 206 289 204 282 188 282 c 2
 162 282 l 2
314 282 m 2
 298 282 295 289 293 307 c 2
 281 458 l 1
 281 462 l 2
 281 475 288 482 300 482 c 2
 354 482 l 2
 366 482 372 475 372 462 c 2
 372 458 l 1
 360 307 l 2
 358 289 355 282 339 282 c 2
 314 282 l 2
EndSplineSet
Validated: 1
EndChar

StartChar: numbersign
Encoding: 35 35 4
Width: 500
GlyphClass: 2
Flags: W
HStem: 148 61<82.7976 151 224 271 342 417.281> 302 62<82.7976 159 232 279 352 417.281>
VStem: 143 69<-45.9092 127.875> 154 70<209 302> 172 70<414.1 566.781> 262 69<-45.9092 113.111> 292 69<415 567.176>
LayerCount: 2
Fore
SplineSet
224 209 m 1xd0
 274 209 l 1
 279 302 l 1
 228 302 l 1
 224 209 l 1xd0
172 534 m 2xc8
 173 556 186 569 207 569 c 0
 229 569 242 557 242 535 c 2
 242 531 l 1
 232 364 l 1
 282 364 l 1
 292 534 l 2
 293 556 305 569 326 569 c 0
 348 569 361 557 361 535 c 2
 361 531 l 1xca
 352 364 l 1
 392 364 l 2
 410 364 418 353 418 333 c 0
 418 313 410 302 392 302 c 2
 348 302 l 1
 342 209 l 1
 392 209 l 2
 410 209 418 198 418 178 c 0
 418 158 410 148 392 148 c 2
 339 148 l 1
 331 -13 l 2
 330 -35 317 -48 297 -48 c 0
 275 -48 262 -34 262 -12 c 2
 262 -9 l 1
 271 148 l 1
 220 148 l 1
 212 -13 l 2
 211 -35 199 -48 178 -48 c 0
 156 -48 143 -34 143 -12 c 2
 143 -9 l 1xe4
 151 148 l 1
 109 148 l 2
 91 148 82 159 82 179 c 0
 82 199 91 209 109 209 c 2
 154 209 l 1xd0
 159 302 l 1
 109 302 l 2
 91 302 82 313 82 333 c 0
 82 353 91 364 109 364 c 2
 163 364 l 1
 172 534 l 2xc8
EndSplineSet
Validated: 1
EndChar

StartChar: dollar
Encoding: 36 36 5
Width: 500
GlyphClass: 2
Flags: W
HStem: 22 75<272 308.582> 37 149<75.0323 144.532> 357 140<339.283 403.404> 428 154<230.324 296.516>
VStem: 71 90<115.564 178.697> 82 102<337.256 414.021> 195 71<-99.7812 22> 223 78<491.682 577.542> 318 106<107.858 185.357> 326 82<361.263 410.91>
LayerCount: 2
Fore
SplineSet
145 52 m 1x9680
 135 40 126 37 109 37 c 0
 81 37 71 47 71 87 c 2
 71 136 l 2
 71 170 81 186 113 186 c 0
 151 186 151 160 161 139 c 0x4a80
 173 114 209 97 254 97 c 0
 295 97 318 116 318 148 c 0
 318 181 295 190 245 209 c 2
 170 238 l 2
 111 260 82 301 82 362 c 0
 82 443 129 487 223 494 c 1
 228 549 l 2
 230 571 243 582 265 582 c 0x9580
 288 582 301 572 301 554 c 2
 301 548 l 1
 297 490 l 1
 312 487 326 483 339 478 c 1
 345 491 354 497 372 497 c 0
 397 497 406 483 407 451 c 2
 408 401 l 1
 408 398 l 2
 408 371 392 357 363 357 c 0
 343 357 336 364 326 385 c 0x2540
 312 413 284 428 255 428 c 0
 211 428 184 407 184 375 c 0
 184 345 204 335 246 318 c 2
 322 288 l 2
 392 260 424 228 424 161 c 0
 424 72 372 22 274 22 c 2
 272 22 l 1
 266 -67 l 2
 264 -92 253 -102 227 -102 c 0
 204 -102 195 -90 195 -68 c 2
 195 -62 l 1
 201 32 l 1
 181 35 163 43 145 52 c 1x9680
EndSplineSet
Validated: 1
EndChar

StartChar: percent
Encoding: 37 37 6
Width: 500
GlyphClass: 2
Flags: W
HStem: -23 61<261.876 353.918> 137 61<261.738 353.918> 158 51<67.8369 83> 306 50<418 434.421> 315 62<146.308 238.762> 476 61<146.652 238.418>
VStem: 73 65<386.86 466.731> 188 65<47.269 127.079> 248 64<386.66 465.312> 363 65<48.3404 126.932>
LayerCount: 2
Fore
SplineSet
73 426 m 0x8ec0
 73 488 122 537 192 537 c 0
 262 537 312 488 312 426 c 0
 312 363 262 315 192 315 c 0
 122 315 73 364 73 426 c 0x8ec0
248 426 m 0
 248 454 226 476 193 476 c 0
 160 476 138 455 138 426 c 0
 138 397 160 377 193 377 c 0
 226 377 248 397 248 426 c 0
363 88 m 0
 363 116 341 137 308 137 c 0
 275 137 253 117 253 88 c 0xc740
 253 59 275 38 308 38 c 0
 341 38 363 59 363 88 c 0
188 88 m 0
 188 150 238 198 308 198 c 0
 378 198 428 150 428 88 c 0
 428 25 378 -23 308 -23 c 0
 237 -23 188 26 188 88 c 0
83 209 m 2xb640
 398 353 l 2
 402 355 407 356 410 356 c 0
 425 356 435 344 435 328 c 0
 435 319 428 310 418 306 c 2
 102 161 l 2
 98 159 94 158 91 158 c 0
 76 158 67 172 67 188 c 0
 67 197 72 204 83 209 c 2xb640
EndSplineSet
Validated: 1
EndChar

StartChar: ampersand
Encoding: 38 38 7
Width: 500
GlyphClass: 2
Flags: W
HStem: -13 86<162.258 261.889> 0 74<390 429.234> 178 81<393.609 433.393> 356 89<305.373 343.962> 386 82<200.237 283.551>
VStem: 48 100<86.5665 182.911> 97 102<309.65 383.962>
LayerCount: 2
Fore
SplineSet
263 95 m 1xa4
 188 197 l 1
 161 180 148 160 148 134 c 0
 148 99 173 73 208 73 c 0
 226 73 244 81 263 95 c 1xa4
313 28 m 1
 278 2 232 -13 186 -13 c 0
 103 -13 48 40 48 113 c 0xa4
 48 175 76 219 138 261 c 1
 116 297 l 2
 105 315 97 340 97 363 c 0
 97 427 142 468 222 468 c 0xaa
 253 468 277 460 305 442 c 1
 313 444 318 445 322 445 c 0
 340 445 353 430 353 408 c 0
 353 378 330 356 309 356 c 0x32
 285 356 260 386 231 386 c 0x2a
 211 386 199 374 199 356 c 0
 199 336 210 325 222 308 c 2
 319 171 l 1
 339 233 333 259 375 259 c 2
 390 259 l 1
 406 259 l 2
 420 259 437 245 437 219 c 0
 437 194 425 182 398 178 c 1
 393 150 385 123 369 99 c 1
 390 74 l 1
 397 74 l 2
 419 74 432 61 432 38 c 0
 432 13 417 0 390 0 c 2
 358 0 l 2x72
 343 0 334 2 326 12 c 2
 313 28 l 1
EndSplineSet
Validated: 1
EndChar

StartChar: quotesingle
Encoding: 39 39 8
Width: 500
GlyphClass: 2
Flags: W
HStem: 282 200<218.749 283.251>
VStem: 205 92<376.692 482>
LayerCount: 2
Fore
SplineSet
238 282 m 2
 222 282 220 289 218 307 c 2
 205 458 l 1
 205 462 l 2
 205 475 212 482 224 482 c 2
 278 482 l 2
 290 482 297 475 297 462 c 2
 297 458 l 1
 284 307 l 2
 282 289 279 282 263 282 c 2
 238 282 l 2
EndSplineSet
Validated: 1
EndChar

StartChar: parenleft
Encoding: 40 40 9
Width: 500
GlyphClass: 2
Flags: W
HStem: -163 21G<345 362>
VStem: 164 108<38.6149 293.85>
LayerCount: 2
Fore
SplineSet
356 498 m 0
 368 498 376 489 376 478 c 0
 376 465 357 439 334 397 c 0
 293 322 272 251 272 167 c 0
 272 96 288 30 320 -36 c 0
 349 -95 376 -128 376 -144 c 0
 376 -155 368 -163 356 -163 c 0
 334 -163 299 -139 257 -87 c 0
 195 -9 164 75 164 167 c 0
 164 259 195 343 257 421 c 0
 299 473 334 498 356 498 c 0
EndSplineSet
Validated: 1
EndChar

StartChar: parenright
Encoding: 41 41 10
Width: 500
GlyphClass: 2
Flags: W
HStem: -164 21G<141 158>
VStem: 232 106<38.225 295.385>
LayerCount: 2
Fore
SplineSet
147 -164 m 0
 135 -164 127 -155 127 -144 c 0
 127 -131 146 -105 169 -63 c 0
 210 12 232 82 232 167 c 0
 232 238 214 304 182 370 c 0
 153 429 127 462 127 478 c 0
 127 489 135 498 147 498 c 0
 169 498 204 473 246 421 c 0
 308 343 338 259 338 167 c 0
 338 75 308 -9 246 -87 c 0
 204 -139 169 -164 147 -164 c 0
EndSplineSet
Validated: 1
EndChar

StartChar: asterisk
Encoding: 42 42 11
Width: 500
GlyphClass: 2
Flags: W
HStem: 327 75<98.3125 128.8 371.208 403.374> 462 20G<224.5 275.5>
VStem: 212 76<393.455 482>
LayerCount: 2
Fore
SplineSet
380 399 m 2
 384 401 388 402 390 402 c 0
 396 402 399 397 402 385 c 2
 413 351 l 2
 415 343 417 338 417 336 c 0
 417 332 411 329 403 327 c 2
 294 303 l 1
 369 218 l 2
 373 214 375 211 375 207 c 0
 375 204 370 199 362 193 c 2
 333 172 l 2
 325 166 320 165 318 165 c 0
 315 165 311 168 308 174 c 2
 251 271 l 1
 194 174 l 2
 190 167 185 165 182 165 c 0
 180 165 176 167 168 173 c 2
 139 194 l 2
 131 200 127 206 127 208 c 0
 127 212 128 215 132 219 c 2
 208 302 l 1
 98 327 l 2
 90 329 85 332 85 336 c 0
 85 338 86 344 88 352 c 2
 100 385 l 2
 104 397 106 402 112 402 c 0
 114 402 118 401 122 399 c 2
 223 352 l 1
 212 466 l 1
 212 470 l 2
 212 481 217 482 232 482 c 2
 268 482 l 2
 283 482 288 481 288 471 c 2
 288 466 l 1
 278 354 l 1
 380 399 l 2
EndSplineSet
Validated: 1
EndChar

StartChar: plus
Encoding: 43 43 12
Width: 500
GlyphClass: 2
Flags: W
HStem: 215 85<34.9988 208 292 467.001>
VStem: 208 84<41.9988 215 300 473.001>
LayerCount: 2
Fore
SplineSet
292 82 m 2
 292 55 276 37 251 37 c 0
 225 37 208 55 208 82 c 2
 208 215 l 1
 75 215 l 2
 48 215 30 233 30 258 c 0
 30 284 48 300 75 300 c 2
 208 300 l 1
 208 433 l 2
 208 460 225 478 250 478 c 0
 276 478 292 460 292 433 c 2
 292 300 l 1
 427 300 l 2
 454 300 472 283 472 258 c 0
 472 232 454 215 427 215 c 2
 292 215 l 1
 292 82 l 2
EndSplineSet
Validated: 1
EndChar

StartChar: comma
Encoding: 44 44 13
Width: 500
GlyphClass: 2
Flags: W
HStem: -132 273<201.469 219.812>
VStem: 142 199
LayerCount: 2
Fore
SplineSet
201 118 m 2
 206 136 211 141 230 141 c 2
 327 141 l 2
 336 141 341 137 341 132 c 0
 341 130 340 125 338 120 c 2
 216 -118 l 2
 212 -127 204 -132 196 -132 c 0
 194 -132 191 -132 188 -131 c 2
 157 -120 l 2
 148 -117 142 -111 142 -104 c 0
 142 -100 142 -96 143 -93 c 2
 201 118 l 2
EndSplineSet
Validated: 1
EndChar

StartChar: hyphen
Encoding: 45 45 14
Width: 500
GlyphClass: 2
Flags: W
HStem: 210 92<63 438>
LayerCount: 2
Fore
SplineSet
81 210 m 2
 71 210 63 218 63 232 c 2
 63 283 l 2
 63 295 71 302 81 302 c 2
 418 302 l 2
 430 302 438 295 438 283 c 2
 438 232 l 2
 438 220 428 210 418 210 c 2
 81 210 l 2
EndSplineSet
Validated: 1
EndChar

StartChar: period
Encoding: 46 46 15
Width: 500
GlyphClass: 2
Flags: W
HStem: -6 154<190.788 313>
VStem: 166 170<18.245 123.755>
LayerCount: 2
Fore
SplineSet
166 71 m 0
 166 115 200 148 251 148 c 0
 303 148 336 116 336 71 c 0
 336 26 303 -6 251 -6 c 0
 200 -6 166 27 166 71 c 0
EndSplineSet
Validated: 1
EndChar

StartChar: slash
Encoding: 47 47 16
Width: 500
GlyphClass: 2
Flags: W
LayerCount: 2
Fore
SplineSet
177 -5 m 2
 165 -33 152 -48 134 -48 c 0
 113 -48 87 -34 87 -8 c 0
 87 4 91 17 98 32 c 2
 337 542 l 2
 349 570 361 585 379 585 c 0
 400 585 427 570 427 544 c 0
 427 532 422 521 415 506 c 2
 177 -5 l 2
EndSplineSet
Validated: 1
EndChar

StartChar: zero
Encoding: 48 48 17
Width: 500
GlyphClass: 2
Flags: W
HStem: -13 62<211.596 289.35> 463 64<210.912 290.252>
VStem: 61 109<113.26 400.815> 332 109<113.067 400.786>
LayerCount: 2
Fore
SplineSet
250 -13 m 0
 129 -13 61 87 61 257 c 0
 61 428 129 527 250 527 c 0
 372 527 441 427 441 257 c 0
 441 87 372 -13 250 -13 c 0
251 463 m 0
 196 463 170 374 170 258 c 0
 170 141 195 49 251 49 c 0
 306 49 332 140 332 258 c 0
 332 375 306 463 251 463 c 0
EndSplineSet
Validated: 1
EndChar

StartChar: one
Encoding: 49 49 18
Width: 500
GlyphClass: 2
Flags: W
HStem: 0 87<91.0342 214 312 425.773> 387 80<110.963 148> 507 20G<278 293.5>
VStem: 214 98<87 403>
LayerCount: 2
Fore
SplineSet
214 403 m 1
 168 392 l 2
 155 389 145 387 141 387 c 0
 119 387 106 402 106 428 c 0
 106 447 120 459 148 467 c 1
 248 520 l 2
 261 527 274 527 282 527 c 0
 305 527 312 515 312 488 c 2
 312 87 l 1
 378 87 l 2
 412 87 430 75 430 43 c 0
 430 10 412 0 378 0 c 2
 138 0 l 2
 104 0 87 10 87 43 c 0
 87 75 104 87 138 87 c 2
 214 87 l 1
 214 403 l 1
EndSplineSet
Validated: 1
EndChar

StartChar: two
Encoding: 50 50 19
Width: 500
GlyphClass: 2
Flags: W
HStem: 0 92<197 339> 438 89<172.497 287.107>
VStem: 304 112<298.606 422.081> 339 82<92 131.217>
LayerCount: 2
Fore
SplineSet
418 28 m 2xd0
 417 9 415 0 393 0 c 2
 101 0 l 2
 69 0 52 14 52 39 c 0
 52 60 63 79 85 101 c 2
 251 261 l 2
 286 295 304 330 304 365 c 0
 304 413 280 438 232 438 c 0
 203 438 181 428 169 413 c 0
 152 392 146 364 114 364 c 0
 86 364 73 382 73 418 c 0
 73 454 80 467 106 485 c 0
 149 513 194 527 249 527 c 0
 353 527 416 465 416 373 c 0xe0
 416 310 384 254 320 198 c 2
 197 92 l 1
 339 92 l 1
 339 121 353 135 383 135 c 0
 408 135 421 120 421 97 c 2
 421 92 l 1
 418 28 l 2xd0
EndSplineSet
Validated: 1
EndChar

StartChar: three
Encoding: 51 51 20
Width: 500
GlyphClass: 2
Flags: W
HStem: -14 89<152.79 290.529> 232 81<187.516 285.369> 443 84<163.515 285.656>
VStem: 298 107<326.88 431.204> 312 106<94.7679 215.992>
LayerCount: 2
Fore
SplineSet
325 279 m 1xf0
 388 259 418 219 418 151 c 0
 418 52 348 -14 227 -14 c 0
 125 -14 61 25 61 67 c 0
 61 93 79 112 108 112 c 0
 136 112 174 75 232 75 c 0
 284 75 312 104 312 154 c 0xe8
 312 217 284 230 228 232 c 0
 196 233 185 241 185 275 c 0
 185 312 200 309 228 313 c 0
 271 319 298 326 298 378 c 0
 298 420 278 443 238 443 c 0
 183 443 152 406 118 406 c 0
 96 406 83 421 83 442 c 0
 83 485 151 527 250 527 c 0
 348 527 405 471 405 392 c 0
 405 340 380 304 325 279 c 1xf0
EndSplineSet
Validated: 1
EndChar

StartChar: four
Encoding: 52 52 21
Width: 500
GlyphClass: 2
Flags: W
HStem: 0 78<164.188 271 359 431.656> 128 95<366.742 429.351> 128 75<143 271 359.094 401.304> 507 20G<257.5 263.5>
VStem: 271 88<78 128 203 429>
LayerCount: 2
Fore
SplineSet
271 203 m 1xb8
 271 429 l 1
 143 203 l 1
 271 203 l 1xb8
242 511 m 2
 249 523 253 527 262 527 c 0
 265 527 270 526 274 525 c 2
 347 512 l 2
 355 510 359 504 359 492 c 2
 359 203 l 1xb8
 361 202 364 202 366 202 c 0
 382 202 387 223 402 223 c 0
 424 223 439 212 439 191 c 0
 439 186 439 180 437 175 c 2
 428 145 l 2
 425 133 417 128 405 128 c 2xd8
 359 128 l 1
 359 78 l 1
 383 78 l 2
 417 78 435 67 435 38 c 0
 435 9 417 0 383 0 c 2
 212 0 l 2
 178 0 161 9 161 38 c 0
 161 67 178 78 212 78 c 2
 271 78 l 1
 271 128 l 1
 83 128 l 2
 70 128 62 136 62 153 c 2
 62 178 l 2
 62 191 62 202 72 219 c 2
 242 511 l 2
EndSplineSet
Validated: 1
EndChar

StartChar: five
Encoding: 53 53 22
Width: 500
GlyphClass: 2
Flags: W
HStem: -13 90<118.36 290.621> 235 292<83.168 176.931> 268 84<178.628 287.982> 436 91<177 412.963>
VStem: 78 338<439.048 523.759> 78 99<337 436> 320 108<106.389 236.203>
LayerCount: 2
Fore
SplineSet
177 337 m 1x94
 211 347 240 352 265 352 c 0
 363 352 428 273 428 168 c 0
 428 50 353 -13 212 -13 c 0
 111 -13 58 9 58 52 c 0
 58 78 79 100 105 100 c 0
 134 100 173 77 223 77 c 0
 285 77 320 110 320 168 c 0
 320 224 286 268 232 268 c 0xb6
 184 268 152 235 121 235 c 0
 89 235 78 252 78 292 c 2xc6
 78 493 l 2
 78 514 79 527 104 527 c 2xc8
 371 527 l 2
 406 527 416 514 416 481 c 0x98
 416 448 406 436 371 436 c 2
 177 436 l 1
 177 337 l 1x94
EndSplineSet
Validated: 1
EndChar

StartChar: six
Encoding: 54 54 23
Width: 500
GlyphClass: 2
Flags: W
HStem: -12 79<201.001 306.009> 245 89<201.01 303.592> 453 74<263.622 420.257>
VStem: 65 109<100.709 285.352> 331 103<90.7812 217.64>
LayerCount: 2
Fore
SplineSet
172 288 m 1
 198 318 237 334 279 334 c 0
 366 334 434 259 434 161 c 0
 434 59 363 -12 251 -12 c 0
 139 -12 65 73 65 223 c 0
 65 406 177 527 345 527 c 0
 398 527 424 519 424 497 c 0
 424 450 396 461 328 453 c 0
 242 444 194 392 172 288 c 1
174 158 m 0
 174 102 210 67 256 67 c 0
 299 67 331 101 331 154 c 0
 331 207 297 245 252 245 c 0
 208 245 174 209 174 158 c 0
EndSplineSet
Validated: 1
EndChar

StartChar: seven
Encoding: 55 55 24
Width: 500
GlyphClass: 2
Flags: W
HStem: -7 21G<161 247> 436 91<128 303>
VStem: 56 71<401.055 436>
LayerCount: 2
Fore
SplineSet
127 428 m 1
 125 412 111 398 89 398 c 0
 67 398 56 408 56 430 c 0
 56 433 57 437 57 440 c 2
 64 503 l 2
 66 518 76 527 92 527 c 2
 379 527 l 2
 394 527 401 521 401 506 c 2
 401 483 l 1
 264 12 l 2
 260 -1 254 -7 240 -7 c 2
 165 -7 l 2
 157 -7 151 -1 151 6 c 0
 151 10 150 14 152 18 c 2
 303 436 l 1
 128 436 l 1
 127 428 l 1
EndSplineSet
Validated: 1
EndChar

StartChar: eight
Encoding: 56 56 25
Width: 500
GlyphClass: 2
Flags: W
HStem: -13 80<190.8 311.154> 218 89<192.514 308.409> 450 77<192.504 306.055>
VStem: 62 106<90.9979 196.334 331.924 425.064> 334 105<90.3227 195.096 331.72 422.605>
LayerCount: 2
Fore
SplineSet
158 263 m 1
 96 291 68 329 68 387 c 0
 68 462 140 527 251 527 c 0
 362 527 434 461 434 382 c 0
 434 329 403 288 343 263 c 1
 405 241 439 195 439 138 c 0
 439 50 365 -13 251 -13 c 0
 137 -13 62 53 62 137 c 0
 62 195 96 240 158 263 c 1
172 378 m 0
 172 337 204 307 250 307 c 0
 297 307 329 336 329 378 c 0
 329 418 298 450 250 450 c 0
 203 450 172 419 172 378 c 0
168 142 m 0
 168 100 200 67 251 67 c 0
 302 67 334 98 334 142 c 0
 334 187 300 218 251 218 c 0
 202 218 168 189 168 142 c 0
EndSplineSet
Validated: 1
EndChar

StartChar: nine
Encoding: 57 57 26
Width: 500
GlyphClass: 2
Flags: W
HStem: -13 73<76.2266 239.626> 179 89<193.623 295.279> 447 79<191.951 296.018>
VStem: 63 104<295.807 422.969> 323 109<227.727 412.599>
LayerCount: 2
Fore
SplineSet
323 355 m 0
 323 411 288 447 242 447 c 0
 199 447 167 412 167 359 c 0
 167 306 200 268 245 268 c 0
 289 268 323 304 323 355 c 0
325 226 m 1
 299 196 260 179 218 179 c 0
 131 179 63 255 63 353 c 0
 63 455 135 526 247 526 c 0
 359 526 432 440 432 290 c 0
 432 107 320 -13 152 -13 c 0
 99 -13 73 -4 73 18 c 0
 73 65 102 52 170 60 c 0
 256 69 303 122 325 226 c 1
EndSplineSet
Validated: 1
EndChar

StartChar: colon
Encoding: 58 58 27
Width: 500
GlyphClass: 2
Flags: W
HStem: -6 154<190.265 310.688> 211 153<190.788 312.125>
VStem: 166 170<19.1887 123.905 235.642 339.905>
LayerCount: 2
Fore
SplineSet
166 72 m 0
 166 116 199 148 250 148 c 0
 302 148 336 116 336 72 c 0
 336 27 301 -6 250 -6 c 0
 199 -6 166 28 166 72 c 0
166 288 m 0
 166 332 199 364 251 364 c 0
 303 364 335 332 335 288 c 0
 335 243 302 211 251 211 c 0
 200 211 166 244 166 288 c 0
EndSplineSet
Validated: 1
EndChar

StartChar: semicolon
Encoding: 59 59 28
Width: 500
GlyphClass: 2
Flags: W
HStem: 211 153<188.265 310>
VStem: 164 169<234.305 341.218>
LayerCount: 2
Fore
SplineSet
164 288 m 0
 164 332 197 364 248 364 c 0
 300 364 333 332 333 288 c 0
 333 243 300 211 248 211 c 0
 197 211 164 244 164 288 c 0
201 118 m 2
 206 136 211 141 230 141 c 2
 327 141 l 2
 336 141 341 137 341 132 c 0
 341 130 340 125 338 120 c 2
 216 -118 l 2
 212 -127 204 -132 196 -132 c 0
 194 -132 191 -132 188 -131 c 2
 157 -120 l 2
 148 -117 142 -111 142 -104 c 0
 142 -100 142 -96 143 -93 c 2
 201 118 l 2
EndSplineSet
Validated: 1
EndChar

StartChar: less
Encoding: 60 60 29
Width: 500
GlyphClass: 2
Flags: W
LayerCount: 2
Fore
SplineSet
435 136 m 2
 455 127 465 116 465 97 c 0
 465 72 450 52 428 52 c 0
 420 52 410 55 398 60 c 2
 74 212 l 2
 49 224 37 235 37 256 c 0
 37 277 49 288 74 300 c 2
 398 452 l 2
 410 457 420 460 428 460 c 0
 450 460 465 441 465 416 c 0
 465 397 455 386 435 377 c 2
 177 256 l 1
 435 136 l 2
EndSplineSet
Validated: 1
EndChar

StartChar: equal
Encoding: 61 61 30
Width: 500
GlyphClass: 2
Flags: W
HStem: 133 85<34.9988 467.001> 295 85<34.9988 467.001>
LayerCount: 2
Fore
SplineSet
75 295 m 2
 48 295 30 313 30 338 c 0
 30 364 48 380 75 380 c 2
 427 380 l 2
 454 380 472 363 472 338 c 0
 472 312 454 295 427 295 c 2
 75 295 l 2
75 133 m 2
 48 133 30 151 30 176 c 0
 30 202 48 218 75 218 c 2
 427 218 l 2
 454 218 472 201 472 176 c 0
 472 150 454 133 427 133 c 2
 75 133 l 2
EndSplineSet
Validated: 1
EndChar

StartChar: greater
Encoding: 62 62 31
Width: 500
GlyphClass: 2
Flags: W
LayerCount: 2
Fore
SplineSet
66 377 m 2
 46 386 37 397 37 416 c 0
 37 441 52 460 74 460 c 0
 82 460 90 457 102 452 c 2
 428 300 l 2
 453 288 465 277 465 256 c 0
 465 235 453 224 428 212 c 2
 102 60 l 2
 90 55 82 52 74 52 c 0
 52 52 37 72 37 97 c 0
 37 116 46 127 66 136 c 2
 324 256 l 1
 66 377 l 2
EndSplineSet
Validated: 1
EndChar

StartChar: question
Encoding: 63 63 32
Width: 500
GlyphClass: 2
Flags: W
HStem: -6 129<158.642 279.904> 434 76<175.797 291.721>
VStem: 96 76<368.278 429.642> 140 159<13 104.875> 172 90<155.31 222.943> 308 104<322.048 416.377>
LayerCount: 2
Fore
SplineSet
140 59 m 0xd4
 140 96 170 123 219 123 c 0
 268 123 299 97 299 59 c 0
 299 22 268 -6 219 -6 c 0
 170 -6 140 23 140 59 c 0xd4
172 210 m 2xcc
 172 247 180 263 220 285 c 0
 267 311 308 318 308 370 c 0
 308 408 280 434 234 434 c 0
 186 434 177 425 172 403 c 0
 167 381 162 365 130 365 c 0
 106 365 96 377 96 405 c 2
 96 457 l 2xe4
 96 486 164 510 252 510 c 0
 352 510 412 454 412 366 c 0
 412 297 360 243 262 218 c 1
 262 187 l 2
 262 165 246 151 218 151 c 0
 189 151 172 165 172 186 c 2
 172 210 l 2xcc
EndSplineSet
Validated: 1
EndChar

StartChar: at
Encoding: 64 64 33
Width: 500
GlyphClass: 2
Flags: W
HStem: -42 74<214.635 355.665> 137 68<258.344 326.175> 318 61<268.179 326.812> 483 74<201.086 304.954>
VStem: 56 89<120.912 409.146> 179 73<210.511 303.02> 327 88<206.038 318 379 460.688>
LayerCount: 2
Fore
SplineSet
327 213 m 1
 327 317 l 1
 323 318 318 318 315 318 c 0
 277 318 252 292 252 254 c 0
 252 222 268 205 296 205 c 0
 303 205 313 207 327 213 c 1
342 153 m 1
 317 142 295 137 274 137 c 0
 220 137 179 182 179 244 c 0
 179 331 229 379 317 379 c 2
 328 379 l 1
 328 447 301 483 257 483 c 0
 189 483 145 408 145 267 c 0
 145 111 192 32 280 32 c 0
 312 32 334 46 352 46 c 0
 365 46 376 34 376 12 c 0
 376 -21 340 -42 279 -42 c 0
 136 -42 56 61 56 261 c 0
 56 454 136 557 262 557 c 0
 372 557 415 493 415 361 c 2
 415 208 l 1
 429 194 436 181 436 169 c 0
 436 149 418 133 395 133 c 0
 383 133 365 141 342 153 c 1
EndSplineSet
Validated: 1
EndChar

StartChar: A
Encoding: 65 65 34
Width: 500
GlyphClass: 2
Flags: W
HStem: 0 89<-0.77301 47 138 198.966 286.034 348 456 503.293> 137 84<183 302> 392 90<76.309 156>
VStem: -5 208<4.81892 84.4757> 282 226<4.81892 84.043>
LayerCount: 2
Fore
SplineSet
138 89 m 1
 152 89 l 2
 186 89 203 79 203 45 c 0
 203 11 186 0 152 0 c 2
 47 0 l 2
 13 0 -5 11 -5 45 c 0
 -5 74 11 89 40 89 c 2
 47 89 l 1
 156 392 l 1
 122 392 l 2
 88 392 72 404 72 438 c 0
 72 471 88 482 123 482 c 2
 276 482 l 2
 313 482 316 472 327 442 c 2
 456 89 l 1
 462 89 l 2
 491 89 508 74 508 45 c 0
 508 11 490 0 456 0 c 2
 333 0 l 2
 299 0 282 11 282 45 c 0
 282 79 299 89 333 89 c 2
 348 89 l 1
 331 137 l 1
 155 137 l 1
 138 89 l 1
183 221 m 1
 302 221 l 1
 242 392 l 1
 183 221 l 1
EndSplineSet
Validated: 1
EndChar

StartChar: B
Encoding: 66 66 35
Width: 500
GlyphClass: 2
Flags: W
HStem: 0 87<32.1258 79 180 334.048> 219 82<180 315.894> 392 90<33.0267 79 180 322.104>
VStem: 79 101<89 219 301 392> 326 116<312.855 387.066> 358 115<109.786 202.888>
LayerCount: 2
Fore
SplineSet
258 0 m 1xf4
 79 0 l 2
 45 0 28 12 28 45 c 0
 28 74 44 89 72 89 c 2
 79 89 l 1
 79 392 l 1
 72 392 l 2
 44 392 28 409 28 438 c 0
 28 471 45 482 79 482 c 2
 267 482 l 2
 384 482 442 443 442 360 c 0xf8
 442 318 424 285 388 264 c 1
 447 242 473 206 473 148 c 0
 473 106 455 58 421 32 c 0
 381 2 337 0 286 0 c 2
 258 0 l 1xf4
180 301 m 1
 234 301 l 2
 296 301 326 312 326 352 c 0
 326 389 301 395 248 395 c 2
 180 395 l 1
 180 301 l 1
180 87 m 1
 241 87 l 2
 319 87 358 109 358 157 c 0xf4
 358 208 320 219 245 219 c 2
 180 219 l 1
 180 87 l 1
EndSplineSet
Validated: 1
EndChar

StartChar: C
Encoding: 67 67 36
Width: 500
GlyphClass: 2
Flags: W
HStem: -13 90<198.819 353.449> 296 199<380.727 450.433> 407 89<198.773 341.333>
VStem: 26 116<139.008 343.226> 370 84<300.335 378.191>
LayerCount: 2
Fore
SplineSet
378 469 m 1xb8
 388 487 399 495 417 495 c 0
 443 495 453 484 453 449 c 2
 454 343 l 2
 454 308 446 296 412 296 c 0xd8
 387 296 378 308 370 334 c 0
 357 382 332 407 272 407 c 0
 190 407 142 350 142 242 c 0
 142 134 189 77 272 77 c 0
 349 77 395 133 432 133 c 0
 453 133 469 114 469 87 c 0
 469 44 376 -13 264 -13 c 0
 121 -13 26 92 26 242 c 0
 26 384 123 496 262 496 c 0
 301 496 338 487 378 469 c 1xb8
EndSplineSet
Validated: 1
EndChar

StartChar: D
Encoding: 68 68 37
Width: 500
GlyphClass: 2
Flags: W
HStem: 0 89<32.0342 79 184 299.969> 392 90<32.8096 79 184 301.961>
VStem: 79 105<89.0008 392> 357 116<145.598 336.025>
LayerCount: 2
Fore
SplineSet
184 90 m 1
 192 89 200 89 208 89 c 0
 310 89 357 137 357 242 c 0
 357 344 308 395 208 395 c 0
 200 395 192 395 184 394 c 1
 184 90 l 1
79 0 m 2
 45 0 28 11 28 45 c 0
 28 74 43 89 72 89 c 2
 79 89 l 1
 79 392 l 1
 72 392 l 2
 43 392 28 409 28 438 c 0
 28 471 44 482 79 482 c 2
 156 482 l 1
 180 482 l 2
 258 482 322 481 372 451 c 0
 436 412 473 339 473 242 c 0
 473 141 430 63 358 25 c 0
 316 2 264 0 202 0 c 2
 156 0 l 1
 79 0 l 2
EndSplineSet
Validated: 1
EndChar

StartChar: E
Encoding: 69 69 38
Width: 500
GlyphClass: 2
Flags: W
HStem: 0 186<372.579 450.77> 0 87<33.3335 79 178 368> 217 84<178 249> 302 180<372.773 450.274> 397 85<33.1258 79 178 368>
VStem: 79 99<89 217 301 392> 250 83<165.829 217 301 353.453> 368 87<87 181.966 306.227 397>
LayerCount: 2
Fore
SplineSet
412 482 m 2x37
 446 482 455 474 455 445 c 2
 455 354 l 2
 455 319 444 302 412 302 c 0x37
 379 302 368 320 368 354 c 2
 368 397 l 1
 178 397 l 1
 178 301 l 1
 249 301 l 1
 249 306 l 2
 249 343 264 357 292 357 c 0
 323 357 333 338 333 301 c 2
 333 217 l 2
 333 180 323 162 292 162 c 0
 264 162 250 177 250 209 c 2
 250 217 l 1
 178 217 l 1
 178 87 l 1
 368 87 l 1x6f
 368 135 l 2
 368 170 380 186 412 186 c 0
 445 186 455 169 455 135 c 2
 455 37 l 2
 455 8 446 0 412 0 c 2xa7
 79 0 l 2
 46 0 29 12 29 45 c 0
 29 73 44 89 72 89 c 2
 79 89 l 1
 79 392 l 1
 73 392 l 2
 45 392 29 409 29 438 c 0
 29 470 46 482 79 482 c 2x6f
 412 482 l 2x37
EndSplineSet
Validated: 1
EndChar

StartChar: F
Encoding: 70 70 39
Width: 500
GlyphClass: 2
Flags: W
HStem: 0 89<37.5654 83 182 250.988> 163 192<257.963 331.428> 218 84<182 253> 302 180<376.478 453.979> 397 85<37.0119 83 182 372>
VStem: 33 222<4.61948 84.4346> 83 99<89 218 302 392> 253 84<167.295 218 302 351.033> 372 87<306.227 397>
LayerCount: 2
Fore
SplineSet
417 482 m 2x9280
 451 482 459 474 459 445 c 2
 459 354 l 2
 459 319 447 302 415 302 c 0x9280
 382 302 372 320 372 354 c 2
 372 397 l 1
 182 397 l 1
 182 302 l 1
 253 302 l 1xab80
 253 307 l 2
 253 338 267 355 295 355 c 0xc380
 326 355 337 336 337 302 c 2x9380
 337 218 l 2xa380
 337 184 326 163 295 163 c 0xc380
 267 163 253 181 253 210 c 2
 253 218 l 1
 182 218 l 1
 182 89 l 1xa380
 205 89 l 2
 238 89 255 78 255 45 c 0xa480
 255 12 238 0 205 0 c 2
 83 0 l 2xa280
 50 0 33 12 33 45 c 0xa480
 33 73 49 89 77 89 c 2
 83 89 l 1
 83 392 l 1xa280
 78 392 l 2
 50 392 33 409 33 438 c 0xa480
 33 470 50 482 83 482 c 2xaa80
 417 482 l 2x9280
EndSplineSet
Validated: 1
EndChar

StartChar: G
Encoding: 71 71 40
Width: 500
GlyphClass: 2
Flags: W
HStem: -12 86<200.559 347.176> 152 90<256.034 349 450 496.788> 296 199<376.612 446.065> 407 89<194.74 337.06>
VStem: 21 117<140.207 343.226> 252 250<156.828 237.307> 349 101<82.3439 152> 365 85<300.742 379.602>
LayerCount: 2
Fore
SplineSet
374 469 m 1xd9
 384 487 394 495 412 495 c 0
 438 495 449 484 449 449 c 2
 450 343 l 2
 450 308 442 296 408 296 c 0
 383 296 373 308 365 334 c 0xe9
 352 382 328 407 268 407 c 0
 186 407 138 350 138 242 c 0
 138 134 189 74 272 74 c 0
 293 74 318 79 349 88 c 1
 349 152 l 1xda
 303 152 l 2
 269 152 252 163 252 197 c 0xdc
 252 231 269 242 303 242 c 2
 450 242 l 2xd9
 484 242 502 233 502 198 c 0xdc
 502 169 486 152 457 152 c 2
 450 152 l 1xda
 450 56 l 1
 450 51 l 2
 450 36 449 30 436 22 c 0
 414 9 344 -12 260 -12 c 0
 117 -12 21 92 21 242 c 0
 21 384 119 496 258 496 c 0
 297 496 334 487 374 469 c 1xd9
EndSplineSet
Validated: 1
EndChar

StartChar: H
Encoding: 72 72 41
Width: 500
GlyphClass: 2
Flags: W
HStem: 0 89<32.0342 79 184 231.773 270.227 318 422 468.159> 209 90<184 318> 392 90<32.8096 79 184 230.938 271.062 318 422 467.443>
VStem: 28 208<4.81892 84.636 396.828 477.227> 79 105<89 209 299 392> 266 206<4.81892 84.636 396.828 477.227> 318 104<89 209 299 392>
LayerCount: 2
Fore
SplineSet
318 299 m 1xea
 318 392 l 1xea
 311 392 l 2
 282 392 266 409 266 438 c 0xe4
 266 471 283 482 318 482 c 2
 422 482 l 2xe2
 457 482 472 471 472 438 c 0xe4
 472 409 458 392 429 392 c 2
 422 392 l 1
 422 89 l 1xe2
 429 89 l 2
 458 89 472 74 472 45 c 0xe4
 472 11 456 0 422 0 c 2
 318 0 l 2xe2
 284 0 266 11 266 45 c 0xe4
 266 74 282 89 311 89 c 2
 318 89 l 1
 318 209 l 1
 184 209 l 1
 184 89 l 1xea
 191 89 l 2
 220 89 236 74 236 45 c 0xf0
 236 11 218 0 184 0 c 2
 79 0 l 2xe8
 45 0 28 11 28 45 c 0xf0
 28 74 43 89 72 89 c 2
 79 89 l 1
 79 392 l 1xe8
 72 392 l 2
 43 392 28 409 28 438 c 0xf0
 28 471 44 482 79 482 c 2
 184 482 l 2xe8
 219 482 236 471 236 438 c 0xf0
 236 409 220 392 191 392 c 2
 184 392 l 1
 184 299 l 1
 318 299 l 1xea
EndSplineSet
Validated: 1
EndChar

StartChar: I
Encoding: 73 73 42
Width: 500
GlyphClass: 2
Flags: W
HStem: 0 89<82.227 198 303 417.903> 392 90<82.7069 198 303 418.505>
VStem: 198 105<89 392>
LayerCount: 2
Fore
SplineSet
372 482 m 2
 406 482 423 473 423 438 c 0
 423 404 406 392 372 392 c 2
 303 392 l 1
 303 89 l 1
 372 89 l 2
 406 89 422 79 422 45 c 0
 422 13 407 0 372 0 c 2
 130 0 l 2
 96 0 78 11 78 45 c 0
 78 79 96 89 130 89 c 2
 198 89 l 1
 198 392 l 1
 130 392 l 2
 96 392 78 404 78 438 c 0
 78 472 96 482 130 482 c 2
 372 482 l 2
EndSplineSet
Validated: 1
EndChar

StartChar: J
Encoding: 74 74 43
Width: 500
GlyphClass: 2
Flags: W
HStem: -12 90<149.258 270.257> 392 90<176.707 292 398 478.505>
VStem: 44 88<94.2943 221.438> 292 106<99.1743 392>
LayerCount: 2
Fore
SplineSet
432 482 m 2
 466 482 483 473 483 438 c 0
 483 404 466 393 432 393 c 2
 398 393 l 1
 398 168 l 1
 398 160 l 2
 398 111 397 72 367 38 c 0
 339 6 286 -12 214 -12 c 0
 162 -12 116 -3 74 17 c 0
 52 27 44 38 44 80 c 2
 44 164 l 2
 44 207 55 227 91 227 c 0
 132 227 128 195 132 159 c 0
 138 104 150 78 208 78 c 0
 276 78 292 114 292 192 c 2
 292 392 l 1
 224 392 l 2
 190 392 172 404 172 438 c 0
 172 472 190 482 224 482 c 2
 432 482 l 2
EndSplineSet
Validated: 1
EndChar

StartChar: K
Encoding: 75 75 44
Width: 500
GlyphClass: 2
Flags: W
HStem: 0 89<32.0342 79 184 231.773 424.234 479.776> 392 90<32.8096 79 184 230.938 418 468.372>
VStem: 28 208<4.81892 84.636 396.828 477.227> 79 105<89 165 269 392> 272 201<398.683 477.654> 324 160<14.5189 84.5314>
LayerCount: 2
Fore
SplineSet
310 395 m 1xd0
 282 398 272 410 272 438 c 0
 272 471 287 482 322 482 c 2
 422 482 l 2
 457 482 473 471 473 438 c 0xd8
 473 408 459 392 428 392 c 0
 426 392 421 392 418 392 c 1
 299 275 l 1
 353 235 386 171 424 89 c 1
 429 90 434 90 438 90 c 0
 470 90 484 75 484 45 c 0
 484 11 467 0 433 0 c 2
 383 0 l 2
 345 0 343 17 324 58 c 0
 300 110 274 159 222 202 c 1
 184 165 l 1
 184 89 l 1xd4
 191 89 l 2
 220 89 236 74 236 45 c 0xe0
 236 11 218 0 184 0 c 2
 79 0 l 2xd0
 45 0 28 11 28 45 c 0xe0
 28 74 43 89 72 89 c 2
 79 89 l 1
 79 392 l 1xd0
 72 392 l 2
 43 392 28 409 28 438 c 0xe0
 28 471 44 482 79 482 c 2
 184 482 l 2xd0
 219 482 236 471 236 438 c 0xe0
 236 409 220 392 191 392 c 2
 184 392 l 1
 184 269 l 1
 310 395 l 1xd0
EndSplineSet
Validated: 1
EndChar

StartChar: L
Encoding: 76 76 45
Width: 500
GlyphClass: 2
Flags: W
HStem: 0 213<395.579 474.265> 0 89<22.0119 103 206 391> 392 90<22.4687 103 206 287.531>
VStem: 18 274<396.893 477.421> 103 103<89 392> 391 88<89 208.966>
LayerCount: 2
Fore
SplineSet
68 0 m 2x6c
 35 0 18 12 18 45 c 0x74
 18 78 35 89 68 89 c 2
 103 89 l 1
 103 392 l 1x6c
 68 392 l 2
 35 392 18 405 18 438 c 0
 18 470 35 482 68 482 c 2
 242 482 l 2
 275 482 292 470 292 438 c 0x74
 292 405 275 392 242 392 c 2
 206 392 l 1
 206 89 l 1
 391 89 l 1x6c
 391 162 l 2
 391 197 403 213 435 213 c 0
 468 213 479 196 479 162 c 2
 479 37 l 2
 479 8 471 0 437 0 c 2xac
 68 0 l 2x6c
EndSplineSet
Validated: 1
EndChar

StartChar: M
Encoding: 77 77 46
Width: 500
GlyphClass: 2
Flags: W
HStem: 0 89<-4.96582 42 133 179.966 321.034 368 459 505.966> 392 90<7.27395 53 448 493.726>
VStem: -9 193<4.38684 85.0601> 42 91<89 281.818> 53 86<199.182 338> 317 193<4.38684 85.0601> 362 86<199.182 338> 368 91<89 281.818>
LayerCount: 2
Fore
SplineSet
329 439 m 2xc8
 340 470 356 482 384 482 c 2
 448 482 l 2
 483 482 499 471 499 438 c 0
 499 409 483 392 454 392 c 2
 448 392 l 1xca
 459 89 l 1xc1
 466 89 l 2
 495 89 510 74 510 45 c 0xc4
 510 11 493 0 459 0 c 2
 368 0 l 2xc1
 334 0 317 11 317 45 c 0xc4
 317 74 332 89 361 89 c 2
 368 89 l 1xc1
 362 338 l 1
 302 152 l 2
 293 124 277 113 250 113 c 0
 223 113 207 124 198 152 c 2
 139 338 l 1xca
 133 89 l 1xd0
 140 89 l 2
 169 89 184 74 184 45 c 0xe0
 184 11 167 0 133 0 c 2
 42 0 l 2xd0
 8 0 -9 11 -9 45 c 0xe0
 -9 74 6 89 35 89 c 2
 42 89 l 1xd0
 53 392 l 1
 47 392 l 2
 18 392 2 409 2 438 c 0
 2 471 18 482 53 482 c 2
 117 482 l 2
 145 482 161 470 172 439 c 2
 252 208 l 1
 329 439 l 2xc8
EndSplineSet
Validated: 1
EndChar

StartChar: N
Encoding: 78 78 47
Width: 500
GlyphClass: 2
Flags: W
HStem: 0 89<26.4687 72 165 233.988> 392 90<27.0267 72 276.469 345 438 482.973>
VStem: 22 216<4.61948 84.4346> 72 93<89 310> 272 216<396.893 477.654> 345 93<168 392>
LayerCount: 2
Fore
SplineSet
345 168 m 1xd4
 345 392 l 1xd4
 322 392 l 2
 289 392 272 405 272 438 c 0xc8
 272 471 289 482 322 482 c 2
 438 482 l 2xc4
 471 482 488 471 488 438 c 0xc8
 488 409 472 392 444 392 c 2
 438 392 l 1
 438 23 l 2
 438 -1 436 -6 416 -6 c 2
 375 -6 l 2
 356 -6 344 -6 334 12 c 2
 165 310 l 1
 165 89 l 1xd4
 188 89 l 2
 221 89 238 78 238 45 c 0xe0
 238 12 221 0 188 0 c 2
 72 0 l 2xd0
 39 0 22 12 22 45 c 0xe0
 22 73 37 89 65 89 c 2
 72 89 l 1
 72 392 l 1xd0
 66 392 l 2
 38 392 22 409 22 438 c 0xe0
 22 470 39 482 72 482 c 2
 138 482 l 1
 142 482 l 2
 165 482 173 482 190 451 c 2
 345 168 l 1xd4
EndSplineSet
Validated: 1
EndChar

StartChar: O
Encoding: 79 79 48
Width: 500
GlyphClass: 2
Flags: W
HStem: -12 72<196.305 305.929> 422 74<195.616 305.929>
VStem: 21 117<132.881 350.758> 363 117<130.942 352.459>
LayerCount: 2
Fore
SplineSet
251 60 m 0
 319 60 363 138 363 242 c 0
 363 346 319 422 251 422 c 0
 183 422 138 345 138 242 c 0
 138 139 184 60 251 60 c 0
480 242 m 0
 480 93 384 -12 251 -12 c 0
 119 -12 21 93 21 242 c 0
 21 391 116 496 251 496 c 0
 384 496 480 390 480 242 c 0
EndSplineSet
Validated: 1
EndChar

StartChar: P
Encoding: 80 80 49
Width: 500
GlyphClass: 2
Flags: W
HStem: 0 89<51.4687 97 196 282.988> 172 92<196 328.234> 389 93<53.5403 97 196 333.401>
VStem: 47 240<4.61948 84.4346> 97 99<89 172 264 389> 350 117<282.697 371.257>
LayerCount: 2
Fore
SplineSet
196 389 m 1xec
 196 264 l 1
 253 264 l 2
 317 264 350 287 350 328 c 0
 350 369 317 389 253 389 c 2
 196 389 l 1xec
265 482 m 2
 399 482 467 430 467 332 c 0
 467 228 399 172 265 172 c 2
 196 172 l 1
 196 89 l 1xec
 237 89 l 2
 270 89 287 78 287 45 c 0xf4
 287 12 270 0 237 0 c 2
 97 0 l 2xec
 64 0 47 12 47 45 c 0xf4
 47 73 62 89 90 89 c 2
 97 89 l 1
 97 392 l 1xec
 91 392 l 2
 63 392 47 409 47 438 c 0xf4
 47 470 64 482 97 482 c 2
 265 482 l 2
EndSplineSet
Validated: 1
EndChar

StartChar: Q
Encoding: 81 81 50
Width: 500
GlyphClass: 2
Flags: W
HStem: -125 79<275.651 444.36> -99 72<199.409 339.581> -8 65<218.163 306.726> 427 69<196.678 306.085>
VStem: 21 117<133.832 352.47> 363 117<132.91 354.443>
LayerCount: 2
Fore
SplineSet
251 57 m 0x3c
 319 57 363 138 363 242 c 0
 363 346 319 427 251 427 c 0
 183 427 138 345 138 242 c 0
 138 139 184 57 251 57 c 0x3c
169 8 m 1
 80 40 21 132 21 245 c 0
 21 392 115 496 251 496 c 0
 385 496 480 392 480 245 c 0
 480 97 383 -8 254 -8 c 0
 250 -8 242 -8 228 -7 c 1
 198 -38 l 1
 220 -30 241 -27 263 -27 c 0x7c
 319 -27 351 -46 374 -46 c 0
 399 -46 420 -28 437 -28 c 0
 457 -28 472 -46 472 -69 c 0
 472 -99 432 -125 377 -125 c 0xbc
 325 -125 286 -99 245 -99 c 0x7c
 194 -99 159 -131 135 -131 c 0
 112 -131 93 -114 93 -92 c 0
 93 -75 106 -57 128 -34 c 2
 169 8 l 1
EndSplineSet
Validated: 1
EndChar

StartChar: R
Encoding: 82 82 51
Width: 500
GlyphClass: 2
Flags: W
HStem: 0 89<38.4949 85 190 236.966 442.189 497.966> 197 83<190 256.571> 395 87<38.0342 85 185 317.916>
VStem: 34 207<4.81892 84.636> 85 100<89 197 280 392> 331 117<293.012 383.884>
LayerCount: 2
Fore
SplineSet
185 280 m 1xec
 240 280 l 2
 302 280 331 293 331 338 c 0
 331 380 306 395 253 395 c 2
 185 395 l 1
 185 280 l 1xec
257 178 m 2
 249 190 239 197 228 197 c 2
 190 197 l 1
 190 89 l 1
 197 89 l 2
 226 89 241 74 241 45 c 0xf4
 241 11 224 0 190 0 c 2
 85 0 l 2xec
 51 0 34 12 34 45 c 0xf4
 34 74 50 89 78 89 c 2
 85 89 l 1
 85 392 l 1xec
 78 392 l 2
 50 392 34 409 34 438 c 0xf4
 34 471 51 482 85 482 c 2
 272 482 l 2
 389 482 448 436 448 350 c 0
 448 289 414 244 352 222 c 1
 364 215 369 204 376 194 c 2
 442 89 l 1
 446 90 452 90 455 90 c 0
 487 90 502 75 502 45 c 0
 502 11 485 0 451 0 c 2
 401 0 l 2
 373 0 367 9 357 25 c 2
 257 178 l 2
EndSplineSet
Validated: 1
EndChar

StartChar: S
Encoding: 83 83 52
Width: 500
GlyphClass: 2
Flags: W
HStem: -12 192<52.7507 128.133> -12 77<178.738 322.066> 327 169<352.847 425.598> 416 80<190.978 317.904>
VStem: 47 96<98.9763 168.217> 58 116<322.144 398.131> 336 117<80.241 165.562>
LayerCount: 2
Fore
SplineSet
134 8 m 1x56
 125 -8 114 -12 96 -12 c 0
 63 -12 50 -2 49 32 c 2
 47 128 l 1
 47 132 l 2
 47 167 58 180 92 180 c 0
 124 180 128 157 143 128 c 0x8a
 165 86 202 65 257 65 c 0
 306 65 336 86 336 124 c 0
 336 176 290 177 198 201 c 0
 106 225 58 256 58 338 c 0
 58 430 134 496 245 496 c 0x56
 283 496 317 488 352 473 c 1
 361 493 371 496 393 496 c 0
 420 496 427 487 428 452 c 2
 429 374 l 1
 429 370 l 2
 429 339 420 327 388 327 c 0x26
 355 327 351 345 341 365 c 0
 324 397 295 416 256 416 c 0
 205 416 174 389 174 356 c 0
 174 314 221 310 305 292 c 0
 406 271 453 225 453 143 c 0
 453 43 384 -12 257 -12 c 0
 215 -12 176 -8 134 8 c 1x56
EndSplineSet
Validated: 1
EndChar

StartChar: T
Encoding: 84 84 53
Width: 500
GlyphClass: 2
Flags: W
HStem: 0 90<82.521 198 303 417.903> 393 90<113 198 303 388>
VStem: 26 85<263.073 393> 198 105<90 393> 391 85<263.05 393>
LayerCount: 2
Fore
SplineSet
130 0 m 2
 95 0 78 13 78 45 c 0
 78 79 96 90 130 90 c 2
 198 90 l 1
 198 393 l 1
 113 393 l 1
 111 311 l 1
 111 301 l 2
 111 275 96 259 70 259 c 0
 38 259 26 276 26 308 c 2
 26 311 l 1
 30 432 l 2
 32 473 34 483 76 483 c 2
 426 483 l 2
 468 483 470 473 472 432 c 2
 476 311 l 1
 476 308 l 2
 476 276 464 259 432 259 c 0
 407 259 392 276 392 293 c 0
 392 295 391 301 391 311 c 2
 388 393 l 1
 303 393 l 1
 303 90 l 1
 372 90 l 2
 406 90 422 79 422 45 c 0
 422 13 407 0 372 0 c 2
 130 0 l 2
EndSplineSet
Validated: 1
EndChar

StartChar: U
Encoding: 85 85 54
Width: 500
GlyphClass: 2
Flags: W
HStem: -12 88<188.094 315.694> 392 90<15.062 62 167 212.726 293.022 338 440 486.19>
VStem: 10 208<396.828 477.227> 62 105<99.3837 392> 288 203<396.364 477.654> 338 102<100.62 392>
LayerCount: 2
Fore
SplineSet
62 392 m 1xd4
 55 392 l 2
 26 392 10 409 10 438 c 0xe0
 10 471 27 482 62 482 c 2
 167 482 l 2xd0
 202 482 218 471 218 438 c 0xe0
 218 409 202 392 173 392 c 2
 167 392 l 1
 167 180 l 2
 167 108 187 76 252 76 c 0
 315 76 338 108 338 180 c 2
 338 392 l 1xd4
 332 392 l 2
 303 392 288 409 288 438 c 0xc8
 288 471 303 482 338 482 c 2
 440 482 l 2xc4
 475 482 491 471 491 438 c 0xc8
 491 409 476 392 447 392 c 2
 440 392 l 1
 440 182 l 2
 440 50 388 -12 253 -12 c 0
 113 -12 62 47 62 182 c 2
 62 392 l 1xd4
EndSplineSet
Validated: 1
EndChar

StartChar: V
Encoding: 86 86 55
Width: 500
GlyphClass: 2
Flags: W
HStem: 0 21G<209.5 295.5> 392 90<6.71802 51 161 217.531 302.681 359 452 496.761>
VStem: 2 220<396.893 477.476> 298 204<396.893 477.476>
LayerCount: 2
Fore
SplineSet
359 392 m 1
 348 392 l 2
 315 392 298 405 298 438 c 0
 298 472 316 482 349 482 c 2
 452 482 l 2
 486 482 502 472 502 438 c 0
 502 409 486 392 458 392 c 2
 452 392 l 1
 328 40 l 2
 317 8 313 0 278 0 c 2
 228 0 l 2
 191 0 189 10 178 40 c 2
 51 392 l 1
 44 392 l 2
 16 392 2 409 2 438 c 0
 2 472 18 482 51 482 c 2
 172 482 l 2
 205 482 222 471 222 438 c 0
 222 405 205 392 172 392 c 2
 161 392 l 1
 258 104 l 1
 359 392 l 1
EndSplineSet
Validated: 1
EndChar

StartChar: W
Encoding: 87 87 56
Width: 500
GlyphClass: 2
Flags: W
HStem: 0 21G<104.5 151 350 396.5> 392 90<-4.01953 42 133 186.505 314.495 368 459 505.02>
VStem: -9 200<396.828 477.886> 42 91<327.744 392> 310 200<396.828 477.886> 368 91<329.35 392>
LayerCount: 2
Fore
SplineSet
249 281 m 1xc4
 178 39 l 2
 170 11 165 0 137 0 c 2
 118 0 l 2
 91 0 84 2 81 34 c 2
 42 392 l 1xd4
 35 392 l 2
 6 392 -9 409 -9 438 c 0xe0
 -9 472 8 482 42 482 c 2xd0
 140 482 l 2
 174 482 191 472 191 438 c 0xe0
 191 407 176 392 144 392 c 2
 133 392 l 1
 148 154 l 1
 198 330 l 2
 206 358 223 369 250 369 c 0
 277 369 294 358 302 330 c 2
 353 154 l 1
 368 392 l 1xd4
 357 392 l 2
 325 392 310 407 310 438 c 0xc8
 310 472 327 482 361 482 c 2
 459 482 l 2xc4
 493 482 510 472 510 438 c 0xc8
 510 409 495 392 466 392 c 2
 459 392 l 1
 419 34 l 2
 416 2 410 0 383 0 c 2
 364 0 l 2
 336 0 331 11 323 39 c 2
 249 281 l 1xc4
EndSplineSet
Validated: 1
EndChar

StartChar: X
Encoding: 88 88 57
Width: 500
GlyphClass: 2
Flags: W
HStem: 0 90<34.425 86 182 223.479 421 473.343> 392 90<38.1326 90 402.188 455.867>
VStem: 30 198<5.06713 84.8936> 33 208<397.097 477.227> 265 213<5.06713 85.3981> 268 193<397.136 477.227>
LayerCount: 2
Fore
SplineSet
421 90 m 1xd4
 424 90 428 91 431 91 c 0
 462 91 478 75 478 45 c 0
 478 12 461 0 426 0 c 2
 317 0 l 2
 282 0 265 12 265 45 c 0
 265 74 278 88 308 90 c 1
 246 181 l 1
 182 90 l 1
 213 89 228 75 228 45 c 0
 228 12 211 0 176 0 c 2
 81 0 l 2
 46 0 30 12 30 45 c 0xe8
 30 75 45 91 76 91 c 0
 79 91 83 90 86 90 c 1
 198 242 l 1
 90 392 l 1
 87 392 83 392 80 392 c 0
 49 392 33 408 33 438 c 0
 33 471 50 482 85 482 c 2
 189 482 l 2
 224 482 241 471 241 438 c 0
 241 410 227 394 199 392 c 1
 254 315 l 1
 308 392 l 1
 281 394 268 411 268 438 c 0
 268 471 283 482 318 482 c 2
 409 482 l 2
 444 482 461 471 461 438 c 0
 461 408 445 392 414 392 c 0
 410 392 406 391 402 392 c 1
 301 252 l 1
 421 90 l 1xd4
EndSplineSet
Validated: 1
EndChar

StartChar: Y
Encoding: 89 89 58
Width: 500
GlyphClass: 2
Flags: W
HStem: 0 89<98.0342 198 303 403.479> 392 90<37.0267 82 191 229.801 279.911 315 412 457.226>
VStem: 32 202<396.828 477.886> 198 105<89 178> 276 186<396.364 477.886>
LayerCount: 2
Fore
SplineSet
82 392 m 1xd0
 76 392 l 2
 48 392 32 409 32 438 c 0
 32 472 49 482 82 482 c 2
 189 482 l 2
 219 482 234 472 234 438 c 0
 234 408 221 392 195 392 c 2
 191 392 l 1
 254 260 l 1
 315 392 l 1
 313 392 l 2
 288 392 276 409 276 438 c 0
 276 472 290 482 320 482 c 2
 412 482 l 2
 446 482 462 472 462 438 c 0xe8
 462 409 447 392 419 392 c 2
 412 392 l 1
 303 189 l 1
 303 89 l 1
 357 89 l 2
 391 89 408 79 408 45 c 0
 408 13 391 0 356 0 c 2
 145 0 l 2
 111 0 94 11 94 45 c 0
 94 79 111 89 145 89 c 2
 198 89 l 1
 198 178 l 1
 82 392 l 1xd0
EndSplineSet
Validated: 1
EndChar

StartChar: Z
Encoding: 90 90 59
Width: 500
GlyphClass: 2
Flags: W
HStem: 0 90<198 334> 393 89<162 288>
VStem: 69 90<288.657 393> 334 90<90 203.343>
LayerCount: 2
Fore
SplineSet
162 393 m 1
 159 336 l 2
 157 299 145 284 112 284 c 0
 83 284 69 300 69 331 c 2
 69 336 l 1
 73 432 l 2
 75 475 77 482 122 482 c 2
 381 482 l 2
 410 482 426 465 426 443 c 0
 426 430 422 416 415 407 c 2
 198 90 l 1
 334 90 l 1
 334 156 l 2
 334 193 349 208 381 208 c 0
 410 208 424 192 424 161 c 2
 424 156 l 1
 419 51 l 2
 417 11 418 0 372 0 c 2
 102 0 l 2
 74 0 58 17 58 39 c 0
 58 53 62 66 68 75 c 2
 288 393 l 1
 162 393 l 1
EndSplineSet
Validated: 1
EndChar

StartChar: bracketleft
Encoding: 91 91 60
Width: 500
GlyphClass: 2
Flags: W
HStem: -151 64<267 354.958> 419 63<267 354.958>
VStem: 171 185<-149.761 -87.5547 419.555 480.853>
LayerCount: 2
Fore
SplineSet
203 -151 m 2
 183 -151 171 -139 171 -124 c 2
 171 456 l 2
 171 471 183 482 203 482 c 2
 328 482 l 2
 346 482 356 471 356 451 c 0
 356 431 346 419 328 419 c 2
 267 419 l 1
 267 -87 l 1
 328 -87 l 2
 346 -87 356 -99 356 -119 c 0
 356 -139 346 -151 328 -151 c 2
 203 -151 l 2
EndSplineSet
Validated: 1
EndChar

StartChar: backslash
Encoding: 92 92 61
Width: 500
GlyphClass: 2
Flags: W
LayerCount: 2
Fore
SplineSet
336 -5 m 2
 98 506 l 2
 91 520 87 532 87 544 c 0
 87 570 113 585 134 585 c 0
 153 585 165 570 177 542 c 2
 414 32 l 2
 421 18 427 5 427 -7 c 0
 427 -33 399 -48 378 -48 c 0
 359 -48 348 -33 336 -5 c 2
EndSplineSet
Validated: 1
EndChar

StartChar: bracketright
Encoding: 93 93 62
Width: 500
GlyphClass: 2
Flags: W
HStem: -151 64<124.221 212> 419 63<124.221 212>
VStem: 123 185<-149.761 -87.7008 419.701 480.853>
LayerCount: 2
Fore
SplineSet
276 482 m 2
 296 482 308 471 308 456 c 2
 308 -124 l 2
 308 -139 296 -151 276 -151 c 2
 151 -151 l 2
 133 -151 123 -139 123 -119 c 0
 123 -99 134 -87 152 -87 c 2
 212 -87 l 1
 212 419 l 1
 152 419 l 2
 134 419 123 431 123 451 c 0
 123 471 133 482 151 482 c 2
 276 482 l 2
EndSplineSet
Validated: 1
EndChar

StartChar: asciicircum
Encoding: 94 94 63
Width: 500
GlyphClass: 2
Flags: W
HStem: 352 206
VStem: 87 328<369 383>
LayerCount: 2
Fore
SplineSet
251 462 m 1
 125 359 l 2
 120 355 114 352 108 352 c 0
 102 352 97 355 94 358 c 0
 89 363 87 369 87 376 c 0
 87 384 90 391 97 399 c 2
 222 546 l 2
 229 554 240 558 251 558 c 0
 262 558 272 554 279 546 c 2
 405 399 l 2
 412 391 415 383 415 375 c 0
 415 369 413 363 408 358 c 0
 404 354 398 352 392 352 c 0
 388 352 383 355 380 357 c 2
 251 462 l 1
EndSplineSet
Validated: 1
EndChar

StartChar: underscore
Encoding: 95 95 64
Width: 500
GlyphClass: 2
Flags: W
HStem: -258 86<-17.8564 520.817>
LayerCount: 2
Fore
SplineSet
502 -172 m 2
 514 -172 521 -180 521 -194 c 2
 521 -233 l 2
 521 -247 511 -258 502 -258 c 2
 0 -258 l 2
 -10 -258 -18 -249 -18 -233 c 2
 -18 -194 l 2
 -18 -181 -10 -172 0 -172 c 2
 502 -172 l 2
EndSplineSet
Validated: 1
EndChar

StartChar: grave
Encoding: 96 96 65
Width: 500
GlyphClass: 2
Flags: W
HStem: 411 147
VStem: 101 237
LayerCount: 2
Fore
SplineSet
338 442 m 1
 324 411 l 1
 112 487 l 2
 106 489 101 495 101 503 c 0
 101 505 101 508 102 510 c 2
 119 545 l 2
 123 553 130 558 138 558 c 0
 140 558 142 557 144 556 c 2
 338 442 l 1
EndSplineSet
Validated: 1
EndChar

StartChar: a
Encoding: 97 97 66
Width: 500
GlyphClass: 2
Flags: W
HStem: -10 82<166.647 291.115> 0 89<422 468.221> 177 63<175.314 321.642> 314 73<180.069 307.053>
VStem: 48 110<81.5105 157.846> 323 99<92.1416 172.351 232 298.079>
LayerCount: 2
Fore
SplineSet
422 240 m 2xbc
 422 89 l 1
 428 89 l 2
 457 89 473 73 473 44 c 0
 473 12 457 0 422 0 c 2
 383 0 l 2x7c
 357 0 346 8 337 36 c 1
 292 6 240 -10 188 -10 c 0
 100 -10 48 36 48 112 c 0
 48 193 114 240 232 240 c 0
 260 240 291 238 323 232 c 1
 323 239 l 2
 323 288 299 314 253 314 c 0
 201 314 163 274 125 274 c 0
 96 274 81 291 81 315 c 0
 81 357 147 387 260 387 c 0
 382 387 422 340 422 240 c 2xbc
323 105 m 1
 323 168 l 1
 297 174 275 177 255 177 c 0
 193 177 158 156 158 117 c 0
 158 89 181 72 222 72 c 0xbc
 260 72 291 83 323 105 c 1
EndSplineSet
Validated: 1
EndChar

StartChar: b
Encoding: 98 98 67
Width: 500
GlyphClass: 2
Flags: W
HStem: -10 87<210.383 325.155> 0 89<30.0342 77> 289 87<210.171 325.26> 442 90<30.9805 77>
VStem: 26 151<446.364 527.886> 77 100<110.356 255.644 339 442> 360 112<112.434 252.432>
LayerCount: 2
Fore
SplineSet
163 44 m 1xb6
 163 18 l 2
 163 7 155 0 139 0 c 2
 77 0 l 2x76
 43 0 26 11 26 45 c 0x7a
 26 74 41 89 70 89 c 2
 77 89 l 1
 77 442 l 1x76
 70 442 l 2
 41 442 26 459 26 488 c 0x7a
 26 522 43 532 77 532 c 2x76
 152 532 l 2
 170 532 177 525 177 506 c 2x7a
 177 339 l 1
 202 362 240 376 280 376 c 0
 392 376 472 291 472 180 c 0
 472 70 392 -10 279 -10 c 0
 227 -10 188 8 163 44 c 1xb6
268 77 m 0xb2
 321 77 360 121 360 183 c 0
 360 245 320 289 268 289 c 0
 216 289 175 245 175 183 c 0
 175 121 215 77 268 77 c 0xb2
EndSplineSet
Validated: 1
EndChar

StartChar: c
Encoding: 99 99 68
Width: 500
GlyphClass: 2
Flags: W
HStem: -10 86<193.054 350.787> 212 175<377.389 447.966> 299 87<193.679 336.672>
VStem: 37 113<119.034 257.194>
LayerCount: 2
Fore
SplineSet
372 354 m 1xb0
 380 376 392 387 413 387 c 0
 445 387 453 367 453 327 c 2
 453 260 l 2
 453 228 441 212 412 212 c 0xd0
 390 212 379 223 366 245 c 0
 344 282 310 299 258 299 c 0
 194 299 150 251 150 188 c 0
 150 122 194 76 266 76 c 0
 349 76 386 129 419 129 c 0
 439 129 455 112 455 88 c 0
 455 40 371 -10 258 -10 c 0
 123 -10 37 76 37 188 c 0
 37 300 126 386 252 386 c 0
 295 386 334 375 372 354 c 1xb0
EndSplineSet
Validated: 1
EndChar

StartChar: d
Encoding: 100 100 69
Width: 500
GlyphClass: 2
Flags: W
HStem: -10 87<176.525 290.459> 0 89<424 470.966> 289 88<176.593 290.57> 442 90<226.495 328>
VStem: 28 113<112.434 252.502> 222 202<446.66 527.885> 328 96<116.094 249.906 339 442>
LayerCount: 2
Fore
SplineSet
273 442 m 2xba
 239 442 222 454 222 488 c 0
 222 522 239 532 273 532 c 2
 400 532 l 2
 419 532 424 526 424 506 c 2xbc
 424 89 l 1
 431 89 l 2
 460 89 475 74 475 45 c 0
 475 11 458 0 424 0 c 2
 362 0 l 2x7a
 346 0 338 7 338 18 c 2
 338 46 l 1
 310 10 268 -10 216 -10 c 0
 111 -10 28 70 28 180 c 0
 28 291 110 377 216 377 c 0
 258 377 298 363 328 339 c 1
 328 442 l 1
 273 442 l 2xba
233 77 m 0
 286 77 326 121 326 183 c 0
 326 245 285 289 233 289 c 0
 181 289 141 245 141 183 c 0
 141 121 180 77 233 77 c 0
EndSplineSet
Validated: 1
EndChar

StartChar: e
Encoding: 101 101 70
Width: 500
GlyphClass: 2
Flags: W
HStem: -10 84<182.582 355.578> 164 64<140 359> 307 78<176.385 323.87>
LayerCount: 2
Fore
SplineSet
140 164 m 1
 154 103 194 74 262 74 c 0
 350 74 388 123 418 123 c 0
 440 123 455 107 455 83 c 0
 455 36 377 -10 258 -10 c 0
 124 -10 37 76 37 188 c 0
 37 300 123 385 258 385 c 0
 381 385 462 301 462 206 c 0
 462 170 444 164 402 164 c 2
 140 164 l 1
140 228 m 1
 359 228 l 1
 350 279 310 307 249 307 c 0
 190 307 154 281 140 228 c 1
EndSplineSet
Validated: 1
EndChar

StartChar: f
Encoding: 102 102 71
Width: 500
GlyphClass: 2
Flags: W
HStem: 0 89<85.8414 177 277 404.966> 275 89<85.8414 177 277 411.773> 454 80<288.661 431.63>
VStem: 177 100<89 275 364 441.578>
LayerCount: 2
Fore
SplineSet
177 275 m 1
 132 275 l 2
 98 275 82 286 82 320 c 0
 82 354 98 364 132 364 c 2
 177 364 l 1
 176 372 176 380 176 388 c 0
 176 496 229 534 358 534 c 0
 426 534 458 520 458 484 c 0
 458 462 444 447 417 447 c 0
 390 447 366 454 345 454 c 0
 293 454 277 433 277 378 c 2
 277 364 l 1
 364 364 l 2
 398 364 416 354 416 320 c 0
 416 286 398 275 364 275 c 2
 277 275 l 1
 277 89 l 1
 358 89 l 2
 392 89 409 79 409 45 c 0
 409 11 392 0 358 0 c 2
 132 0 l 2
 98 0 82 11 82 45 c 0
 82 79 98 89 132 89 c 2
 177 89 l 1
 177 275 l 1
EndSplineSet
Validated: 1
EndChar

StartChar: g
Encoding: 103 103 72
Width: 500
GlyphClass: 2
Flags: W
HStem: -163 91<123.337 306.965> 14 82<176.875 291.382> 287 89<424 470.505> 300 86<175.974 291.715>
VStem: 28 113<130.933 265.038> 329 95<-48.0657 47 135.826 260.604>
LayerCount: 2
Fore
SplineSet
233 96 m 0xdc
 286 96 326 139 326 198 c 0
 326 258 286 300 233 300 c 0
 180 300 141 258 141 198 c 0
 141 139 180 96 233 96 c 0xdc
424 7 m 2
 424 -111 363 -163 220 -163 c 0
 132 -163 92 -147 92 -109 c 0
 92 -83 109 -65 138 -65 c 0
 155 -65 183 -72 228 -72 c 0
 303 -72 329 -50 329 28 c 0
 329 34 328 40 328 47 c 1
 291 25 255 14 213 14 c 0
 104 14 28 90 28 197 c 0
 28 306 110 386 222 386 c 0xdc
 270 386 306 370 334 338 c 1
 334 359 l 2
 334 370 342 376 358 376 c 2
 424 376 l 2
 458 376 475 366 475 332 c 0
 475 303 460 287 431 287 c 2
 424 287 l 1xec
 424 7 l 2
EndSplineSet
Validated: 1
EndChar

StartChar: h
Encoding: 104 104 73
Width: 500
GlyphClass: 2
Flags: W
HStem: 0 89<37.4949 84 185 231.966 274.034 321 422 467.717> 300 86<213.063 307.505> 442 90<38.062 84>
VStem: 33 203<4.38684 84.636> 33 152<446.828 527.885> 84 101<89 271.13 335 442> 270 202<4.38684 85.0601> 321 101<89 286.678>
LayerCount: 2
Fore
SplineSet
422 89 m 1xe5
 428 89 l 2
 457 89 472 74 472 45 c 0xe2
 472 11 456 0 422 0 c 2
 321 0 l 2xe1
 287 0 270 11 270 45 c 0xe2
 270 74 285 89 314 89 c 2
 321 89 l 1
 321 208 l 2
 321 269 310 300 264 300 c 0
 225 300 185 266 185 208 c 2
 185 89 l 1xe5
 192 89 l 2
 221 89 236 74 236 45 c 0xf0
 236 11 219 0 185 0 c 2
 84 0 l 2xe4
 50 0 33 11 33 45 c 0xf0
 33 74 49 89 78 89 c 2
 84 89 l 1
 84 442 l 1xe4
 78 442 l 2
 49 442 33 459 33 488 c 0xe8
 33 522 50 532 84 532 c 2xe4
 161 532 l 2
 180 532 185 526 185 506 c 2xe8
 185 335 l 1
 205 368 239 386 287 386 c 0
 371 386 422 338 422 241 c 2
 422 89 l 1xe5
EndSplineSet
Validated: 1
EndChar

StartChar: i
Encoding: 105 105 74
Width: 500
GlyphClass: 2
Flags: W
HStem: 0 89<72.227 208 308 442.773> 287 89<115.034 208> 455 127<203.998 293.964>
VStem: 198 100<457.716 577.542> 208 100<89 287>
LayerCount: 2
Fore
SplineSet
198 504 m 0xf0
 198 569 206 582 249 582 c 0
 294 582 298 568 298 517 c 0
 298 465 294 455 248 455 c 0
 207 455 198 462 198 504 c 0xf0
284 376 m 2
 299 376 308 369 308 358 c 2
 308 89 l 1
 395 89 l 2
 429 89 447 79 447 45 c 0
 447 11 429 0 395 0 c 2
 120 0 l 2
 86 0 68 11 68 45 c 0
 68 79 86 89 120 89 c 2
 208 89 l 1
 208 287 l 1xe8
 162 287 l 2
 128 287 111 298 111 332 c 0
 111 366 128 376 162 376 c 2
 284 376 l 2
EndSplineSet
Validated: 1
EndChar

StartChar: j
Encoding: 106 106 75
Width: 500
GlyphClass: 2
Flags: W
HStem: -162 87<80.2518 235.248> 287 89<71.0342 254> 455 127<233.491 323.625>
VStem: 67 287<291.387 371.695> 228 100<457.716 578.047> 254 100<-58.0195 287>
LayerCount: 2
Fore
SplineSet
228 504 m 0xe8
 228 569 235 582 278 582 c 0
 323 582 328 568 328 517 c 0
 328 465 324 455 278 455 c 0
 237 455 228 462 228 504 c 0xe8
354 7 m 2xe4
 354 -106 294 -162 171 -162 c 0
 85 -162 53 -147 53 -106 c 0
 53 -81 68 -67 93 -67 c 0
 116 -67 147 -75 181 -75 c 0
 247 -75 254 -35 254 47 c 2
 254 287 l 1xe4
 118 287 l 2
 84 287 67 298 67 332 c 0
 67 366 84 376 118 376 c 2
 331 376 l 2
 346 376 354 369 354 358 c 2xf0
 354 7 l 2xe4
EndSplineSet
Validated: 1
EndChar

StartChar: k
Encoding: 107 107 76
Width: 500
GlyphClass: 2
Flags: W
HStem: 0 89<42.2828 88 417 469.773> 293 83<358.969 437.557> 442 90<43.2386 88>
VStem: 38 147<4.38684 84.636 446.828 527.886> 88 97<89 111 221 442> 250 191<298.283 371.886> 272 202<4.81892 72.4219>
LayerCount: 2
Fore
SplineSet
271 298 m 1xe8
 253 304 250 313 250 331 c 0
 250 368 266 376 300 376 c 2
 390 376 l 2
 425 376 441 366 441 332 c 0xec
 441 305 431 298 407 293 c 0
 376 286 359 274 338 252 c 2
 309 222 l 1
 417 89 l 1
 420 89 425 90 427 90 c 0
 459 90 474 75 474 45 c 0
 474 11 456 0 422 0 c 2
 322 0 l 2
 289 0 272 11 272 36 c 0
 272 57 280 68 302 76 c 1
 236 157 l 1
 185 111 l 1xea
 185 27 l 2xf0
 185 8 181 0 162 0 c 2
 88 0 l 2xe8
 54 0 38 11 38 45 c 0xf0
 38 74 54 89 82 89 c 2
 88 89 l 1
 88 442 l 1xe8
 82 442 l 2
 54 442 38 459 38 488 c 0xf0
 38 522 54 532 88 532 c 2xe8
 162 532 l 2
 181 532 185 525 185 506 c 2xf0
 185 221 l 1
 271 298 l 1xe8
EndSplineSet
Validated: 1
EndChar

StartChar: l
Encoding: 108 108 77
Width: 500
GlyphClass: 2
Flags: W
HStem: 0 89<65.8414 200 301 434.966> 442 90<107.707 200>
VStem: 103 198<447.114 527.351> 200 101<89 442>
LayerCount: 2
Fore
SplineSet
200 442 m 1xd0
 155 442 l 2
 121 442 103 454 103 488 c 0
 103 522 121 532 155 532 c 2
 277 532 l 2
 292 532 301 526 301 515 c 2xe0
 301 89 l 1
 388 89 l 2
 422 89 439 79 439 45 c 0
 439 11 422 0 388 0 c 2
 112 0 l 2
 78 0 62 11 62 45 c 0
 62 79 78 89 112 89 c 2
 200 89 l 1
 200 442 l 1xd0
EndSplineSet
Validated: 1
EndChar

StartChar: m
Encoding: 109 109 78
Width: 500
GlyphClass: 2
Flags: W
HStem: 0 89<-2.24601 38 131 172.44 299 340.44 468 508.246> 287 89<-2.22192 38> 302 84<141.642 220.5 308.659 369.246>
VStem: -6 182<3.58887 86.2031> 38 93<89 287> 207 137<3.58887 86.2031> 207 92<89 295.231> 375 137<3.26468 86.2031> 375 93<89 297.785>
LayerCount: 2
Fore
SplineSet
468 243 m 2xa880
 468 89 l 1xa880
 474 89 l 2
 499 89 512 74 512 45 c 0xa1
 512 11 498 0 468 0 c 2xa080
 399 0 l 2
 384 0 375 7 375 18 c 2xa1
 375 248 l 2
 375 285 364 302 342 302 c 0
 316 302 299 279 299 232 c 2
 299 89 l 1xa280
 305 89 l 2
 331 89 344 74 344 45 c 0xa4
 344 11 329 0 299 0 c 2xa2
 231 0 l 2
 216 0 207 7 207 18 c 2xa4
 207 248 l 2
 207 285 196 302 174 302 c 0
 148 302 131 279 131 232 c 2
 131 89 l 1xaa
 137 89 l 2
 163 89 176 74 176 45 c 0xb0
 176 11 161 0 131 0 c 2
 38 0 l 2xa8
 8 0 -6 12 -6 45 c 0xb0
 -6 74 7 89 32 89 c 2
 38 89 l 1
 38 287 l 1xc8
 32 287 l 2
 7 287 -6 303 -6 332 c 0xd0
 -6 365 8 376 38 376 c 2
 93 376 l 2xc8
 115 376 122 369 122 348 c 2
 122 343 l 1
 142 371 170 386 205 386 c 0
 236 386 259 374 277 348 c 1
 300 373 331 386 364 386 c 0
 445 386 468 336 468 243 c 2xa880
EndSplineSet
Validated: 1
EndChar

StartChar: n
Encoding: 110 110 79
Width: 500
GlyphClass: 2
Flags: W
HStem: 0 90<38.425 85 186 232.575 274.657 322 422 467.807> 287 89<38.0342 85> 298 88<214.343 308.357>
VStem: 34 203<4.61948 85.6055> 85 101<90 273.299> 270 202<5.06713 85.155> 322 100<90 284.527>
LayerCount: 2
Fore
SplineSet
422 90 m 1xaa
 427 90 l 2
 458 90 472 75 472 45 c 0xa4
 472 12 457 0 422 0 c 2
 322 0 l 2xa2
 287 0 270 12 270 45 c 0xa4
 270 75 286 90 317 90 c 2
 322 90 l 1
 322 208 l 2
 322 267 309 298 262 298 c 0
 220 298 186 266 186 208 c 2
 186 90 l 1xaa
 191 90 l 2
 222 90 237 75 237 45 c 0xb0
 237 12 221 0 186 0 c 2
 85 0 l 2xa8
 50 0 34 12 34 45 c 0xb0
 34 75 49 90 80 90 c 2
 85 90 l 1
 85 287 l 1xc8
 78 287 l 2
 49 287 34 302 34 331 c 0xd0
 34 365 51 376 85 376 c 2
 154 376 l 2xc8
 170 376 178 369 178 358 c 2
 178 327 l 1
 204 366 240 386 292 386 c 0
 380 386 422 333 422 226 c 2
 422 90 l 1xaa
EndSplineSet
Validated: 1
EndChar

StartChar: o
Encoding: 111 111 80
Width: 500
GlyphClass: 2
Flags: W
HStem: -10 86<185.172 316.784> 299 86<184.957 316.999>
VStem: 28 114<119.249 256.294> 359 113<118.403 257.344>
LayerCount: 2
Fore
SplineSet
472 188 m 0
 472 76 386 -10 251 -10 c 0
 116 -10 28 76 28 188 c 0
 28 300 116 385 251 385 c 0
 386 385 472 300 472 188 c 0
251 76 m 0
 315 76 359 124 359 188 c 0
 359 252 316 299 251 299 c 0
 187 299 142 252 142 188 c 0
 142 123 188 76 251 76 c 0
EndSplineSet
Validated: 1
EndChar

StartChar: p
Encoding: 112 112 81
Width: 500
GlyphClass: 2
Flags: W
HStem: -162 90<6.28281 77 173 271.505> 2 86<209.489 324.051> 287 89<30.4949 77> 299 87<210.342 324.999>
VStem: 2 274<-157.886 -76.6601> 77 96<-72 38 126.478 259.906> 360 112<124.153 263.843>
LayerCount: 2
Fore
SplineSet
225 -72 m 2xd6
 259 -72 276 -84 276 -118 c 0
 276 -152 259 -162 225 -162 c 2
 52 -162 l 2
 18 -162 2 -152 2 -118 c 0xda
 2 -84 18 -72 52 -72 c 2
 77 -72 l 1
 77 287 l 1
 70 287 l 2
 41 287 26 303 26 332 c 0
 26 366 43 376 77 376 c 2
 139 376 l 2xe6
 155 376 162 370 162 359 c 2
 162 330 l 1
 190 367 230 386 279 386 c 0
 391 386 472 305 472 198 c 0
 472 84 391 2 284 2 c 0
 241 2 201 15 173 38 c 1
 173 -72 l 1
 225 -72 l 2xd6
175 193 m 0
 175 131 215 88 268 88 c 0
 320 88 360 131 360 193 c 0
 360 255 321 299 268 299 c 0
 215 299 175 255 175 193 c 0
EndSplineSet
Validated: 1
EndChar

StartChar: q
Encoding: 113 113 82
Width: 500
GlyphClass: 2
Flags: W
HStem: -162 90<228.707 328 424 494.505> 2 86<176.449 291.353> 287 89<424 470.505> 299 87<175.974 291.293>
VStem: 28 113<124.153 263.843> 224 275<-157.476 -77.1135> 328 96<-72 38 126.478 259.906>
LayerCount: 2
Fore
SplineSet
276 -72 m 2xec
 328 -72 l 1
 328 38 l 1
 300 15 259 2 216 2 c 0
 109 2 28 84 28 198 c 0
 28 305 110 386 222 386 c 0xda
 271 386 310 367 338 330 c 1
 338 359 l 2
 338 370 346 376 362 376 c 2
 424 376 l 2
 458 376 475 366 475 332 c 0
 475 303 460 287 431 287 c 2
 424 287 l 1
 424 -72 l 1xea
 448 -72 l 2
 482 -72 499 -84 499 -118 c 0
 499 -152 482 -162 448 -162 c 2
 276 -162 l 2
 242 -162 224 -152 224 -118 c 0
 224 -84 242 -72 276 -72 c 2xec
233 88 m 0
 286 88 326 131 326 193 c 0
 326 255 286 299 233 299 c 0
 180 299 141 255 141 193 c 0
 141 131 181 88 233 88 c 0
EndSplineSet
Validated: 1
EndChar

StartChar: r
Encoding: 114 114 83
Width: 500
GlyphClass: 2
Flags: W
HStem: 0 89<53.227 132 232 374.966> 287 89<67.0342 132> 292 95<306.009 426.409>
VStem: 63 161<298.113 371.695> 132 100<89 241.677>
LayerCount: 2
Fore
SplineSet
232 89 m 1xa8
 328 89 l 2
 362 89 379 79 379 45 c 0
 379 11 362 0 328 0 c 2
 101 0 l 2
 67 0 49 11 49 45 c 0
 49 79 67 89 101 89 c 2
 132 89 l 1
 132 287 l 1xc8
 114 287 l 2
 80 287 63 298 63 332 c 0
 63 366 80 376 114 376 c 2
 201 376 l 2
 216 376 224 369 224 358 c 2
 224 298 l 1xd0
 279 357 326 387 390 387 c 0
 445 387 477 359 477 320 c 0
 477 288 452 266 419 266 c 0
 386 266 363 292 341 292 c 0
 315 292 279 269 232 221 c 1
 232 89 l 1xa8
EndSplineSet
Validated: 1
EndChar

StartChar: s
Encoding: 115 115 84
Width: 500
GlyphClass: 2
Flags: W
HStem: -12 149<70.6154 142.298> -10 69<181.019 324.049> 260 128<337.517 407.625> 318 68<178.272 306.842>
VStem: 65 106<250.849 308.909> 332 107<69.3026 130.414>
LayerCount: 2
Fore
SplineSet
143 5 m 1x5c
 128 -6 114 -12 99 -12 c 0
 72 -12 67 4 67 32 c 2
 67 88 l 2
 67 124 78 137 107 137 c 0x8c
 142 137 141 113 161 95 c 0
 189 71 223 59 268 59 c 0
 310 59 332 78 332 100 c 0
 332 138 293 139 205 151 c 0
 111 164 65 201 65 266 c 0
 65 342 122 386 225 386 c 0x5c
 262 386 299 380 337 368 c 1
 348 381 361 388 377 388 c 0
 399 388 410 375 410 347 c 2
 410 297 l 2
 410 274 397 260 375 260 c 0x2c
 334 260 311 318 238 318 c 0
 194 318 171 302 171 279 c 0
 171 244 205 248 278 237 c 0
 382 222 439 198 439 118 c 0
 439 39 378 -10 264 -10 c 0
 222 -10 182 -6 143 5 c 1x5c
EndSplineSet
Validated: 1
EndChar

StartChar: t
Encoding: 116 116 85
Width: 500
GlyphClass: 2
Flags: W
HStem: -8 91<232.865 364.46> 264 89<37.0342 122 222 393.966>
VStem: 122 100<92.9202 264 353 493.202>
LayerCount: 2
Fore
SplineSet
84 264 m 2
 50 264 33 275 33 309 c 0
 33 343 50 353 84 353 c 2
 122 353 l 1
 122 448 l 1
 122 465 l 2
 122 482 140 499 172 499 c 0
 210 499 222 483 222 448 c 2
 222 353 l 1
 347 353 l 2
 381 353 398 343 398 309 c 0
 398 275 381 264 347 264 c 2
 222 264 l 1
 222 160 l 2
 222 107 235 83 283 83 c 0
 341 83 381 120 416 120 c 0
 438 120 457 101 457 73 c 0
 457 36 372 -8 271 -8 c 0
 213 -8 171 8 148 36 c 0
 124 64 122 102 122 151 c 2
 122 160 l 1
 122 264 l 1
 84 264 l 2
EndSplineSet
Validated: 1
EndChar

StartChar: u
Encoding: 117 117 86
Width: 500
GlyphClass: 2
Flags: W
HStem: -9 87<191.643 286.678> 0 89<415 461.966> 287 89<32.4949 78 267.707 315>
VStem: 28 150<291.152 371.695> 78 100<92.4726 287> 263 152<291.596 371.414> 315 100<103.224 287>
LayerCount: 2
Fore
SplineSet
415 89 m 1x62
 422 89 l 2
 451 89 466 74 466 45 c 0
 466 11 449 0 415 0 c 2
 347 0 l 2x62
 331 0 322 7 322 18 c 2
 322 49 l 1
 296 10 260 -9 208 -9 c 0
 120 -9 78 44 78 151 c 2
 78 287 l 1xaa
 72 287 l 2
 43 287 28 303 28 332 c 0
 28 366 45 376 79 376 c 2
 156 376 l 2
 171 376 178 369 178 358 c 2xb0
 178 169 l 2
 178 110 191 78 238 78 c 0
 280 78 315 111 315 169 c 2
 315 287 l 1xaa
 308 287 l 2
 279 287 263 303 263 332 c 0xa4
 263 366 281 376 315 376 c 2xa2
 392 376 l 2
 407 376 415 369 415 358 c 2xa4
 415 89 l 1x62
EndSplineSet
Validated: 1
EndChar

StartChar: v
Encoding: 118 118 87
Width: 500
GlyphClass: 2
Flags: W
HStem: -10 21G<220 261> 287 89<24.7069 72 175 222.293 277.707 325 421 467.505>
VStem: 20 207<291.596 371.476> 273 199<291.596 371.476>
LayerCount: 2
Fore
SplineSet
300 30 m 2
 286 0 280 -10 242 -10 c 0
 198 -10 196 5 185 30 c 2
 72 287 l 1
 65 287 l 2
 36 287 20 303 20 332 c 0
 20 366 38 376 72 376 c 2
 175 376 l 2
 209 376 227 366 227 332 c 0
 227 303 211 287 182 287 c 2
 175 287 l 1
 248 113 l 1
 325 287 l 1
 318 287 l 2
 289 287 273 303 273 332 c 0
 273 366 291 376 325 376 c 2
 421 376 l 2
 455 376 472 366 472 332 c 0
 472 303 457 287 428 287 c 2
 421 287 l 1
 300 30 l 2
EndSplineSet
Validated: 1
EndChar

StartChar: w
Encoding: 119 119 88
Width: 500
GlyphClass: 2
Flags: W
HStem: -10 292<251 359> 287 89<-17.5051 29 126 172.404 328.707 376 472 518.404>
VStem: -22 199<291.596 371.886> 324 199<291.596 371.476>
LayerCount: 2
Fore
SplineSet
248 188 m 1
 206 30 l 2
 198 2 177 -10 142 -10 c 0
 106 -10 87 1 81 30 c 2
 29 287 l 1
 22 287 l 2
 -7 287 -22 303 -22 332 c 0
 -22 366 -5 376 29 376 c 2
 126 376 l 2
 160 376 177 366 177 332 c 0
 177 303 161 287 132 287 c 2
 126 287 l 1
 158 87 l 1
 201 242 l 2
 209 268 217 282 251 282 c 0
 286 282 292 267 300 242 c 2
 345 87 l 1
 376 287 l 1
 369 287 l 2
 340 287 324 303 324 332 c 0
 324 366 342 376 376 376 c 2
 472 376 l 2
 506 376 523 366 523 332 c 0
 523 303 507 287 478 287 c 2
 472 287 l 1
 421 30 l 2
 415 1 395 -10 359 -10 c 0
 325 -10 305 0 296 30 c 2
 248 188 l 1
EndSplineSet
Validated: 1
EndChar

StartChar: x
Encoding: 120 120 89
Width: 500
GlyphClass: 2
Flags: W
HStem: 0 91<53.5573 102 405 455.867> 0 82<198 224.51 273.49 300> 286 90<48.521 103.766 388.281 447.691> 294 82<209 231.51 276.49 299>
VStem: 44 191<294.613 370.933> 49 179<4.61948 81.3306> 270 191<5.06713 81.3306> 273 179<294.29 371.381>
LayerCount: 2
Fore
SplineSet
405 90 m 1x29
 408 90 412 91 414 91 c 0
 445 91 461 75 461 45 c 0
 461 12 444 0 409 0 c 2xa2
 311 0 l 2
 283 0 270 14 270 44 c 0
 270 69 279 82 297 82 c 2
 300 82 l 1
 248 139 l 1
 198 82 l 1
 202 82 l 2
 220 82 228 69 228 44 c 0
 228 14 215 0 187 0 c 2x46
 100 0 l 2
 65 0 49 12 49 45 c 0x86
 49 75 63 91 92 91 c 0
 95 91 99 90 102 90 c 1
 198 188 l 1
 104 287 l 1
 99 286 95 286 91 286 c 0
 59 286 44 301 44 331 c 0
 44 364 61 376 96 376 c 2xa8
 194 376 l 2
 222 376 235 362 235 332 c 0
 235 307 227 294 209 294 c 1
 252 243 l 1
 299 294 l 1
 281 294 273 307 273 332 c 0
 273 362 286 376 314 376 c 2x19
 401 376 l 2
 436 376 452 364 452 331 c 0
 452 300 436 286 404 286 c 0
 399 286 394 286 388 287 c 1
 303 194 l 1
 405 90 l 1x29
EndSplineSet
Validated: 1
EndChar

StartChar: y
Encoding: 121 121 90
Width: 500
GlyphClass: 2
Flags: W
HStem: -162 90<50.7069 161 258 323.293> 287 89<28.7069 76 179 226.293 282.495 329 425 472.293>
VStem: 24 207<291.596 371.476> 46 282<-157.476 -77.1135> 278 199<291.596 371.476>
LayerCount: 2
Fore
SplineSet
425 376 m 2xe8
 459 376 477 366 477 332 c 0xe8
 477 303 461 287 432 287 c 2
 425 287 l 1
 258 -72 l 1
 276 -72 l 2
 310 -72 328 -84 328 -118 c 0
 328 -152 310 -162 276 -162 c 2
 98 -162 l 2
 64 -162 46 -152 46 -118 c 0xd0
 46 -84 64 -72 98 -72 c 2
 161 -72 l 1
 199 9 l 1
 76 287 l 1
 69 287 l 2
 40 287 24 303 24 332 c 0
 24 366 42 376 76 376 c 2
 179 376 l 2
 213 376 231 366 231 332 c 0
 231 303 215 287 186 287 c 2
 179 287 l 1
 252 113 l 1
 329 287 l 1
 322 287 l 2
 293 287 278 303 278 332 c 0
 278 366 295 376 329 376 c 2
 425 376 l 2xe8
EndSplineSet
Validated: 1
EndChar

StartChar: z
Encoding: 122 122 91
Width: 500
GlyphClass: 2
Flags: W
HStem: 0 82<200 332> 294 82<161 286>
VStem: 78 83<226.773 294> 332 86<82 156.319>
LayerCount: 2
Fore
SplineSet
200 82 m 1
 332 82 l 1
 335 110 l 2
 337 143 344 161 375 161 c 0
 409 161 418 144 418 110 c 2
 418 50 l 2
 418 5 409 0 370 0 c 2
 118 0 l 2
 86 0 68 14 68 41 c 0
 68 56 76 73 88 86 c 2
 286 294 l 1
 161 294 l 1
 161 275 l 2
 161 240 148 223 120 223 c 0
 86 223 78 241 78 275 c 2
 78 327 l 2
 78 372 86 376 125 376 c 2
 365 376 l 2
 398 376 414 361 414 335 c 0
 414 318 407 304 393 289 c 2
 200 82 l 1
EndSplineSet
Validated: 1
EndChar

StartChar: braceleft
Encoding: 123 123 92
Width: 500
GlyphClass: 2
Flags: W
HStem: -153 73<312.07 389.937> 412 72<312.07 391.219>
VStem: 218 88<-74.3143 108.911 221.75 407.641>
LayerCount: 2
Fore
SplineSet
218 37 m 2
 218 91 211 114 164 121 c 0
 132 125 119 138 119 165 c 0
 119 192 132 205 164 209 c 0
 211 216 218 240 218 294 c 2
 218 349 l 2
 218 438 249 484 351 484 c 0
 379 484 394 470 394 448 c 0
 394 420 372 418 340 412 c 0
 309 406 306 386 306 341 c 2
 306 301 l 2
 306 217 291 177 222 165 c 1
 291 153 306 114 306 30 c 2
 306 -10 l 2
 306 -56 308 -72 338 -80 c 0
 363 -87 394 -86 394 -118 c 0
 394 -140 379 -153 351 -153 c 0
 249 -153 218 -108 218 -19 c 2
 218 37 l 2
EndSplineSet
Validated: 1
EndChar

StartChar: bar
Encoding: 124 124 93
Width: 500
GlyphClass: 2
Flags: W
VStem: 202 97<-209.954 648.954>
LayerCount: 2
Fore
SplineSet
299 -173 m 2
 299 -194 281 -218 251 -218 c 0
 222 -218 202 -195 202 -173 c 2
 202 612 l 2
 202 633 221 657 251 657 c 0
 280 657 299 634 299 612 c 2
 299 -173 l 2
EndSplineSet
Validated: 1
EndChar

StartChar: braceright
Encoding: 125 125 94
Width: 500
GlyphClass: 2
Flags: W
HStem: -153 72<122.138 200.984> 411 73<122.42 200.984>
VStem: 208 88<-74.3143 108.911 221.75 404.453>
LayerCount: 2
Fore
SplineSet
296 294 m 2
 296 240 302 216 349 209 c 0
 381 205 393 192 393 165 c 0
 393 138 381 125 349 121 c 0
 302 114 296 91 296 37 c 2
 296 -19 l 2
 296 -108 264 -153 162 -153 c 0
 134 -153 119 -140 119 -118 c 0
 119 -90 141 -87 173 -81 c 0
 204 -75 208 -55 208 -10 c 2
 208 30 l 2
 208 114 223 153 292 165 c 1
 223 177 208 217 208 301 c 2
 208 341 l 2
 208 387 204 403 174 411 c 0
 149 418 119 416 119 448 c 0
 119 470 134 484 162 484 c 0
 264 484 296 438 296 349 c 2
 296 294 l 2
EndSplineSet
Validated: 1
EndChar

StartChar: asciitilde
Encoding: 126 126 95
Width: 500
GlyphClass: 2
Flags: W
HStem: 177 97<265.414 395.145> 227 97<93.0162 235.755>
LayerCount: 2
Fore
SplineSet
42 238 m 0x40
 42 273 101 324 169 324 c 0x40
 230 324 288 274 339 274 c 0
 382 274 404 311 428 311 c 0
 447 311 459 298 459 276 c 0
 459 240 400 177 333 177 c 0x80
 271 177 213 227 162 227 c 0
 119 227 96 202 74 202 c 0
 54 202 42 216 42 238 c 0x40
EndSplineSet
Validated: 1
EndChar

StartChar: exclamdown
Encoding: 161 161 96
Width: 500
GlyphClass: 2
Flags: W
HStem: -9 21G<235 268.5> 374 136<190.549 310.771>
VStem: 171 160<393.75 489.86> 198 107<-1.03711 161.5>
LayerCount: 2
Fore
SplineSet
305 46 m 1xd0
 305 42 l 2
 305 11 285 -9 252 -9 c 0
 218 -9 198 11 198 42 c 2
 198 46 l 1
 213 310 l 2
 214 327 230 341 252 341 c 0
 274 341 288 327 289 310 c 2
 305 46 l 1xd0
331 442 m 0xe0
 331 404 300 374 252 374 c 0
 202 374 171 403 171 442 c 0
 171 482 203 510 252 510 c 0
 300 510 331 481 331 442 c 0xe0
EndSplineSet
Validated: 1
EndChar

StartChar: cent
Encoding: 162 162 97
Width: 500
GlyphClass: 2
Flags: W
HStem: 87 73<197 213 282 342.697> 280 156<359.703 425.552> 358 180<234.195 293.171>
VStem: 59 100<194.392 322.707> 207 75<7.25 88.6542> 207 67<-26.9637 74.75> 227 74<430.068 535.885>
LayerCount: 2
Fore
SplineSet
357 408 m 1xb2
 363 427 375 436 393 436 c 0
 421 436 430 417 430 382 c 2
 430 323 l 2
 430 294 419 280 393 280 c 0xd2
 374 280 364 290 352 310 c 0
 333 342 301 358 256 358 c 0
 198 358 159 315 159 259 c 0
 159 201 197 160 262 160 c 0
 336 160 370 207 399 207 c 0
 417 207 431 192 431 170 c 0
 431 132 379 96 282 86 c 1xb8
 274 -4 l 2
 272 -21 262 -28 240 -28 c 0
 218 -28 207 -20 207 -5 c 2
 207 -3 l 1xb4
 213 87 l 1
 117 103 59 172 59 259 c 0
 59 350 126 421 227 433 c 1
 233 515 l 2
 235 532 245 538 266 538 c 0
 289 538 301 531 301 516 c 2
 301 514 l 1
 294 430 l 1
 316 426 337 419 357 408 c 1xb2
EndSplineSet
Validated: 1
EndChar

StartChar: sterling
Encoding: 163 163 98
Width: 500
GlyphClass: 2
Flags: W
HStem: -7 94<235.699 375.783> 12 85<234 315.519> 216 71<67.0175 116 238 367.953> 378 21G<340 367> 452 75<211.661 307.847>
VStem: 92 105<298.291 437.647> 152 96<96.119 214.714> 318 78<380.987 441.905>
LayerCount: 2
Fore
SplineSet
222 287 m 1x7d
 352 287 l 2
 361 287 368 278 368 263 c 2
 368 234 l 2
 368 222 364 216 354 216 c 2
 238 216 l 1
 244 193 248 173 248 159 c 0
 248 140 242 120 234 97 c 1x7b
 279 95 306 87 316 87 c 0
 346 87 368 111 387 111 c 0
 405 111 427 83 427 61 c 0
 427 29 383 -7 322 -7 c 0xbb
 277 -7 237 12 199 12 c 0
 159 12 132 -12 121 -12 c 0
 104 -12 88 21 88 39 c 0
 88 51 102 57 122 71 c 0
 144 87 152 99 152 131 c 0x7b
 152 156 145 184 135 216 c 1
 82 216 l 2
 73 216 67 224 67 239 c 2
 67 268 l 2
 67 280 71 287 81 287 c 2
 116 287 l 1
 101 329 92 363 92 392 c 0
 92 478 150 527 254 527 c 0
 336 527 390 500 393 452 c 2
 396 418 l 1
 396 414 l 2
 396 389 383 378 351 378 c 0
 329 378 326 397 318 415 c 0
 307 439 288 452 261 452 c 0
 222 452 197 427 197 392 c 0
 197 368 209 335 222 287 c 1x7d
EndSplineSet
Validated: 1
EndChar

StartChar: currency
Encoding: 164 164 99
Width: 500
GlyphClass: 2
Flags: W
HStem: 206 61<191.611 310.094> 453 61<191.935 309.72>
VStem: 98 60<300.445 418.949> 343 60<300.652 419.065>
LayerCount: 2
Fore
SplineSet
91 158 m 1
 49 200 l 1
 123 274 l 1
 105 300 98 328 98 360 c 0
 98 391 105 421 123 447 c 1
 49 521 l 1
 91 562 l 1
 164 488 l 1
 190 506 219 514 251 514 c 0
 283 514 312 506 337 488 c 1
 411 562 l 1
 452 521 l 1
 378 447 l 1
 396 421 403 392 403 360 c 0
 403 328 396 300 378 274 c 1
 452 200 l 1
 411 158 l 1
 337 233 l 1
 314 216 286 206 251 206 c 0
 218 206 190 215 164 233 c 1
 91 158 l 1
158 360 m 0
 158 308 199 267 251 267 c 0
 303 267 343 309 343 360 c 0
 343 411 302 453 251 453 c 0
 200 453 158 411 158 360 c 0
EndSplineSet
Validated: 1
EndChar

StartChar: yen
Encoding: 165 165 100
Width: 500
GlyphClass: 2
Flags: W
HStem: 0 91<101.578 205 302 405.989> 192 61<36.8862 168 332 465.035> 310 62<36.8862 108 392 465.035> 423 89<40.1321 86 183 219.222 296.128 331 417 461.226>
VStem: 36 187<427.152 507.476> 205 97<91 192> 292 174<428.126 507.227>
LayerCount: 2
Fore
SplineSet
86 423 m 1xf8
 79 423 l 2
 50 423 36 439 36 468 c 0
 36 501 53 512 86 512 c 2
 179 512 l 2
 209 512 223 502 223 468 c 0
 223 438 210 423 185 423 c 2
 183 423 l 1
 258 262 l 1
 331 424 l 1
 329 424 l 2
 305 424 292 440 292 468 c 0
 292 501 307 512 337 512 c 2
 415 512 l 2
 448 512 466 501 466 468 c 0
 466 440 451 424 423 424 c 2
 417 424 l 1
 392 372 l 1
 435 372 l 2
 455 372 466 360 466 341 c 0
 466 322 455 310 435 310 c 2
 362 310 l 1
 332 253 l 1
 435 253 l 2
 455 253 466 241 466 222 c 0xfa
 466 203 455 192 435 192 c 2
 302 192 l 1
 302 91 l 1
 359 91 l 2
 394 91 411 78 411 46 c 0
 411 14 394 0 359 0 c 2
 148 0 l 2
 113 0 97 12 97 45 c 0
 97 77 112 91 148 91 c 2
 205 91 l 1
 205 192 l 1xf4
 66 192 l 2
 46 192 36 203 36 222 c 0
 36 241 46 253 66 253 c 2
 168 253 l 1
 140 310 l 1
 66 310 l 2
 46 310 36 322 36 341 c 0
 36 360 46 372 66 372 c 2
 108 372 l 1
 86 423 l 1xf8
EndSplineSet
Validated: 1
EndChar

StartChar: brokenbar
Encoding: 166 166 101
Width: 500
GlyphClass: 2
Flags: W
VStem: 211 79<-143 166 274 582>
LayerCount: 2
Fore
SplineSet
211 274 m 1
 211 582 l 1
 290 582 l 1
 290 274 l 1
 211 274 l 1
211 -143 m 1
 211 166 l 1
 290 166 l 1
 290 -143 l 1
 211 -143 l 1
EndSplineSet
Validated: 1
EndChar

StartChar: section
Encoding: 167 167 102
Width: 500
GlyphClass: 2
Flags: W
HStem: -88 139<82.0584 148.662> -88 66<150 299.75> 344 138<343.523 411.02> 417 65<203.842 342>
VStem: 53 69<245.295 311.649> 81 69<-22 49.213> 121 80<362.072 413.227> 302 80<-17.8296 34.3548> 342 70<346.312 417> 375 74<80.9476 147.967>
LayerCount: 2
Fore
SplineSet
380 31 m 1x1240
 382 19 382 10 382 3 c 0
 382 -25 369 -50 345 -67 c 0
 316 -87 285 -88 250 -88 c 2
 234 -88 l 1x51
 108 -88 l 2
 89 -88 81 -81 81 -65 c 2
 81 20 l 2
 81 40 93 51 116 51 c 0x85
 137 51 150 38 150 20 c 2
 150 -22 l 1x45
 242 -22 l 2
 283 -22 302 -16 302 12 c 0
 302 30 287 48 258 67 c 2
 132 152 l 2
 79 188 53 226 53 273 c 0
 53 321 78 354 122 366 c 1x49
 120 378 121 386 121 392 c 0
 121 419 134 445 158 462 c 0
 186 482 217 482 252 482 c 2
 268 482 l 1x52
 384 482 l 2
 403 482 412 476 412 460 c 2
 412 375 l 2
 412 355 401 344 378 344 c 0x2280
 357 344 342 357 342 375 c 2
 342 417 l 1x1280
 261 417 l 2
 220 417 201 411 201 383 c 0
 201 365 215 347 244 328 c 2
 370 243 l 2
 423 207 449 169 449 122 c 0
 449 74 423 39 380 31 c 1x1240
352 80 m 1
 368 87 375 95 375 109 c 0
 375 128 356 152 318 177 c 2
 194 260 l 2
 172 274 155 290 142 312 c 1
 129 305 122 298 122 285 c 0x0840
 122 266 140 243 178 218 c 2
 303 133 l 2
 324 119 341 107 352 80 c 1
EndSplineSet
Validated: 1
EndChar

StartChar: dieresis
Encoding: 168 168 103
Width: 500
GlyphClass: 2
Flags: W
HStem: 433 104<109.388 191.18 311.004 392.819>
VStem: 98 103<443.387 525.687> 300 103<442.66 526.164>
LayerCount: 2
Fore
SplineSet
98 485 m 0
 98 512 123 537 151 537 c 0
 179 537 201 513 201 485 c 0
 201 454 180 433 151 433 c 0
 122 433 98 456 98 485 c 0
300 485 m 0
 300 512 324 537 352 537 c 0
 380 537 403 513 403 485 c 0
 403 454 381 433 352 433 c 0
 323 433 300 456 300 485 c 0
EndSplineSet
Validated: 1
EndChar

StartChar: copyright
Encoding: 169 169 104
Width: 500
GlyphClass: 2
Flags: W
HStem: 28 40<163.469 337.991> 132 51<205.875 316.821> 370 51<205.096 301.779> 486 40<163.978 336.459>
VStem: 1 42<186.666 365.366> 118 65<204.971 348.196> 310 48<308.04 362.368> 458 42<188.29 365.283>
LayerCount: 2
Fore
SplineSet
1 277 m 0
 1 343 26 404 74 452 c 0
 121 500 184 526 251 526 c 0
 315 526 380 499 427 453 c 0
 473 407 500 342 500 277 c 0
 500 212 474 148 426 100 c 0
 379 53 318 28 250 28 c 0
 183 28 123 52 75 100 c 0
 27 147 1 209 1 277 c 0
43 277 m 0
 43 219 65 169 105 129 c 0
 146 89 195 68 250 68 c 0
 306 68 357 89 396 129 c 0
 436 170 458 223 458 277 c 0
 458 331 434 387 396 425 c 0
 358 463 304 486 251 486 c 0
 197 486 142 463 104 424 c 0
 65 384 43 331 43 277 c 0
315 406 m 1
 321 414 328 418 337 418 c 0
 350 418 358 409 358 391 c 2
 358 334 l 2
 358 314 352 308 334 308 c 0
 319 308 314 314 310 329 c 0
 302 357 287 370 255 370 c 0
 209 370 183 338 183 277 c 0
 183 216 210 183 256 183 c 0
 298 183 324 216 345 216 c 0
 357 216 366 204 366 189 c 0
 366 165 316 132 252 132 c 0
 173 132 118 192 118 277 c 0
 118 360 173 421 250 421 c 0
 271 421 293 416 315 406 c 1
EndSplineSet
Validated: 1
EndChar

StartChar: ordfeminine
Encoding: 170 170 105
Width: 500
GlyphClass: 2
Flags: W
HStem: 120 52<94 408> 210 66<178.047 289.365> 218 72<385 423.99> 360 51<184.49 304.901> 469 59<181.385 296.3>
VStem: 86 88<280.754 347.014> 306 79<290 356.127 403 459.38>
LayerCount: 2
Fore
SplineSet
385 410 m 2xde
 385 290 l 1
 391 290 l 2
 414 290 426 277 426 254 c 0
 426 228 412 218 384 218 c 2
 353 218 l 2xbe
 332 218 325 224 317 247 c 1
 279 223 237 210 198 210 c 0
 129 210 86 247 86 308 c 0
 86 372 139 411 234 411 c 0
 256 411 280 407 306 403 c 1
 306 410 l 2
 306 448 286 469 250 469 c 0
 208 469 179 438 146 438 c 0
 125 438 112 452 112 471 c 0
 112 504 165 528 255 528 c 0
 353 528 385 490 385 410 c 2xde
306 302 m 1
 306 352 l 1
 285 356 268 360 252 360 c 0
 203 360 174 341 174 313 c 0
 174 288 191 276 225 276 c 0xde
 255 276 280 284 306 302 c 1
108 172 m 2
 392 172 l 2
 402 172 408 167 408 159 c 2
 408 135 l 2
 408 127 400 120 392 120 c 2
 108 120 l 2
 100 120 94 126 94 135 c 2
 94 159 l 2
 94 167 100 172 108 172 c 2
EndSplineSet
Validated: 1
EndChar

StartChar: guillemotleft
Encoding: 171 171 106
Width: 500
GlyphClass: 2
Flags: W
HStem: 30 312<185 233 318 366>
VStem: 119 260
LayerCount: 2
Fore
SplineSet
328 186 m 1
 379 76 l 2
 381 72 382 66 382 61 c 0
 382 43 366 30 348 30 c 0
 337 30 326 36 322 44 c 2
 258 169 l 2
 254 177 252 183 252 188 c 0
 252 194 254 200 258 208 c 2
 322 328 l 2
 326 336 338 342 348 342 c 0
 366 342 382 329 382 311 c 0
 382 306 381 301 379 297 c 2
 328 186 l 1
194 186 m 1
 245 76 l 2
 247 72 248 66 248 61 c 0
 248 43 233 30 215 30 c 0
 204 30 193 36 189 44 c 2
 125 169 l 2
 121 177 119 183 119 188 c 0
 119 194 121 200 125 208 c 2
 189 328 l 2
 193 336 205 342 215 342 c 0
 233 342 248 329 248 311 c 0
 248 306 247 301 245 297 c 2
 194 186 l 1
EndSplineSet
Validated: 1
EndChar

StartChar: logicalnot
Encoding: 172 172 107
Width: 500
GlyphClass: 2
Flags: W
HStem: 131 251<391.278 467.149> 299 83<33.2437 388>
VStem: 388 84<135.767 299>
LayerCount: 2
Fore
SplineSet
388 299 m 1x60
 72 299 l 2
 45 299 28 315 28 340 c 0
 28 364 47 382 72 382 c 2x60
 437 382 l 2
 459 382 472 370 472 353 c 2
 472 175 l 2
 472 148 456 131 428 131 c 0xa0
 400 131 388 145 388 175 c 2
 388 299 l 1x60
EndSplineSet
Validated: 1
EndChar

StartChar: registered
Encoding: 174 174 108
Width: 500
GlyphClass: 2
Flags: W
HStem: 28 40<163.469 337.991> 150 49<132.106 160 218 245.894 355 387.895> 258 44<218 260.514> 364 49<132.146 160 215 291.81> 486 40<163.978 336.459>
VStem: 1 42<186.666 365.366> 132 114<150.426 198.789> 160 55<199 258 302 364> 294 64<305.299 363.603> 458 42<188.29 365.283>
LayerCount: 2
Fore
SplineSet
1 277 m 0xfcc0
 1 343 26 404 74 452 c 0
 121 500 184 526 251 526 c 0
 315 526 380 499 427 453 c 0
 473 407 500 342 500 277 c 0
 500 212 474 148 426 100 c 0
 379 53 318 28 250 28 c 0
 183 28 123 52 75 100 c 0
 27 147 1 209 1 277 c 0xfcc0
43 277 m 0
 43 219 65 169 105 129 c 0
 146 89 195 68 250 68 c 0
 306 68 357 89 396 129 c 0
 436 170 458 223 458 277 c 0
 458 331 434 387 396 425 c 0
 358 463 304 486 251 486 c 0
 197 486 142 463 104 424 c 0
 65 384 43 331 43 277 c 0
306 272 m 1
 312 269 314 263 318 257 c 2
 355 199 l 1
 361 199 l 2
 379 199 388 192 388 175 c 0
 388 157 380 150 360 150 c 2
 332 150 l 2
 317 150 315 153 308 163 c 2
 254 248 l 2
 250 255 244 258 238 258 c 2
 218 258 l 1
 218 199 l 1
 220 199 l 2
 237 199 246 191 246 175 c 0xfec0
 246 157 237 150 217 150 c 2
 160 150 l 2xfdc0
 141 150 132 157 132 175 c 0xfec0
 132 191 140 199 156 199 c 2
 160 199 l 1
 160 364 l 1xfdc0
 156 364 l 2
 140 364 132 373 132 389 c 0xfec0
 132 407 141 413 160 413 c 2xfdc0
 262 413 l 2
 325 413 358 389 358 341 c 0
 358 308 341 285 306 272 c 1
215 366 m 1xfdc0
 215 302 l 1
 245 302 l 2
 278 302 294 310 294 334 c 0
 294 356 280 366 252 366 c 2
 215 366 l 1xfdc0
EndSplineSet
Validated: 1
EndChar

StartChar: macron
Encoding: 175 175 109
Width: 500
GlyphClass: 2
Flags: W
HStem: 456 56<109 392>
VStem: 109 283<456 512>
LayerCount: 2
Fore
SplineSet
392 472 m 2
 392 464 387 456 380 456 c 2
 122 456 l 2
 115 456 109 464 109 472 c 2
 109 497 l 2
 109 506 115 512 122 512 c 2
 380 512 l 2
 387 512 392 506 392 497 c 2
 392 472 l 2
EndSplineSet
Validated: 1
EndChar

StartChar: degree
Encoding: 176 176 110
Width: 500
GlyphClass: 2
Flags: W
HStem: 292 60<201.713 300.287> 493 60<201.713 299.714>
VStem: 120 62<370.867 473.262> 320 62<371.048 473.081>
LayerCount: 2
Fore
SplineSet
120 422 m 0
 120 494 178 553 251 553 c 0
 324 553 382 494 382 422 c 0
 382 349 324 292 251 292 c 0
 178 292 120 349 120 422 c 0
182 422 m 0
 182 382 212 352 251 352 c 0
 290 352 320 383 320 422 c 0
 320 461 290 493 251 493 c 0
 212 493 182 462 182 422 c 0
EndSplineSet
Validated: 1
EndChar

StartChar: plusminus
Encoding: 177 177 111
Width: 500
GlyphClass: 2
Flags: W
HStem: 25 84<55.9988 446.001> 283 85<55.9988 208 292 446.001> 496 20G<237.5 263>
VStem: 208 84<141.999 283 368 511.001>
LayerCount: 2
Fore
SplineSet
96 25 m 2
 69 25 51 42 51 67 c 0
 51 93 69 109 96 109 c 2
 406 109 l 2
 433 109 451 93 451 68 c 0
 451 42 433 25 406 25 c 2
 96 25 l 2
292 182 m 2
 292 155 276 137 250 137 c 0
 225 137 208 155 208 182 c 2
 208 283 l 1
 96 283 l 2
 69 283 51 301 51 326 c 0
 51 352 69 368 96 368 c 2
 208 368 l 1
 208 471 l 2
 208 498 225 516 250 516 c 0
 276 516 292 498 292 471 c 2
 292 368 l 1
 406 368 l 2
 433 368 451 351 451 326 c 0
 451 300 433 283 406 283 c 2
 292 283 l 1
 292 182 l 2
EndSplineSet
Validated: 1
EndChar

StartChar: twosuperior
Encoding: 178 178 112
Width: 500
GlyphClass: 2
Flags: W
HStem: 201 60<202 318> 460 67<181.326 277.456>
VStem: 282 79<372.79 455.068> 318 69<261.172 304.994>
LayerCount: 2
Fore
SplineSet
202 261 m 1xe0
 318 261 l 1
 320 276 l 2
 323 295 336 308 353 308 c 0
 373 308 387 293 387 272 c 0xd0
 387 270 387 266 386 263 c 2
 380 224 l 2
 378 206 362 201 338 201 c 2
 153 201 l 2
 132 201 122 215 122 239 c 0
 122 279 156 296 208 331 c 0
 256 363 282 386 282 418 c 0
 282 442 266 460 238 460 c 0
 204 460 180 432 162 432 c 0
 146 432 131 445 131 462 c 0
 131 495 191 527 251 527 c 0
 317 527 361 482 361 424 c 0
 361 362 304 323 202 261 c 1xe0
EndSplineSet
Validated: 1
EndChar

StartChar: threesuperior
Encoding: 179 179 113
Width: 500
GlyphClass: 2
Flags: W
HStem: 186 62<155.183 289.167> 333 61<194.167 276.364> 466 61<177.779 278.133>
VStem: 282 76<402.472 461.158> 298 79<259.504 324.96>
LayerCount: 2
Fore
SplineSet
312 371 m 1xf0
 354 351 377 323 377 288 c 0
 377 231 322 186 232 186 c 0
 155 186 106 215 106 247 c 0
 106 263 119 274 137 274 c 0
 159 274 185 248 233 248 c 0
 271 248 298 269 298 292 c 0xe8
 298 316 280 330 246 333 c 0
 213 336 193 336 193 364 c 0
 193 383 208 394 218 394 c 0
 256 394 282 409 282 431 c 0
 282 452 265 466 237 466 c 0
 202 466 177 437 153 437 c 0
 137 437 128 447 128 459 c 0
 128 491 178 527 244 527 c 0
 312 527 358 487 358 442 c 0
 358 412 344 393 312 371 c 1xf0
EndSplineSet
Validated: 1
EndChar

StartChar: acute
Encoding: 180 180 114
Width: 500
GlyphClass: 2
Flags: W
HStem: 411 145
VStem: 163 236
LayerCount: 2
Fore
SplineSet
163 442 m 1
 357 556 l 2
 359 557 361 558 363 558 c 0
 371 558 378 553 382 545 c 2
 399 510 l 2
 400 508 401 505 401 503 c 0
 401 495 396 489 390 487 c 2
 177 411 l 1
 163 442 l 1
EndSplineSet
Validated: 1
EndChar

StartChar: paragraph
Encoding: 182 182 115
Width: 500
GlyphClass: 2
Flags: W
HStem: -63 89<132.495 179 420 466.505> 423 90<278 324 420 466.505>
VStem: 38 240<283.639 422.114> 179 99<26 217.824> 324 96<26 423>
LayerCount: 2
Fore
SplineSet
420 513 m 2xe8
 454 513 471 502 471 468 c 0
 471 439 456 423 427 423 c 2
 420 423 l 1
 420 26 l 1
 427 26 l 2
 456 26 471 10 471 -19 c 0
 471 -53 454 -63 420 -63 c 2
 340 -63 l 2
 319 -63 309 -52 309 -30 c 0
 309 -18 314 -7 324 4 c 1
 324 423 l 1
 278 423 l 1
 278 4 l 1
 290 -4 295 -12 295 -30 c 0
 295 -56 288 -63 263 -63 c 2
 179 -63 l 2
 145 -63 128 -53 128 -19 c 0
 128 10 143 26 172 26 c 2
 179 26 l 1
 179 214 l 1xd8
 89 227 38 283 38 361 c 0
 38 458 121 513 285 513 c 2
 420 513 l 2xe8
EndSplineSet
Validated: 1
EndChar

StartChar: periodcentered
Encoding: 183 183 116
Width: 500
GlyphClass: 2
Flags: W
HStem: 174 165<195.129 306.418>
VStem: 168 165<201.129 312.418>
LayerCount: 2
Fore
SplineSet
168 257 m 0
 168 303 205 339 251 339 c 0
 297 339 333 303 333 257 c 0
 333 210 297 174 251 174 c 0
 204 174 168 211 168 257 c 0
EndSplineSet
Validated: 1
EndChar

StartChar: cedilla
Encoding: 184 184 117
Width: 500
GlyphClass: 2
Flags: W
HStem: -194 40<175.039 284.281> -89 89<225 259.438>
VStem: 225 35<-54 0> 287 77<-151.797 -92.1657>
LayerCount: 2
Fore
SplineSet
260 0 m 1
 260 -54 l 1
 274 -52 283 -51 289 -51 c 0
 333 -51 364 -80 364 -121 c 0
 364 -167 328 -194 264 -194 c 0
 209 -194 150 -171 150 -148 c 0
 150 -139 157 -133 168 -133 c 0
 183 -133 211 -154 249 -154 c 0
 274 -154 287 -142 287 -120 c 0
 287 -100 272 -89 246 -89 c 0
 242 -89 236 -90 225 -92 c 1
 225 0 l 1
 260 0 l 1
EndSplineSet
Validated: 1
EndChar

StartChar: onesuperior
Encoding: 185 185 118
Width: 500
GlyphClass: 2
Flags: W
HStem: 201 62<147.805 214 289 356.142> 453 67<160.394 214>
VStem: 157 132<455.141 513.654> 214 75<263 455>
LayerCount: 2
Fore
SplineSet
289 263 m 1xd0
 305 263 l 2
 343 263 357 259 357 232 c 0
 357 211 347 201 327 201 c 2
 177 201 l 2
 157 201 147 211 147 232 c 0
 147 259 160 263 198 263 c 2
 214 263 l 1
 214 455 l 1xd0
 194 453 l 1
 189 453 l 2
 169 453 157 465 157 482 c 0
 157 503 169 514 191 516 c 2
 257 520 l 1
 262 520 l 2
 284 520 289 510 289 488 c 2xe0
 289 263 l 1xd0
EndSplineSet
Validated: 1
EndChar

StartChar: ordmasculine
Encoding: 186 186 119
Width: 500
GlyphClass: 2
Flags: W
HStem: 120 52<94 408> 211 68<192.667 307.751> 458 69<192.464 307.751>
VStem: 72 91<308.258 427.909> 338 90<308.052 428.115>
LayerCount: 2
Fore
SplineSet
428 368 m 0
 428 278 358 211 250 211 c 0
 142 211 72 279 72 368 c 0
 72 457 142 527 250 527 c 0
 358 527 428 458 428 368 c 0
250 279 m 0
 302 279 338 316 338 368 c 0
 338 419 302 458 250 458 c 0
 198 458 163 419 163 368 c 0
 163 316 199 279 250 279 c 0
108 172 m 2
 392 172 l 2
 402 172 408 167 408 159 c 2
 408 135 l 2
 408 127 400 120 392 120 c 2
 108 120 l 2
 100 120 94 126 94 135 c 2
 94 159 l 2
 94 167 100 172 108 172 c 2
EndSplineSet
Validated: 1
EndChar

StartChar: guillemotright
Encoding: 187 187 120
Width: 500
GlyphClass: 2
Flags: W
HStem: 30 312<134 181.062 267 314.062>
VStem: 121 260
LayerCount: 2
Fore
SplineSet
306 186 m 1
 254 297 l 2
 252 301 251 306 251 311 c 0
 251 329 267 342 285 342 c 0
 296 342 306 336 310 328 c 2
 375 203 l 2
 379 195 381 189 381 184 c 0
 381 178 379 172 375 164 c 2
 310 44 l 2
 306 36 295 30 285 30 c 0
 267 30 251 43 251 61 c 0
 251 66 252 72 254 76 c 2
 306 186 l 1
172 186 m 1
 121 297 l 2
 119 301 118 306 118 311 c 0
 118 329 134 342 152 342 c 0
 163 342 173 336 177 328 c 2
 242 203 l 2
 246 195 248 189 248 184 c 0
 248 178 246 172 242 164 c 2
 177 44 l 2
 173 36 162 30 152 30 c 0
 134 30 118 43 118 61 c 0
 118 66 119 72 121 76 c 2
 172 186 l 1
EndSplineSet
Validated: 1
EndChar

StartChar: onequarter
Encoding: 188 188 121
Width: 500
GlyphClass: 2
Flags: W
HStem: -22 55<268 358 424 474.752> 128 44<47.0392 62> 273 58<19.6415 88 155 219.371> 308 44<431 445.935> 505 57<28.8057 88>
VStem: 28 127<507.109 560.25> 88 67<331 507> 364 60<-77.3276 -22 33 158>
LayerCount: 2
Fore
SplineSet
364 33 m 1xc9
 364 158 l 1
 268 33 l 1
 364 33 l 1xc9
155 331 m 1xeb
 171 331 l 2
 207 331 220 327 220 302 c 0
 220 283 210 273 192 273 c 2
 48 273 l 2
 30 273 19 283 19 302 c 0
 19 327 32 331 68 331 c 2
 88 331 l 1
 88 507 l 1xeb
 64 505 l 1
 61 505 l 2
 41 505 28 517 28 532 c 0
 28 551 39 561 61 562 c 2
 124 567 l 1
 128 567 l 2
 148 567 155 559 155 537 c 2xed
 155 331 l 1xeb
410 349 m 2
 415 351 420 352 424 352 c 0xd9
 436 352 446 343 446 331 c 0xe9
 446 323 440 313 431 308 c 2xd9
 82 132 l 2
 78 130 72 128 68 128 c 0
 56 128 47 139 47 151 c 0
 47 159 53 167 62 172 c 2
 410 349 l 2
424 33 m 1
 455 33 l 2
 473 33 475 27 475 8 c 0
 475 -10 473 -22 455 -22 c 2
 424 -22 l 1
 424 -54 l 2
 424 -72 413 -78 392 -78 c 0
 370 -78 358 -73 358 -54 c 2
 358 -22 l 1
 233 -22 l 2
 214 -22 208 -10 208 12 c 0
 208 31 209 47 222 63 c 2
 338 205 l 2
 345 213 348 218 355 218 c 0
 360 218 365 219 370 218 c 2
 411 211 l 2
 420 209 424 201 424 185 c 2
 424 33 l 1
EndSplineSet
Validated: 1
EndChar

StartChar: onehalf
Encoding: 189 189 122
Width: 500
GlyphClass: 2
Flags: W
HStem: -72 58<346 474.878> 128 44<47.0392 62> 162 60<306.628 397.678> 273 58<19.6415 88 155 219.371> 308 44<431 445.935> 505 57<28.8057 88>
VStem: 28 127<507.109 560.25> 88 67<331 507> 400 72<83.1046 159.957>
LayerCount: 2
Fore
SplineSet
346 -14 m 1xa480
 443 -14 l 2
 463 -14 476 -25 476 -42 c 0
 476 -59 463 -72 445 -72 c 2
 301 -72 l 2
 282 -72 272 -59 272 -37 c 0
 272 -8 297 10 332 40 c 0
 374 77 400 98 400 126 c 0
 400 148 387 162 365 162 c 0
 339 162 315 138 294 138 c 0
 279 138 271 148 271 166 c 0
 271 193 322 222 377 222 c 0
 434 222 472 186 472 135 c 0
 472 98 449 62 401 27 c 2
 346 -14 l 1xa480
155 331 m 1x9580
 171 331 l 2
 207 331 220 327 220 302 c 0
 220 283 210 273 192 273 c 2
 48 273 l 2
 30 273 19 283 19 302 c 0
 19 327 32 331 68 331 c 2
 88 331 l 1
 88 507 l 1x9580
 64 505 l 1
 61 505 l 2
 41 505 28 517 28 532 c 0
 28 551 39 561 61 562 c 2
 124 567 l 1
 128 567 l 2
 148 567 155 559 155 537 c 2x9680
 155 331 l 1x9580
410 349 m 2
 415 351 420 352 424 352 c 0xcc80
 436 352 446 343 446 331 c 0x9480
 446 323 440 313 431 308 c 2
 82 132 l 2
 78 130 72 128 68 128 c 0
 56 128 47 139 47 151 c 0
 47 159 53 167 62 172 c 2xcc80
 410 349 l 2
EndSplineSet
Validated: 1
EndChar

StartChar: threequarters
Encoding: 190 190 123
Width: 500
GlyphClass: 2
Flags: W
HStem: -22 55<268 358 424 474.752> 128 44<47.0392 62> 268 54<52.5145 176.915> 308 44<431 445.935> 405 48<111.079 170.106> 518 55<68.3218 170.133>
VStem: 172 72<455.846 517.074> 183 73<330.017 399.5> 364 60<-77.3276 -22 33 158>
LayerCount: 2
Fore
SplineSet
199 432 m 1xee80
 237 415 256 390 256 358 c 0
 256 307 210 268 135 268 c 0
 71 268 32 285 32 310 c 0
 32 329 43 340 61 340 c 0
 83 340 104 322 132 322 c 0
 163 322 183 341 183 365 c 0xed80
 183 386 166 403 142 405 c 0
 123 407 111 408 111 429 c 0
 111 446 122 449 140 453 c 0
 162 458 172 465 172 488 c 0
 172 507 161 518 141 518 c 0
 113 518 88 496 71 496 c 0
 56 496 45 507 45 522 c 0
 45 547 89 573 148 573 c 0
 207 573 244 537 244 497 c 0
 244 468 229 446 199 432 c 1xee80
424 33 m 1
 455 33 l 2
 473 33 475 27 475 8 c 0
 475 -10 473 -22 455 -22 c 2
 424 -22 l 1
 424 -54 l 2
 424 -72 413 -78 392 -78 c 0
 370 -78 358 -73 358 -54 c 2
 358 -22 l 1
 233 -22 l 2
 214 -22 208 -10 208 12 c 0
 208 31 209 47 222 63 c 2
 338 205 l 2
 345 213 348 218 355 218 c 0
 360 218 365 219 370 218 c 2
 411 211 l 2
 420 209 424 201 424 185 c 2
 424 33 l 1
364 33 m 1
 364 158 l 1
 268 33 l 1
 364 33 l 1
410 349 m 2
 415 351 420 352 424 352 c 0
 436 352 446 343 446 331 c 0
 446 323 440 313 431 308 c 2xdc80
 82 132 l 2
 78 130 72 128 68 128 c 0
 56 128 47 139 47 151 c 0
 47 159 53 167 62 172 c 2
 410 349 l 2
EndSplineSet
Validated: 1
EndChar

StartChar: questiondown
Encoding: 191 191 124
Width: 500
GlyphClass: 2
Flags: W
HStem: -6 76<214.591 330.319> 381 129<228.096 350.544>
VStem: 95 104<87.1169 181.737> 209 159<400.205 490.658> 245 90<281.014 348.554> 334 77<74.3583 134.594>
LayerCount: 2
Fore
SplineSet
209 445 m 0xf0
 209 482 240 510 289 510 c 0
 338 510 368 483 368 445 c 0
 368 408 338 381 289 381 c 0
 240 381 209 409 209 445 c 0xf0
335 294 m 2xe8
 335 257 327 240 287 218 c 0
 240 192 199 186 199 134 c 0
 199 96 226 70 272 70 c 0
 320 70 329 79 334 101 c 0
 339 123 345 138 377 138 c 0
 401 138 411 127 411 99 c 2
 411 48 l 2xe4
 411 19 342 -6 254 -6 c 0
 154 -6 95 50 95 138 c 0
 95 207 147 261 245 286 c 1
 245 318 l 2
 245 340 261 353 289 353 c 0
 318 353 335 339 335 318 c 2
 335 294 l 2xe8
EndSplineSet
Validated: 1
EndChar

StartChar: Agrave
Encoding: 192 192 125
Width: 500
GlyphClass: 2
Flags: W
HStem: 0 89<-0.77301 47 138 198.966 286.034 348 456 503.293> 137 84<183 302> 392 90<76.309 156> 521 21G<247.211 312.677>
VStem: -5 208<4.81892 84.4757> 282 226<4.81892 84.043>
LayerCount: 2
Fore
SplineSet
138 89 m 1
 152 89 l 2
 186 89 203 79 203 45 c 0
 203 11 186 0 152 0 c 2
 47 0 l 2
 13 0 -5 11 -5 45 c 0
 -5 74 11 89 40 89 c 2
 47 89 l 1
 156 392 l 1
 122 392 l 2
 88 392 72 404 72 438 c 0
 72 471 88 482 123 482 c 2
 276 482 l 2
 313 482 316 472 327 442 c 2
 456 89 l 1
 462 89 l 2
 491 89 508 74 508 45 c 0
 508 11 490 0 456 0 c 2
 333 0 l 2
 299 0 282 11 282 45 c 0
 282 79 299 89 333 89 c 2
 348 89 l 1
 331 137 l 1
 155 137 l 1
 138 89 l 1
183 221 m 1
 302 221 l 1
 242 392 l 1
 183 221 l 1
318 552 m 1
 303 521 l 1
 91 597 l 2
 85 599 80 605 80 613 c 0
 80 615 81 618 82 620 c 2
 98 655 l 2
 102 663 110 668 118 668 c 0
 120 668 121 667 123 666 c 2
 318 552 l 1
EndSplineSet
Validated: 1
EndChar

StartChar: Aacute
Encoding: 193 193 126
Width: 500
GlyphClass: 2
Flags: W
HStem: 0 89<-0.77301 47 138 198.966 286.034 348 456 503.293> 137 84<183 302> 392 90<76.309 156> 521 21G<146.968 212.053>
VStem: -5 208<4.81892 84.4757> 282 226<4.81892 84.043>
LayerCount: 2
Fore
SplineSet
138 89 m 1
 152 89 l 2
 186 89 203 79 203 45 c 0
 203 11 186 0 152 0 c 2
 47 0 l 2
 13 0 -5 11 -5 45 c 0
 -5 74 11 89 40 89 c 2
 47 89 l 1
 156 392 l 1
 122 392 l 2
 88 392 72 404 72 438 c 0
 72 471 88 482 123 482 c 2
 276 482 l 2
 313 482 316 472 327 442 c 2
 456 89 l 1
 462 89 l 2
 491 89 508 74 508 45 c 0
 508 11 490 0 456 0 c 2
 333 0 l 2
 299 0 282 11 282 45 c 0
 282 79 299 89 333 89 c 2
 348 89 l 1
 331 137 l 1
 155 137 l 1
 138 89 l 1
183 221 m 1
 302 221 l 1
 242 392 l 1
 183 221 l 1
142 552 m 1
 336 666 l 2
 338 667 340 668 342 668 c 0
 350 668 358 663 362 655 c 2
 378 620 l 2
 379 618 380 615 380 613 c 0
 380 605 375 599 369 597 c 2
 156 521 l 1
 142 552 l 1
EndSplineSet
Validated: 1
EndChar

StartChar: Acircumflex
Encoding: 194 194 127
Width: 500
GlyphClass: 2
Flags: W
HStem: 0 89<-0.77301 47 138 198.966 286.034 348 456 503.293> 137 84<183 302> 392 90<76.309 156> 533 21G<101.5 108 352 358.5>
VStem: -5 208<4.81892 84.4757> 282 226<4.81892 84.043>
LayerCount: 2
Fore
SplineSet
138 89 m 1
 152 89 l 2
 186 89 203 79 203 45 c 0
 203 11 186 0 152 0 c 2
 47 0 l 2
 13 0 -5 11 -5 45 c 0
 -5 74 11 89 40 89 c 2
 47 89 l 1
 156 392 l 1
 122 392 l 2
 88 392 72 404 72 438 c 0
 72 471 88 482 123 482 c 2
 276 482 l 2
 313 482 316 472 327 442 c 2
 456 89 l 1
 462 89 l 2
 491 89 508 74 508 45 c 0
 508 11 490 0 456 0 c 2
 333 0 l 2
 299 0 282 11 282 45 c 0
 282 79 299 89 333 89 c 2
 348 89 l 1
 331 137 l 1
 155 137 l 1
 138 89 l 1
183 221 m 1
 302 221 l 1
 242 392 l 1
 183 221 l 1
255 653 m 2
 368 564 l 2
 371 562 372 557 372 553 c 0
 372 544 364 533 353 533 c 0
 351 533 349 534 347 535 c 2
 230 589 l 1
 113 535 l 2
 111 534 109 533 107 533 c 0
 96 533 88 544 88 553 c 0
 88 557 89 562 92 564 c 2
 205 653 l 2
 212 658 220 661 230 661 c 0
 240 661 248 658 255 653 c 2
EndSplineSet
Validated: 1
EndChar

StartChar: Atilde
Encoding: 195 195 128
Width: 500
GlyphClass: 2
Flags: W
HStem: 0 89<-0.77301 47 138 198.966 286.034 348 456 503.293> 137 84<183 302> 392 90<76.309 156> 558 57<203.351 347.416> 582 57<112.265 256.55>
VStem: -5 208<4.81892 84.4757> 282 226<4.81892 84.043>
LayerCount: 2
Fore
SplineSet
138 89 m 1xe6
 152 89 l 2
 186 89 203 79 203 45 c 0
 203 11 186 0 152 0 c 2
 47 0 l 2
 13 0 -5 11 -5 45 c 0
 -5 74 11 89 40 89 c 2
 47 89 l 1
 156 392 l 1
 122 392 l 2
 88 392 72 404 72 438 c 0
 72 471 88 482 123 482 c 2
 276 482 l 2
 313 482 316 472 327 442 c 2
 456 89 l 1
 462 89 l 2
 491 89 508 74 508 45 c 0
 508 11 490 0 456 0 c 2
 333 0 l 2
 299 0 282 11 282 45 c 0
 282 79 299 89 333 89 c 2
 348 89 l 1
 331 137 l 1
 155 137 l 1
 138 89 l 1xe6
183 221 m 1
 302 221 l 1
 242 392 l 1
 183 221 l 1
271 621 m 2
 285 618 297 615 305 615 c 0
 337 615 344 643 362 643 c 0
 372 643 378 637 378 626 c 0
 378 599 341 558 284 558 c 0xf6
 269 558 253 560 235 564 c 2
 189 577 l 2
 177 580 165 582 154 582 c 0
 122 582 116 554 98 554 c 0
 87 554 82 560 82 571 c 0
 82 598 118 639 176 639 c 0xee
 192 639 207 637 224 633 c 2
 271 621 l 2
EndSplineSet
Validated: 1
EndChar

StartChar: Adieresis
Encoding: 196 196 129
Width: 500
GlyphClass: 2
Flags: W
HStem: 0 89<-0.77301 47 138 198.966 286.034 348 456 503.293> 137 84<183 302> 392 90<76.309 156> 543 104<89.0041 170.18 290.388 372.18>
VStem: -5 208<4.81892 84.4757> 78 102<552.66 636.164> 279 103<553.387 635.687> 282 226<4.81892 84.043>
LayerCount: 2
Fore
SplineSet
138 89 m 1xf9
 152 89 l 2
 186 89 203 79 203 45 c 0
 203 11 186 0 152 0 c 2
 47 0 l 2
 13 0 -5 11 -5 45 c 0
 -5 74 11 89 40 89 c 2
 47 89 l 1
 156 392 l 1
 122 392 l 2
 88 392 72 404 72 438 c 0
 72 471 88 482 123 482 c 2
 276 482 l 2
 313 482 316 472 327 442 c 2
 456 89 l 1
 462 89 l 2
 491 89 508 74 508 45 c 0
 508 11 490 0 456 0 c 2
 333 0 l 2
 299 0 282 11 282 45 c 0
 282 79 299 89 333 89 c 2
 348 89 l 1
 331 137 l 1
 155 137 l 1
 138 89 l 1xf9
183 221 m 1
 302 221 l 1
 242 392 l 1
 183 221 l 1
78 595 m 0xf4
 78 622 102 647 130 647 c 0
 158 647 180 623 180 595 c 0
 180 564 159 543 130 543 c 0
 101 543 78 566 78 595 c 0xf4
279 595 m 0xf2
 279 622 304 647 332 647 c 0
 360 647 382 623 382 595 c 0
 382 564 361 543 332 543 c 0
 303 543 279 566 279 595 c 0xf2
EndSplineSet
Validated: 1
EndChar

StartChar: Aring
Encoding: 197 197 130
Width: 500
GlyphClass: 2
Flags: W
HStem: 0 89<-0.77301 47 138 198.966 286.034 348 456 503.293> 137 84<183 302> 392 90<76.309 156> 509 59<191.966 276.321> 672 57<193.38 275.947>
VStem: -5 208<4.81892 84.4757> 125 57<578.2 660.447> 282 226<4.81892 84.043> 287 58<578.2 661.69>
LayerCount: 2
Fore
SplineSet
183 221 m 1xf8
 302 221 l 1
 242 392 l 1
 183 221 l 1xf8
138 89 m 1
 152 89 l 2
 186 89 203 79 203 45 c 0
 203 11 186 0 152 0 c 2
 47 0 l 2
 13 0 -5 11 -5 45 c 0
 -5 74 11 89 40 89 c 2
 47 89 l 1
 156 392 l 1
 122 392 l 2
 88 392 72 404 72 438 c 0
 72 471 88 482 123 482 c 2
 276 482 l 2
 313 482 316 472 327 442 c 2
 456 89 l 1
 462 89 l 2
 491 89 508 74 508 45 c 0
 508 11 490 0 456 0 c 2
 333 0 l 2
 299 0 282 11 282 45 c 0xfd
 282 79 299 89 333 89 c 2
 348 89 l 1
 331 137 l 1
 155 137 l 1
 138 89 l 1
125 619 m 0xfa80
 125 680 173 729 235 729 c 0
 296 729 345 680 345 619 c 0
 345 557 296 509 235 509 c 0
 174 509 125 557 125 619 c 0xfa80
182 620 m 0
 182 591 206 568 235 568 c 0
 263 568 287 591 287 620 c 0
 287 648 263 672 235 672 c 0
 206 672 182 648 182 620 c 0
EndSplineSet
Validated: 1
EndChar

StartChar: AE
Encoding: 198 198 131
Width: 500
GlyphClass: 2
Flags: W
HStem: 0 186<437.87 504.783> 0 87<-25.8448 31.1344 171.166 228 312 434> 154 70<152 228> 173 155<348.047 406.888> 217 69<312 346> 302 180<438.246 504.343> 397 85<65.9821 122 202 228 312 434>
VStem: 228 84<89 154 286 397> 346 63<174.45 217 286 326.937> 434 74<87 183.198 304.941 397>
LayerCount: 2
Fore
SplineSet
434 87 m 1x49c0
 434 135 l 2
 434 169 444 186 472 186 c 0
 501 186 508 169 508 135 c 2
 508 37 l 2
 508 9 503 0 472 0 c 2x81c0
 228 0 l 1
 224 0 l 2
 191 0 168 1 168 45 c 0
 168 76 183 91 212 91 c 0
 217 91 222 90 228 89 c 1
 228 154 l 1
 132 154 l 1
 92 15 l 2
 89 3 85 0 73 0 c 2
 29 0 l 1
 26 0 l 2
 -6 0 -29 1 -29 45 c 0
 -29 76 -16 91 13 91 c 0
 18 91 23 90 29 89 c 1
 122 392 l 1
 116 391 111 392 106 392 c 0
 77 392 63 407 63 438 c 0
 63 483 87 482 122 482 c 2x63c0
 472 482 l 2
 503 482 508 473 508 445 c 2
 508 354 l 2
 508 320 500 302 472 302 c 0x05c0
 444 302 434 320 434 354 c 2
 434 397 l 1
 312 397 l 1
 312 286 l 1
 346 286 l 1x0bc0
 346 292 l 2
 346 316 357 328 377 328 c 0x11c0
 401 328 409 314 409 286 c 2x09c0
 409 216 l 2
 409 188 402 173 378 173 c 0x11c0
 357 173 346 187 346 211 c 2
 346 217 l 1
 312 217 l 1
 312 87 l 1
 434 87 l 1x49c0
152 224 m 1x23c0
 228 224 l 1
 228 397 l 1
 202 397 l 1
 152 224 l 1x23c0
EndSplineSet
Validated: 33
EndChar

StartChar: Ccedilla
Encoding: 199 199 132
Width: 500
GlyphClass: 2
Flags: W
HStem: -194 40<185.405 293.281> -13 13<234 269> 296 199<380.727 450.433> 407 89<198.773 341.333>
VStem: 26 116<139.008 343.226> 234 35<-54 0> 296 77<-151.797 -92.1657> 370 84<300.335 378.191>
LayerCount: 2
Fore
SplineSet
378 469 m 1xdd
 388 487 399 495 417 495 c 0
 443 495 453 484 453 449 c 2
 454 343 l 2
 454 308 446 296 412 296 c 0xed
 387 296 378 308 370 334 c 0
 357 382 332 407 272 407 c 0
 190 407 142 350 142 242 c 0
 142 134 189 77 272 77 c 0
 349 77 395 133 432 133 c 0
 453 133 469 114 469 87 c 0
 469 44 376 -13 264 -13 c 0
 121 -13 26 92 26 242 c 0
 26 384 123 496 262 496 c 0
 301 496 338 487 378 469 c 1xdd
269 0 m 1
 269 -54 l 1
 283 -52 292 -51 298 -51 c 0
 342 -51 373 -80 373 -121 c 0
 373 -167 337 -194 273 -194 c 0
 218 -194 159 -171 159 -148 c 0
 159 -139 167 -133 178 -133 c 0
 193 -133 220 -154 258 -154 c 0
 283 -154 296 -142 296 -120 c 0xce
 296 -100 281 -89 255 -89 c 0
 251 -89 245 -90 234 -92 c 1
 234 0 l 1
 269 0 l 1
EndSplineSet
Validated: 5
EndChar

StartChar: Egrave
Encoding: 200 200 133
Width: 500
GlyphClass: 2
Flags: W
HStem: 0 186<372.579 450.77> 0 87<33.3335 79 178 368> 208 84<178 249> 302 180<372.773 450.274> 397 85<33.1258 79 178 368> 521 21G<279.947 345.032>
VStem: 79 99<89 208 292 392> 250 83<161.424 208 292 339.402> 368 87<87 181.966 306.227 397>
LayerCount: 2
Fore
SplineSet
412 482 m 2x3780
 446 482 455 474 455 445 c 2
 455 354 l 2
 455 319 444 302 412 302 c 0x3780
 379 302 368 320 368 354 c 2
 368 397 l 1
 178 397 l 1
 178 292 l 1
 249 292 l 1
 249 298 l 2
 249 329 263 343 291 343 c 0
 322 343 333 326 333 292 c 2
 333 208 l 2
 333 174 323 158 292 158 c 0
 264 158 250 172 250 201 c 2
 250 208 l 1
 178 208 l 1
 178 87 l 1
 368 87 l 1x6f80
 368 135 l 2
 368 170 380 186 412 186 c 0
 445 186 455 169 455 135 c 2
 455 37 l 2
 455 8 446 0 412 0 c 2xa780
 79 0 l 2
 46 0 29 12 29 45 c 0
 29 73 44 89 72 89 c 2
 79 89 l 1
 79 392 l 1
 73 392 l 2
 45 392 29 409 29 438 c 0
 29 470 46 482 79 482 c 2x6f80
 412 482 l 2x3780
350 552 m 1
 336 521 l 1
 123 597 l 2
 117 599 112 605 112 613 c 0
 112 615 113 618 114 620 c 2
 131 655 l 2
 135 663 142 668 150 668 c 0
 152 668 154 667 156 666 c 2
 350 552 l 1
EndSplineSet
Validated: 1
EndChar

StartChar: Eacute
Encoding: 201 201 134
Width: 500
GlyphClass: 2
Flags: W
HStem: 0 186<372.579 450.77> 0 87<33.3335 79 178 368> 208 84<178 249> 302 180<372.773 450.274> 397 85<33.1258 79 178 368> 521 21G<179.613 244.316>
VStem: 79 99<89 208 292 392> 250 83<161.424 208 292 339.402> 368 87<87 181.966 306.227 397>
LayerCount: 2
Fore
SplineSet
412 482 m 2x3780
 446 482 455 474 455 445 c 2
 455 354 l 2
 455 319 444 302 412 302 c 0x3780
 379 302 368 320 368 354 c 2
 368 397 l 1
 178 397 l 1
 178 292 l 1
 249 292 l 1
 249 298 l 2
 249 329 263 343 291 343 c 0
 322 343 333 326 333 292 c 2
 333 208 l 2
 333 174 323 158 292 158 c 0
 264 158 250 172 250 201 c 2
 250 208 l 1
 178 208 l 1
 178 87 l 1
 368 87 l 1x6f80
 368 135 l 2
 368 170 380 186 412 186 c 0
 445 186 455 169 455 135 c 2
 455 37 l 2
 455 8 446 0 412 0 c 2xa780
 79 0 l 2
 46 0 29 12 29 45 c 0
 29 73 44 89 72 89 c 2
 79 89 l 1
 79 392 l 1
 73 392 l 2
 45 392 29 409 29 438 c 0
 29 470 46 482 79 482 c 2x6f80
 412 482 l 2x3780
175 552 m 1
 368 666 l 2
 370 667 373 668 375 668 c 0
 383 668 390 663 394 655 c 2
 411 620 l 2
 412 618 412 615 412 613 c 0
 412 605 408 599 402 597 c 2
 188 521 l 1
 175 552 l 1
EndSplineSet
Validated: 1
EndChar

StartChar: Ecircumflex
Encoding: 202 202 135
Width: 500
GlyphClass: 2
Flags: W
HStem: 0 186<372.579 450.77> 0 87<33.3335 79 178 368> 208 84<178 249> 302 180<372.773 450.274> 397 85<33.1258 79 178 368> 533 21G<133.5 140 385 391.5>
VStem: 79 99<89 208 292 392> 250 83<161.424 208 292 339.402> 368 87<87 181.966 306.227 397>
LayerCount: 2
Fore
SplineSet
412 482 m 2x3780
 446 482 455 474 455 445 c 2
 455 354 l 2
 455 319 444 302 412 302 c 0x3780
 379 302 368 320 368 354 c 2
 368 397 l 1
 178 397 l 1
 178 292 l 1
 249 292 l 1
 249 298 l 2
 249 329 263 343 291 343 c 0
 322 343 333 326 333 292 c 2
 333 208 l 2
 333 174 323 158 292 158 c 0
 264 158 250 172 250 201 c 2
 250 208 l 1
 178 208 l 1
 178 87 l 1
 368 87 l 1x6f80
 368 135 l 2
 368 170 380 186 412 186 c 0
 445 186 455 169 455 135 c 2
 455 37 l 2
 455 8 446 0 412 0 c 2xa780
 79 0 l 2
 46 0 29 12 29 45 c 0
 29 73 44 89 72 89 c 2
 79 89 l 1
 79 392 l 1
 73 392 l 2
 45 392 29 409 29 438 c 0
 29 470 46 482 79 482 c 2x6f80
 412 482 l 2x3780
288 653 m 2
 400 564 l 2
 403 562 405 557 405 553 c 0
 405 544 397 533 386 533 c 0
 384 533 381 534 379 535 c 2
 262 589 l 1
 146 535 l 2
 144 534 141 533 139 533 c 0
 128 533 120 544 120 553 c 0
 120 557 122 562 125 564 c 2
 238 653 l 2
 245 658 252 661 262 661 c 0
 272 661 281 658 288 653 c 2
EndSplineSet
Validated: 1
EndChar

StartChar: Edieresis
Encoding: 203 203 136
Width: 500
GlyphClass: 2
Flags: W
HStem: 0 186<372.579 450.77> 0 87<33.3335 79 178 368> 208 84<178 249> 302 180<372.773 450.274> 397 85<33.1258 79 178 368> 543 104<121.004 202.18 323.004 404.819>
VStem: 79 99<89 208 292 392> 110 102<552.66 636.164> 250 83<161.424 208 292 339.402> 312 103<552.66 636.164> 368 87<87 181.966 306.227 397>
LayerCount: 2
Fore
SplineSet
412 482 m 2x36a0
 446 482 455 474 455 445 c 2
 455 354 l 2
 455 319 444 302 412 302 c 0x36a0
 379 302 368 320 368 354 c 2
 368 397 l 1
 178 397 l 1
 178 292 l 1
 249 292 l 1
 249 298 l 2
 249 329 263 343 291 343 c 0
 322 343 333 326 333 292 c 2
 333 208 l 2
 333 174 323 158 292 158 c 0
 264 158 250 172 250 201 c 2
 250 208 l 1
 178 208 l 1
 178 87 l 1
 368 87 l 1x6ea0
 368 135 l 2
 368 170 380 186 412 186 c 0
 445 186 455 169 455 135 c 2
 455 37 l 2
 455 8 446 0 412 0 c 2xa6a0
 79 0 l 2
 46 0 29 12 29 45 c 0
 29 73 44 89 72 89 c 2
 79 89 l 1
 79 392 l 1
 73 392 l 2
 45 392 29 409 29 438 c 0
 29 470 46 482 79 482 c 2x6ea0
 412 482 l 2x36a0
110 595 m 0x25
 110 622 134 647 162 647 c 0
 190 647 212 623 212 595 c 0
 212 564 191 543 162 543 c 0
 133 543 110 566 110 595 c 0x25
312 595 m 0x2440
 312 622 336 647 364 647 c 0
 392 647 415 623 415 595 c 0
 415 564 393 543 364 543 c 0
 335 543 312 566 312 595 c 0x2440
EndSplineSet
Validated: 1
EndChar

StartChar: Igrave
Encoding: 204 204 137
Width: 500
GlyphClass: 2
Flags: W
HStem: 0 89<82.227 198 303 417.903> 392 90<82.7069 198 303 418.505> 521 21G<268.211 333.032>
VStem: 198 105<89 392>
LayerCount: 2
Fore
SplineSet
372 482 m 2
 406 482 423 473 423 438 c 0
 423 404 406 392 372 392 c 2
 303 392 l 1
 303 89 l 1
 372 89 l 2
 406 89 422 79 422 45 c 0
 422 13 407 0 372 0 c 2
 130 0 l 2
 96 0 78 11 78 45 c 0
 78 79 96 89 130 89 c 2
 198 89 l 1
 198 392 l 1
 130 392 l 2
 96 392 78 404 78 438 c 0
 78 472 96 482 130 482 c 2
 372 482 l 2
338 552 m 1
 324 521 l 1
 112 597 l 2
 106 599 101 605 101 613 c 0
 101 615 101 618 102 620 c 2
 119 655 l 2
 123 663 130 668 138 668 c 0
 140 668 142 667 144 666 c 2
 338 552 l 1
EndSplineSet
Validated: 1
EndChar

StartChar: Iacute
Encoding: 205 205 138
Width: 500
GlyphClass: 2
Flags: W
HStem: 0 89<82.227 198 303 417.903> 392 90<82.7069 198 303 418.505> 521 21G<167.968 233.053>
VStem: 198 105<89 392>
LayerCount: 2
Fore
SplineSet
372 482 m 2
 406 482 423 473 423 438 c 0
 423 404 406 392 372 392 c 2
 303 392 l 1
 303 89 l 1
 372 89 l 2
 406 89 422 79 422 45 c 0
 422 13 407 0 372 0 c 2
 130 0 l 2
 96 0 78 11 78 45 c 0
 78 79 96 89 130 89 c 2
 198 89 l 1
 198 392 l 1
 130 392 l 2
 96 392 78 404 78 438 c 0
 78 472 96 482 130 482 c 2
 372 482 l 2
163 552 m 1
 357 666 l 2
 359 667 361 668 363 668 c 0
 371 668 378 663 382 655 c 2
 399 620 l 2
 400 618 401 615 401 613 c 0
 401 605 396 599 390 597 c 2
 177 521 l 1
 163 552 l 1
EndSplineSet
Validated: 1
EndChar

StartChar: Icircumflex
Encoding: 206 206 139
Width: 500
GlyphClass: 2
Flags: W
HStem: 0 89<82.227 198 303 417.903> 392 90<82.7069 198 303 418.505> 533 21G<122.5 129 373 379.5>
VStem: 198 105<89 392>
LayerCount: 2
Fore
SplineSet
372 482 m 2
 406 482 423 473 423 438 c 0
 423 404 406 392 372 392 c 2
 303 392 l 1
 303 89 l 1
 372 89 l 2
 406 89 422 79 422 45 c 0
 422 13 407 0 372 0 c 2
 130 0 l 2
 96 0 78 11 78 45 c 0
 78 79 96 89 130 89 c 2
 198 89 l 1
 198 392 l 1
 130 392 l 2
 96 392 78 404 78 438 c 0
 78 472 96 482 130 482 c 2
 372 482 l 2
276 653 m 2
 388 564 l 2
 391 562 393 557 393 553 c 0
 393 544 385 533 374 533 c 0
 372 533 370 534 368 535 c 2
 251 589 l 1
 134 535 l 2
 132 534 130 533 128 533 c 0
 117 533 108 544 108 553 c 0
 108 557 110 562 113 564 c 2
 226 653 l 2
 233 658 241 661 251 661 c 0
 261 661 269 658 276 653 c 2
EndSplineSet
Validated: 1
EndChar

StartChar: Idieresis
Encoding: 207 207 140
Width: 500
GlyphClass: 2
Flags: W
HStem: 0 89<82.227 198 303 417.903> 392 90<82.7069 198 303 418.505> 543 104<109.388 191.18 311.004 392.819>
VStem: 98 103<553.387 635.687> 198 105<89 392> 300 103<552.66 636.164>
LayerCount: 2
Fore
SplineSet
372 482 m 2xe8
 406 482 423 473 423 438 c 0
 423 404 406 392 372 392 c 2
 303 392 l 1
 303 89 l 1
 372 89 l 2
 406 89 422 79 422 45 c 0
 422 13 407 0 372 0 c 2
 130 0 l 2
 96 0 78 11 78 45 c 0
 78 79 96 89 130 89 c 2
 198 89 l 1
 198 392 l 1
 130 392 l 2
 96 392 78 404 78 438 c 0
 78 472 96 482 130 482 c 2
 372 482 l 2xe8
98 595 m 0xf0
 98 622 123 647 151 647 c 0
 179 647 201 623 201 595 c 0
 201 564 180 543 151 543 c 0
 122 543 98 566 98 595 c 0xf0
300 595 m 0xe4
 300 622 324 647 352 647 c 0
 380 647 403 623 403 595 c 0
 403 564 381 543 352 543 c 0
 323 543 300 566 300 595 c 0xe4
EndSplineSet
Validated: 1
EndChar

StartChar: Eth
Encoding: 208 208 141
Width: 500
GlyphClass: 2
Flags: W
HStem: 0 89<32.0342 79 184 299.969> 212 61<34.0607 79 184 273.025> 392 90<32.8096 79 184 301.961>
VStem: 79 105<89.0008 212 273 392> 357 116<145.598 336.025>
LayerCount: 2
Fore
SplineSet
184 90 m 1
 192 89 200 89 208 89 c 0
 310 89 357 137 357 242 c 0
 357 344 308 395 208 395 c 0
 200 395 192 395 184 394 c 1
 184 273 l 1
 241 273 l 2
 263 273 274 262 274 242 c 0
 274 219 262 212 241 212 c 2
 184 212 l 1
 184 90 l 1
79 0 m 2
 45 0 28 11 28 45 c 0
 28 74 43 89 72 89 c 2
 79 89 l 1
 79 212 l 1
 67 212 l 2
 45 212 33 223 33 243 c 0
 33 261 46 273 54 273 c 2
 67 273 l 1
 79 273 l 1
 79 392 l 1
 72 392 l 2
 43 392 28 409 28 438 c 0
 28 471 44 482 79 482 c 2
 156 482 l 1
 180 482 l 2
 258 482 322 481 372 451 c 0
 436 412 473 339 473 242 c 0
 473 141 430 63 358 25 c 0
 316 2 264 0 202 0 c 2
 156 0 l 1
 79 0 l 2
EndSplineSet
Validated: 1
EndChar

StartChar: Ntilde
Encoding: 209 209 142
Width: 500
GlyphClass: 2
Flags: W
HStem: 0 89<26.4687 72 165 233.988> 392 90<27.0267 72 276.469 345 438 482.973> 558 57<235.351 378.193> 582 57<143.666 288.566>
VStem: 22 216<4.61948 84.4346> 72 93<89 310> 272 216<396.893 477.654> 345 93<168 392>
LayerCount: 2
Fore
SplineSet
345 168 m 1xc5
 345 392 l 1xc5
 322 392 l 2
 289 392 272 405 272 438 c 0xc2
 272 471 289 482 322 482 c 2
 438 482 l 2xc1
 471 482 488 471 488 438 c 0xc2
 488 409 472 392 444 392 c 2
 438 392 l 1
 438 23 l 2
 438 -1 436 -6 416 -6 c 2
 375 -6 l 2
 356 -6 344 -6 334 12 c 2
 165 310 l 1
 165 89 l 1xc5
 188 89 l 2
 221 89 238 78 238 45 c 0xc8
 238 12 221 0 188 0 c 2
 72 0 l 2xc4
 39 0 22 12 22 45 c 0xc8
 22 73 37 89 65 89 c 2
 72 89 l 1
 72 392 l 1xc4
 66 392 l 2
 38 392 22 409 22 438 c 0xc8
 22 470 39 482 72 482 c 2
 138 482 l 1
 142 482 l 2
 165 482 173 482 190 451 c 2
 345 168 l 1xc5
302 621 m 2
 316 618 329 615 337 615 c 0
 369 615 375 643 393 643 c 0
 403 643 410 637 410 626 c 0
 410 599 373 558 316 558 c 0xe0
 301 558 285 560 267 564 c 2
 221 577 l 2
 209 580 197 582 186 582 c 0
 154 582 147 554 129 554 c 0
 118 554 113 560 113 571 c 0
 113 598 150 639 208 639 c 0xd0
 224 639 239 637 256 633 c 2
 302 621 l 2
EndSplineSet
Validated: 1
EndChar

StartChar: Ograve
Encoding: 210 210 143
Width: 500
GlyphClass: 2
Flags: W
HStem: -12 93<189.961 312.247> 402 94<189.239 312.247> 521 21G<268.211 333.032>
VStem: 21 117<139.537 344.283> 363 117<137.837 345.76>
LayerCount: 2
Fore
SplineSet
251 81 m 0
 319 81 363 138 363 242 c 0
 363 346 319 402 251 402 c 0
 183 402 138 345 138 242 c 0
 138 139 184 81 251 81 c 0
480 242 m 0
 480 93 384 -12 251 -12 c 0
 119 -12 21 93 21 242 c 0
 21 391 116 496 251 496 c 0
 384 496 480 390 480 242 c 0
338 552 m 1
 324 521 l 1
 112 597 l 2
 106 599 101 605 101 613 c 0
 101 615 101 618 102 620 c 2
 119 655 l 2
 123 663 130 668 138 668 c 0
 140 668 142 667 144 666 c 2
 338 552 l 1
EndSplineSet
Validated: 1
EndChar

StartChar: Oacute
Encoding: 211 211 144
Width: 500
GlyphClass: 2
Flags: W
HStem: -12 93<189.961 312.247> 402 94<189.239 312.247> 521 21G<167.968 233.053>
VStem: 21 117<139.537 344.283> 363 117<137.837 345.76>
LayerCount: 2
Fore
SplineSet
251 81 m 0
 319 81 363 138 363 242 c 0
 363 346 319 402 251 402 c 0
 183 402 138 345 138 242 c 0
 138 139 184 81 251 81 c 0
480 242 m 0
 480 93 384 -12 251 -12 c 0
 119 -12 21 93 21 242 c 0
 21 391 116 496 251 496 c 0
 384 496 480 390 480 242 c 0
163 552 m 1
 357 666 l 2
 359 667 361 668 363 668 c 0
 371 668 378 663 382 655 c 2
 399 620 l 2
 400 618 401 615 401 613 c 0
 401 605 396 599 390 597 c 2
 177 521 l 1
 163 552 l 1
EndSplineSet
Validated: 1
EndChar

StartChar: Ocircumflex
Encoding: 212 212 145
Width: 500
GlyphClass: 2
Flags: W
HStem: -12 93<189.961 312.247> 402 94<189.239 312.247> 533 21G<122.5 129 373 379.5>
VStem: 21 117<139.537 344.283> 363 117<137.837 345.76>
LayerCount: 2
Fore
SplineSet
251 81 m 0
 319 81 363 138 363 242 c 0
 363 346 319 402 251 402 c 0
 183 402 138 345 138 242 c 0
 138 139 184 81 251 81 c 0
480 242 m 0
 480 93 384 -12 251 -12 c 0
 119 -12 21 93 21 242 c 0
 21 391 116 496 251 496 c 0
 384 496 480 390 480 242 c 0
276 653 m 2
 388 564 l 2
 391 562 393 557 393 553 c 0
 393 544 385 533 374 533 c 0
 372 533 370 534 368 535 c 2
 251 589 l 1
 134 535 l 2
 132 534 130 533 128 533 c 0
 117 533 108 544 108 553 c 0
 108 557 110 562 113 564 c 2
 226 653 l 2
 233 658 241 661 251 661 c 0
 261 661 269 658 276 653 c 2
EndSplineSet
Validated: 1
EndChar

StartChar: Otilde
Encoding: 213 213 146
Width: 500
GlyphClass: 2
Flags: W
HStem: -12 93<189.961 312.247> 402 94<189.239 312.247> 558 57<224.351 367.193> 582 57<132.666 277.55>
VStem: 21 117<139.537 344.283> 363 117<137.837 345.76>
LayerCount: 2
Fore
SplineSet
251 81 m 0xcc
 319 81 363 138 363 242 c 0
 363 346 319 402 251 402 c 0
 183 402 138 345 138 242 c 0
 138 139 184 81 251 81 c 0xcc
480 242 m 0
 480 93 384 -12 251 -12 c 0
 119 -12 21 93 21 242 c 0
 21 391 116 496 251 496 c 0
 384 496 480 390 480 242 c 0
292 621 m 2
 306 618 318 615 326 615 c 0
 358 615 364 643 382 643 c 0
 392 643 399 637 399 626 c 0
 399 599 362 558 305 558 c 0xec
 290 558 274 560 256 564 c 2
 210 577 l 2
 198 580 186 582 175 582 c 0
 143 582 136 554 118 554 c 0
 107 554 102 560 102 571 c 0
 102 598 139 639 197 639 c 0xdc
 213 639 228 637 245 633 c 2
 292 621 l 2
EndSplineSet
Validated: 1
EndChar

StartChar: Odieresis
Encoding: 214 214 147
Width: 500
GlyphClass: 2
Flags: W
HStem: -12 93<189.961 312.247> 402 94<189.239 312.247> 543 104<109.388 191.18 311.004 392.819>
VStem: 21 117<139.537 344.283> 98 103<553.387 635.687> 300 103<552.66 636.164> 363 117<137.837 345.76>
LayerCount: 2
Fore
SplineSet
251 81 m 0xf2
 319 81 363 138 363 242 c 0
 363 346 319 402 251 402 c 0
 183 402 138 345 138 242 c 0
 138 139 184 81 251 81 c 0xf2
480 242 m 0
 480 93 384 -12 251 -12 c 0
 119 -12 21 93 21 242 c 0
 21 391 116 496 251 496 c 0
 384 496 480 390 480 242 c 0
98 595 m 0xe8
 98 622 123 647 151 647 c 0
 179 647 201 623 201 595 c 0
 201 564 180 543 151 543 c 0
 122 543 98 566 98 595 c 0xe8
300 595 m 0xe4
 300 622 324 647 352 647 c 0
 380 647 403 623 403 595 c 0
 403 564 381 543 352 543 c 0
 323 543 300 566 300 595 c 0xe4
EndSplineSet
Validated: 1
EndChar

StartChar: multiply
Encoding: 215 215 148
Width: 500
GlyphClass: 2
Flags: W
LayerCount: 2
Fore
SplineSet
252 322 m 1
 348 418 l 2
 357 427 368 432 378 432 c 0
 402 432 420 415 420 393 c 0
 420 381 415 369 406 360 c 2
 310 264 l 1
 409 165 l 2
 418 156 423 143 423 133 c 0
 423 110 404 92 382 92 c 0
 370 92 358 97 350 105 c 2
 250 205 l 1
 155 109 l 2
 146 100 134 95 122 95 c 0
 101 95 82 114 82 136 c 0
 82 147 87 158 97 168 c 2
 192 263 l 1
 92 363 l 2
 83 372 78 384 78 396 c 0
 78 417 98 438 119 438 c 0
 130 438 142 432 152 422 c 2
 252 322 l 1
EndSplineSet
Validated: 1
EndChar

StartChar: Oslash
Encoding: 216 216 149
Width: 500
GlyphClass: 2
Flags: W
HStem: -12 93<199.025 311.763> 402 94<188.845 300.429>
VStem: 21 117<147.659 344.283> 363 117<139.322 338.985>
LayerCount: 2
Fore
SplineSet
155 146 m 1
 301 388 l 1
 283 397 265 402 248 402 c 0
 183 402 138 345 138 242 c 0
 138 207 143 176 155 146 c 1
344 341 m 1
 198 97 l 1
 216 87 231 81 249 81 c 0
 318 81 363 138 363 242 c 0
 363 277 360 309 344 341 c 1
352 472 m 1
 376 511 l 2
 384 523 390 529 402 529 c 0
 418 529 436 513 436 499 c 0
 436 495 434 490 432 486 c 2
 402 438 l 1
 454 387 480 322 480 242 c 0
 480 93 384 -12 251 -12 c 0
 213 -12 181 -5 148 12 c 1
 117 -37 l 2
 109 -49 104 -56 91 -56 c 0
 75 -56 56 -40 56 -26 c 0
 56 -21 58 -16 60 -12 c 2
 98 48 l 1
 47 100 21 165 21 242 c 0
 21 391 116 496 251 496 c 0
 287 496 318 488 352 472 c 1
EndSplineSet
Validated: 1
EndChar

StartChar: Ugrave
Encoding: 217 217 150
Width: 500
GlyphClass: 2
Flags: W
HStem: -12 88<188.094 315.694> 392 90<15.062 62 167 212.726 293.022 338 440 486.19> 521 21G<268.211 333.032>
VStem: 10 208<396.828 477.227> 62 105<99.3837 392> 288 203<396.364 477.654> 338 102<100.62 392>
LayerCount: 2
Fore
SplineSet
62 392 m 1xea
 55 392 l 2
 26 392 10 409 10 438 c 0xf0
 10 471 27 482 62 482 c 2
 167 482 l 2xe8
 202 482 218 471 218 438 c 0xf0
 218 409 202 392 173 392 c 2
 167 392 l 1
 167 180 l 2
 167 108 187 76 252 76 c 0
 315 76 338 108 338 180 c 2
 338 392 l 1xea
 332 392 l 2
 303 392 288 409 288 438 c 0xe4
 288 471 303 482 338 482 c 2
 440 482 l 2xe2
 475 482 491 471 491 438 c 0xe4
 491 409 476 392 447 392 c 2
 440 392 l 1
 440 182 l 2
 440 50 388 -12 253 -12 c 0
 113 -12 62 47 62 182 c 2
 62 392 l 1xea
338 552 m 1xe2
 324 521 l 1
 112 597 l 2
 106 599 101 605 101 613 c 0
 101 615 101 618 102 620 c 2
 119 655 l 2
 123 663 130 668 138 668 c 0
 140 668 142 667 144 666 c 2
 338 552 l 1xe2
EndSplineSet
Validated: 1
EndChar

StartChar: Uacute
Encoding: 218 218 151
Width: 500
GlyphClass: 2
Flags: W
HStem: -12 88<188.094 315.694> 392 90<15.062 62 167 212.726 293.022 338 440 486.19> 521 21G<167.968 233.053>
VStem: 10 208<396.828 477.227> 62 105<99.3837 392> 288 203<396.364 477.654> 338 102<100.62 392>
LayerCount: 2
Fore
SplineSet
62 392 m 1xea
 55 392 l 2
 26 392 10 409 10 438 c 0xf0
 10 471 27 482 62 482 c 2
 167 482 l 2xe8
 202 482 218 471 218 438 c 0xf0
 218 409 202 392 173 392 c 2
 167 392 l 1
 167 180 l 2
 167 108 187 76 252 76 c 0
 315 76 338 108 338 180 c 2
 338 392 l 1xea
 332 392 l 2
 303 392 288 409 288 438 c 0xe4
 288 471 303 482 338 482 c 2
 440 482 l 2xe2
 475 482 491 471 491 438 c 0xe4
 491 409 476 392 447 392 c 2
 440 392 l 1
 440 182 l 2
 440 50 388 -12 253 -12 c 0
 113 -12 62 47 62 182 c 2
 62 392 l 1xea
163 552 m 1
 357 666 l 2
 359 667 361 668 363 668 c 0
 371 668 378 663 382 655 c 2
 399 620 l 2
 400 618 401 615 401 613 c 0
 401 605 396 599 390 597 c 2
 177 521 l 1
 163 552 l 1
EndSplineSet
Validated: 1
EndChar

StartChar: Ucircumflex
Encoding: 219 219 152
Width: 500
GlyphClass: 2
Flags: W
HStem: -12 88<188.094 315.694> 392 90<15.062 62 167 212.726 293.022 338 440 486.19> 533 21G<122.5 129 373 379.5>
VStem: 10 208<396.828 477.227> 62 105<99.3837 392> 288 203<396.364 477.654> 338 102<100.62 392>
LayerCount: 2
Fore
SplineSet
62 392 m 1xea
 55 392 l 2
 26 392 10 409 10 438 c 0xf0
 10 471 27 482 62 482 c 2
 167 482 l 2xe8
 202 482 218 471 218 438 c 0xf0
 218 409 202 392 173 392 c 2
 167 392 l 1
 167 180 l 2
 167 108 187 76 252 76 c 0
 315 76 338 108 338 180 c 2
 338 392 l 1xea
 332 392 l 2
 303 392 288 409 288 438 c 0xe4
 288 471 303 482 338 482 c 2
 440 482 l 2xe2
 475 482 491 471 491 438 c 0xe4
 491 409 476 392 447 392 c 2
 440 392 l 1
 440 182 l 2
 440 50 388 -12 253 -12 c 0
 113 -12 62 47 62 182 c 2
 62 392 l 1xea
276 653 m 2
 388 564 l 2
 391 562 393 557 393 553 c 0
 393 544 385 533 374 533 c 0
 372 533 370 534 368 535 c 2
 251 589 l 1
 134 535 l 2
 132 534 130 533 128 533 c 0
 117 533 108 544 108 553 c 0
 108 557 110 562 113 564 c 2
 226 653 l 2
 233 658 241 661 251 661 c 0
 261 661 269 658 276 653 c 2
EndSplineSet
Validated: 1
EndChar

StartChar: Udieresis
Encoding: 220 220 153
Width: 500
GlyphClass: 2
Flags: W
HStem: -12 88<188.094 315.694> 392 90<15.062 62 167 212.726 293.022 338 440 486.19> 543 104<109.388 191.18 311.004 392.819>
VStem: 10 208<396.828 477.227> 62 105<99.3837 392> 98 103<553.387 635.687> 288 203<396.364 477.654> 300 103<552.66 636.164> 338 102<100.62 392>
LayerCount: 2
Fore
SplineSet
62 392 m 1xe880
 55 392 l 2
 26 392 10 409 10 438 c 0xf0
 10 471 27 482 62 482 c 2
 167 482 l 2xe8
 202 482 218 471 218 438 c 0xf0
 218 409 202 392 173 392 c 2
 167 392 l 1
 167 180 l 2
 167 108 187 76 252 76 c 0
 315 76 338 108 338 180 c 2
 338 392 l 1xe880
 332 392 l 2
 303 392 288 409 288 438 c 0xe2
 288 471 303 482 338 482 c 2
 440 482 l 2xe080
 475 482 491 471 491 438 c 0xe2
 491 409 476 392 447 392 c 2
 440 392 l 1
 440 182 l 2
 440 50 388 -12 253 -12 c 0
 113 -12 62 47 62 182 c 2
 62 392 l 1xe880
98 595 m 0xe4
 98 622 123 647 151 647 c 0
 179 647 201 623 201 595 c 0
 201 564 180 543 151 543 c 0
 122 543 98 566 98 595 c 0xe4
300 595 m 0xe1
 300 622 324 647 352 647 c 0
 380 647 403 623 403 595 c 0
 403 564 381 543 352 543 c 0
 323 543 300 566 300 595 c 0xe1
EndSplineSet
Validated: 1
EndChar

StartChar: Yacute
Encoding: 221 221 154
Width: 500
GlyphClass: 2
Flags: W
HStem: 0 89<98.0342 198 303 403.479> 392 90<37.0267 82 191 229.801 279.911 315 412 457.226> 521 21G<167.968 233.053>
VStem: 32 202<396.828 477.886> 198 105<89 178> 276 186<396.364 477.886>
LayerCount: 2
Fore
SplineSet
82 392 m 1xe8
 76 392 l 2
 48 392 32 409 32 438 c 0
 32 472 49 482 82 482 c 2
 189 482 l 2
 219 482 234 472 234 438 c 0
 234 408 221 392 195 392 c 2
 191 392 l 1
 254 260 l 1
 315 392 l 1
 313 392 l 2
 288 392 276 409 276 438 c 0
 276 472 290 482 320 482 c 2
 412 482 l 2
 446 482 462 472 462 438 c 0xf4
 462 409 447 392 419 392 c 2
 412 392 l 1
 303 189 l 1
 303 89 l 1
 357 89 l 2
 391 89 408 79 408 45 c 0
 408 13 391 0 356 0 c 2
 145 0 l 2
 111 0 94 11 94 45 c 0
 94 79 111 89 145 89 c 2
 198 89 l 1
 198 178 l 1
 82 392 l 1xe8
163 552 m 1
 357 666 l 2
 359 667 361 668 363 668 c 0
 371 668 378 663 382 655 c 2
 399 620 l 2
 400 618 401 615 401 613 c 0
 401 605 396 599 390 597 c 2
 177 521 l 1
 163 552 l 1
EndSplineSet
Validated: 1
EndChar

StartChar: Thorn
Encoding: 222 222 155
Width: 500
GlyphClass: 2
Flags: W
HStem: 0 76<61.1295 107 207 294.688> 113 76<207 325.65> 292 77<207 329.748> 407 75<60.7892 107 207 281.211>
VStem: 58 240<3.7494 73.267> 58 226<410.87 479.93> 107 100<76 113 189 292 369 407> 338 100<200.349 282.146>
LayerCount: 2
Fore
SplineSet
207 292 m 1xf3
 207 189 l 1
 258 189 l 2
 313 189 338 204 338 241 c 0
 338 279 313 292 258 292 c 2
 207 292 l 1xf3
107 407 m 1
 99 407 l 2
 71 407 58 420 58 445 c 0xf5
 58 467 73 482 91 482 c 2
 107 482 l 1xf3
 234 482 l 1
 252 482 l 2
 269 482 284 467 284 445 c 0xf5
 284 417 267 407 234 407 c 2
 207 407 l 1
 207 369 l 1
 268 369 l 2
 381 369 438 324 438 244 c 0
 438 161 381 113 268 113 c 2
 207 113 l 1
 207 76 l 1xf3
 248 76 l 1
 263 76 l 2
 281 76 298 61 298 38 c 0xf9
 298 8 280 0 248 0 c 2
 107 0 l 1xf3
 91 0 l 2
 73 0 58 16 58 38 c 0xf9
 58 63 71 76 99 76 c 2
 107 76 l 1
 107 407 l 1
EndSplineSet
Validated: 1
EndChar

StartChar: germandbls
Encoding: 223 223 156
Width: 500
GlyphClass: 2
Flags: W
HStem: -10 86<229.389 332.662> 0 89<14.227 85> 451 81<201.523 296.629>
VStem: 10 175<4.875 84.4757> 85 100<89 436.463> 308 106<348.79 441.332> 355 106<95.4955 241.904>
LayerCount: 2
Fore
SplineSet
185 341 m 2xac
 185 18 l 2
 185 7 177 0 162 0 c 2
 62 0 l 2
 28 0 10 11 10 45 c 0x70
 10 79 28 89 62 89 c 2
 85 89 l 1
 85 366 l 2
 85 482 132 532 255 532 c 0
 357 532 414 488 414 411 c 0x6c
 414 363 390 330 343 314 c 1
 419 299 461 244 461 160 c 0
 461 52 399 -10 296 -10 c 0
 244 -10 222 5 222 38 c 0
 222 63 238 77 268 77 c 0
 273 77 278 76 284 76 c 0
 332 76 355 107 355 169 c 0xa2
 355 226 330 261 286 270 c 0
 250 278 224 273 224 308 c 0
 224 330 235 337 263 342 c 0
 294 347 308 359 308 389 c 0
 308 429 289 451 252 451 c 0
 193 451 185 413 185 341 c 2xac
EndSplineSet
Validated: 1
EndChar

StartChar: agrave
Encoding: 224 224 157
Width: 500
GlyphClass: 2
Flags: W
HStem: -10 82<161.647 286.115> 0 89<417 463.221> 177 63<170.775 316.643> 314 73<175.069 302.053>
VStem: 43 110<81.5105 157.846> 318 99<92.1416 172.351 232 298.079>
LayerCount: 2
Fore
SplineSet
417 240 m 2xbc
 417 89 l 1
 423 89 l 2
 452 89 468 73 468 44 c 0
 468 12 452 0 417 0 c 2
 378 0 l 2x7c
 352 0 341 8 332 36 c 1
 287 6 235 -10 183 -10 c 0
 95 -10 43 36 43 112 c 0
 43 193 110 240 228 240 c 0
 256 240 286 238 318 232 c 1
 318 239 l 2
 318 288 294 314 248 314 c 0
 196 314 158 274 120 274 c 0
 91 274 76 291 76 315 c 0
 76 357 142 387 255 387 c 0
 377 387 417 340 417 240 c 2xbc
318 105 m 1
 318 168 l 1
 292 174 270 177 250 177 c 0
 188 177 153 156 153 117 c 0
 153 89 176 72 217 72 c 0xbc
 255 72 286 83 318 105 c 1
329 442 m 1
 315 411 l 1
 102 487 l 2
 96 489 92 495 92 503 c 0
 92 505 92 508 93 510 c 2
 110 545 l 2
 114 553 121 558 129 558 c 0
 131 558 133 557 135 556 c 2
 329 442 l 1
EndSplineSet
Validated: 1
EndChar

StartChar: aacute
Encoding: 225 225 158
Width: 500
GlyphClass: 2
Flags: W
HStem: -10 82<161.647 286.115> 0 89<417 463.221> 177 63<170.775 316.643> 314 73<175.069 302.053>
VStem: 43 110<81.5105 157.846> 318 99<92.1416 172.351 232 298.079>
LayerCount: 2
Fore
SplineSet
417 240 m 2xbc
 417 89 l 1
 423 89 l 2
 452 89 468 73 468 44 c 0
 468 12 452 0 417 0 c 2
 378 0 l 2x7c
 352 0 341 8 332 36 c 1
 287 6 235 -10 183 -10 c 0
 95 -10 43 36 43 112 c 0
 43 193 110 240 228 240 c 0
 256 240 286 238 318 232 c 1
 318 239 l 2
 318 288 294 314 248 314 c 0
 196 314 158 274 120 274 c 0
 91 274 76 291 76 315 c 0
 76 357 142 387 255 387 c 0
 377 387 417 340 417 240 c 2xbc
318 105 m 1
 318 168 l 1
 292 174 270 177 250 177 c 0
 188 177 153 156 153 117 c 0
 153 89 176 72 217 72 c 0xbc
 255 72 286 83 318 105 c 1
154 442 m 1
 348 556 l 2
 350 557 352 558 354 558 c 0
 362 558 369 553 373 545 c 2
 390 510 l 2
 391 508 392 505 392 503 c 0
 392 495 387 489 381 487 c 2
 168 411 l 1
 154 442 l 1
EndSplineSet
Validated: 1
EndChar

StartChar: acircumflex
Encoding: 226 226 159
Width: 500
GlyphClass: 2
Flags: W
HStem: -10 82<161.647 286.115> 0 89<417 463.221> 177 63<170.775 316.643> 314 73<175.069 302.053>
VStem: 43 110<81.5105 157.846> 318 99<92.1416 172.351 232 298.079>
LayerCount: 2
Fore
SplineSet
417 240 m 2xbc
 417 89 l 1
 423 89 l 2
 452 89 468 73 468 44 c 0
 468 12 452 0 417 0 c 2
 378 0 l 2x7c
 352 0 341 8 332 36 c 1
 287 6 235 -10 183 -10 c 0
 95 -10 43 36 43 112 c 0
 43 193 110 240 228 240 c 0
 256 240 286 238 318 232 c 1
 318 239 l 2
 318 288 294 314 248 314 c 0
 196 314 158 274 120 274 c 0
 91 274 76 291 76 315 c 0
 76 357 142 387 255 387 c 0
 377 387 417 340 417 240 c 2xbc
318 105 m 1
 318 168 l 1
 292 174 270 177 250 177 c 0
 188 177 153 156 153 117 c 0
 153 89 176 72 217 72 c 0xbc
 255 72 286 83 318 105 c 1
267 543 m 2
 379 454 l 2
 382 452 384 447 384 443 c 0
 384 434 376 423 365 423 c 0
 363 423 360 424 358 425 c 2
 242 479 l 1
 125 425 l 2
 123 424 120 423 118 423 c 0
 107 423 99 434 99 443 c 0
 99 447 101 452 104 454 c 2
 217 543 l 2
 224 548 232 551 242 551 c 0
 252 551 260 548 267 543 c 2
EndSplineSet
Validated: 1
EndChar

StartChar: atilde
Encoding: 227 227 160
Width: 500
GlyphClass: 2
Flags: W
HStem: -10 82<161.647 286.115> 0 89<417 463.221> 177 63<170.775 316.643> 314 73<175.069 302.053> 448 57<215.351 358.193> 472 57<123.666 268.566>
VStem: 43 110<81.5105 157.846> 318 99<92.1416 172.351 232 298.079>
LayerCount: 2
Fore
SplineSet
417 240 m 2xb3
 417 89 l 1
 423 89 l 2
 452 89 468 73 468 44 c 0
 468 12 452 0 417 0 c 2
 378 0 l 2x73
 352 0 341 8 332 36 c 1
 287 6 235 -10 183 -10 c 0
 95 -10 43 36 43 112 c 0
 43 193 110 240 228 240 c 0
 256 240 286 238 318 232 c 1
 318 239 l 2
 318 288 294 314 248 314 c 0
 196 314 158 274 120 274 c 0
 91 274 76 291 76 315 c 0
 76 357 142 387 255 387 c 0
 377 387 417 340 417 240 c 2xb3
318 105 m 1
 318 168 l 1
 292 174 270 177 250 177 c 0
 188 177 153 156 153 117 c 0
 153 89 176 72 217 72 c 0xb3
 255 72 286 83 318 105 c 1
282 511 m 2
 296 508 309 505 317 505 c 0
 349 505 355 533 373 533 c 0
 383 533 390 527 390 516 c 0
 390 489 353 448 296 448 c 0x3b
 281 448 265 450 247 454 c 2
 201 467 l 2
 189 470 177 472 166 472 c 0
 134 472 127 444 109 444 c 0
 98 444 93 450 93 461 c 0
 93 488 130 529 188 529 c 0x37
 204 529 219 527 236 523 c 2
 282 511 l 2
EndSplineSet
Validated: 1
EndChar

StartChar: adieresis
Encoding: 228 228 161
Width: 500
GlyphClass: 2
Flags: W
HStem: -10 82<161.647 286.115> 0 89<417 463.221> 177 63<170.775 316.643> 314 73<175.069 302.053> 433 104<100.388 182.18 302.004 383.819>
VStem: 43 110<81.5105 157.846> 89 103<443.387 525.687> 291 103<442.66 526.164> 318 99<92.1416 172.351 232 298.079>
LayerCount: 2
Fore
SplineSet
417 240 m 2xbc80
 417 89 l 1
 423 89 l 2
 452 89 468 73 468 44 c 0
 468 12 452 0 417 0 c 2
 378 0 l 2x7c80
 352 0 341 8 332 36 c 1
 287 6 235 -10 183 -10 c 0
 95 -10 43 36 43 112 c 0
 43 193 110 240 228 240 c 0
 256 240 286 238 318 232 c 1
 318 239 l 2
 318 288 294 314 248 314 c 0
 196 314 158 274 120 274 c 0
 91 274 76 291 76 315 c 0
 76 357 142 387 255 387 c 0
 377 387 417 340 417 240 c 2xbc80
318 105 m 1
 318 168 l 1
 292 174 270 177 250 177 c 0
 188 177 153 156 153 117 c 0
 153 89 176 72 217 72 c 0xbc80
 255 72 286 83 318 105 c 1
89 485 m 0x3a
 89 512 114 537 142 537 c 0
 170 537 192 513 192 485 c 0
 192 454 171 433 142 433 c 0
 113 433 89 456 89 485 c 0x3a
291 485 m 0x39
 291 512 315 537 343 537 c 0
 371 537 394 513 394 485 c 0
 394 454 372 433 343 433 c 0
 314 433 291 456 291 485 c 0x39
EndSplineSet
Validated: 1
EndChar

StartChar: aring
Encoding: 229 229 162
Width: 500
GlyphClass: 2
Flags: W
HStem: -10 82<161.647 286.115> 0 89<417 463.221> 177 63<170.775 316.643> 314 73<175.069 302.053> 417 58<208.225 289.947> 579 58<207.664 290.321>
VStem: 43 110<81.5105 157.846> 139 59<485.503 569.733> 301 58<485.88 568.128> 318 99<92.1416 172.351 232 298.079>
LayerCount: 2
Fore
SplineSet
417 240 m 2xbe40
 417 89 l 1
 423 89 l 2
 452 89 468 73 468 44 c 0
 468 12 452 0 417 0 c 2
 378 0 l 2x7e40
 352 0 341 8 332 36 c 1
 287 6 235 -10 183 -10 c 0
 95 -10 43 36 43 112 c 0
 43 193 110 240 228 240 c 0
 256 240 286 238 318 232 c 1
 318 239 l 2
 318 288 294 314 248 314 c 0
 196 314 158 274 120 274 c 0
 91 274 76 291 76 315 c 0
 76 357 142 387 255 387 c 0
 377 387 417 340 417 240 c 2xbe40
318 105 m 1
 318 168 l 1
 292 174 270 177 250 177 c 0
 188 177 153 156 153 117 c 0
 153 89 176 72 217 72 c 0xbe40
 255 72 286 83 318 105 c 1
139 527 m 0x3d80
 139 588 187 637 249 637 c 0
 310 637 359 588 359 527 c 0
 359 465 310 417 249 417 c 0
 188 417 139 465 139 527 c 0x3d80
198 528 m 0
 198 499 220 475 249 475 c 0
 277 475 301 499 301 528 c 0
 301 556 277 579 249 579 c 0
 220 579 198 556 198 528 c 0
EndSplineSet
Validated: 1
EndChar

StartChar: ae
Encoding: 230 230 163
Width: 500
GlyphClass: 2
Flags: W
HStem: -10 81<105.664 204.78 334.663 423.815> 164 64<107.384 219 313 406> 307 79<93.0901 203.457 327.697 390.851>
VStem: 3 96<78.0741 155.844> 219 94<92.7292 164 228 292.726>
LayerCount: 2
Fore
SplineSet
313 228 m 1
 406 228 l 1
 402 280 384 307 359 307 c 0
 334 307 317 280 313 228 c 1
219 104 m 1
 219 164 l 1
 156 164 l 2
 119 164 99 148 99 119 c 0
 99 89 116 71 146 71 c 0
 176 71 198 84 219 104 c 1
264 336 m 1
 289 369 323 386 365 386 c 0
 446 386 500 310 500 204 c 0
 500 172 491 164 461 164 c 2
 313 164 l 1
 314 105 335 77 377 77 c 0
 426 77 446 119 468 119 c 0
 483 119 500 100 500 82 c 0
 500 43 442 -10 369 -10 c 0
 320 -10 282 11 257 52 c 1
 223 13 168 -10 116 -10 c 0
 47 -10 3 35 3 109 c 0
 3 187 53 228 149 228 c 2
 219 228 l 1
 219 232 l 2
 219 279 195 307 159 307 c 0
 124 307 94 278 62 278 c 0
 40 278 28 292 28 313 c 0
 28 354 81 386 156 386 c 0
 203 386 236 371 264 336 c 1
EndSplineSet
Validated: 1
EndChar

StartChar: ccedilla
Encoding: 231 231 164
Width: 500
GlyphClass: 2
Flags: W
HStem: -194 40<175.039 284.281> -10 10<225 260> 212 175<377.389 447.966> 299 87<193.679 336.672>
VStem: 37 113<119.034 257.194> 225 35<-54 0> 287 77<-151.797 -92.1657>
LayerCount: 2
Fore
SplineSet
372 354 m 1xde
 380 376 392 387 413 387 c 0
 445 387 453 367 453 327 c 2
 453 260 l 2
 453 228 441 212 412 212 c 0xee
 390 212 379 223 366 245 c 0
 344 282 310 299 258 299 c 0
 194 299 150 251 150 188 c 0
 150 122 194 76 266 76 c 0
 349 76 386 129 419 129 c 0
 439 129 455 112 455 88 c 0
 455 40 371 -10 258 -10 c 0
 123 -10 37 76 37 188 c 0
 37 300 126 386 252 386 c 0
 295 386 334 375 372 354 c 1xde
260 0 m 1
 260 -54 l 1
 274 -52 283 -51 289 -51 c 0
 333 -51 364 -80 364 -121 c 0
 364 -167 328 -194 264 -194 c 0
 209 -194 150 -171 150 -148 c 0
 150 -139 157 -133 168 -133 c 0
 183 -133 211 -154 249 -154 c 0
 274 -154 287 -142 287 -120 c 0
 287 -100 272 -89 246 -89 c 0
 242 -89 236 -90 225 -92 c 1
 225 0 l 1
 260 0 l 1
EndSplineSet
Validated: 5
EndChar

StartChar: egrave
Encoding: 232 232 165
Width: 500
GlyphClass: 2
Flags: W
HStem: -10 84<182.582 355.578> 164 64<140 359> 307 78<176.385 323.87>
LayerCount: 2
Fore
SplineSet
140 164 m 1
 154 103 194 74 262 74 c 0
 350 74 388 123 418 123 c 0
 440 123 455 107 455 83 c 0
 455 36 377 -10 258 -10 c 0
 124 -10 37 76 37 188 c 0
 37 300 123 385 258 385 c 0
 381 385 462 301 462 206 c 0
 462 170 444 164 402 164 c 2
 140 164 l 1
140 228 m 1
 359 228 l 1
 350 279 310 307 249 307 c 0
 190 307 154 281 140 228 c 1
347 442 m 1
 332 411 l 1
 120 487 l 2
 114 489 109 495 109 503 c 0
 109 505 110 508 111 510 c 2
 128 545 l 2
 132 553 139 558 147 558 c 0
 149 558 150 557 152 556 c 2
 347 442 l 1
EndSplineSet
Validated: 1
EndChar

StartChar: eacute
Encoding: 233 233 166
Width: 500
GlyphClass: 2
Flags: W
HStem: -10 84<182.582 355.578> 164 64<140 359> 307 78<176.385 323.87>
LayerCount: 2
Fore
SplineSet
140 164 m 1
 154 103 194 74 262 74 c 0
 350 74 388 123 418 123 c 0
 440 123 455 107 455 83 c 0
 455 36 377 -10 258 -10 c 0
 124 -10 37 76 37 188 c 0
 37 300 123 385 258 385 c 0
 381 385 462 301 462 206 c 0
 462 170 444 164 402 164 c 2
 140 164 l 1
140 228 m 1
 359 228 l 1
 350 279 310 307 249 307 c 0
 190 307 154 281 140 228 c 1
172 442 m 1
 365 556 l 2
 367 557 370 558 372 558 c 0
 380 558 387 553 391 545 c 2
 408 510 l 2
 409 508 409 505 409 503 c 0
 409 495 404 489 398 487 c 2
 185 411 l 1
 172 442 l 1
EndSplineSet
Validated: 1
EndChar

StartChar: ecircumflex
Encoding: 234 234 167
Width: 500
GlyphClass: 2
Flags: W
HStem: -10 84<182.582 355.578> 164 64<140 359> 307 78<176.385 323.87>
LayerCount: 2
Fore
SplineSet
140 164 m 1
 154 103 194 74 262 74 c 0
 350 74 388 123 418 123 c 0
 440 123 455 107 455 83 c 0
 455 36 377 -10 258 -10 c 0
 124 -10 37 76 37 188 c 0
 37 300 123 385 258 385 c 0
 381 385 462 301 462 206 c 0
 462 170 444 164 402 164 c 2
 140 164 l 1
140 228 m 1
 359 228 l 1
 350 279 310 307 249 307 c 0
 190 307 154 281 140 228 c 1
284 543 m 2
 397 454 l 2
 400 452 402 447 402 443 c 0
 402 434 393 423 382 423 c 0
 380 423 378 424 376 425 c 2
 259 479 l 1
 142 425 l 2
 140 424 138 423 136 423 c 0
 125 423 117 434 117 443 c 0
 117 447 119 452 122 454 c 2
 234 543 l 2
 241 548 249 551 259 551 c 0
 269 551 277 548 284 543 c 2
EndSplineSet
Validated: 1
EndChar

StartChar: edieresis
Encoding: 235 235 168
Width: 500
GlyphClass: 2
Flags: W
HStem: -10 84<182.582 355.578> 164 64<140 359> 307 78<176.385 323.87> 433 104<118.004 199.18 319.388 401.819>
VStem: 107 102<442.66 526.164> 308 104<443.387 525.687>
LayerCount: 2
Fore
SplineSet
140 164 m 1
 154 103 194 74 262 74 c 0
 350 74 388 123 418 123 c 0
 440 123 455 107 455 83 c 0
 455 36 377 -10 258 -10 c 0
 124 -10 37 76 37 188 c 0
 37 300 123 385 258 385 c 0
 381 385 462 301 462 206 c 0
 462 170 444 164 402 164 c 2
 140 164 l 1
140 228 m 1
 359 228 l 1
 350 279 310 307 249 307 c 0
 190 307 154 281 140 228 c 1
107 485 m 0
 107 512 131 537 159 537 c 0
 187 537 209 513 209 485 c 0
 209 454 188 433 159 433 c 0
 130 433 107 456 107 485 c 0
308 485 m 0
 308 512 333 537 361 537 c 0
 389 537 412 513 412 485 c 0
 412 454 390 433 361 433 c 0
 332 433 308 456 308 485 c 0
EndSplineSet
Validated: 1
EndChar

StartChar: igrave
Encoding: 236 236 169
Width: 500
GlyphClass: 2
Flags: W
HStem: 0 89<72.227 208 308 442.773> 287 89<115.034 208>
VStem: 208 100<89 287>
LayerCount: 2
Fore
SplineSet
284 376 m 2
 299 376 308 369 308 358 c 2
 308 89 l 1
 395 89 l 2
 429 89 447 79 447 45 c 0
 447 11 429 0 395 0 c 2
 120 0 l 2
 86 0 68 11 68 45 c 0
 68 79 86 89 120 89 c 2
 208 89 l 1
 208 287 l 1
 162 287 l 2
 128 287 111 298 111 332 c 0
 111 366 128 376 162 376 c 2
 284 376 l 2
338 442 m 1
 324 411 l 1
 112 487 l 2
 106 489 101 495 101 503 c 0
 101 505 101 508 102 510 c 2
 119 545 l 2
 123 553 130 558 138 558 c 0
 140 558 142 557 144 556 c 2
 338 442 l 1
EndSplineSet
Validated: 1
EndChar

StartChar: iacute
Encoding: 237 237 170
Width: 500
GlyphClass: 2
Flags: W
HStem: 0 89<72.227 208 308 442.773> 287 89<115.034 208>
VStem: 208 100<89 287>
LayerCount: 2
Fore
SplineSet
284 376 m 2
 299 376 308 369 308 358 c 2
 308 89 l 1
 395 89 l 2
 429 89 447 79 447 45 c 0
 447 11 429 0 395 0 c 2
 120 0 l 2
 86 0 68 11 68 45 c 0
 68 79 86 89 120 89 c 2
 208 89 l 1
 208 287 l 1
 162 287 l 2
 128 287 111 298 111 332 c 0
 111 366 128 376 162 376 c 2
 284 376 l 2
163 442 m 1
 357 556 l 2
 359 557 361 558 363 558 c 0
 371 558 378 553 382 545 c 2
 399 510 l 2
 400 508 401 505 401 503 c 0
 401 495 396 489 390 487 c 2
 177 411 l 1
 163 442 l 1
EndSplineSet
Validated: 1
EndChar

StartChar: icircumflex
Encoding: 238 238 171
Width: 500
GlyphClass: 2
Flags: W
HStem: 0 89<72.227 208 308 442.773> 287 89<115.034 208>
VStem: 208 100<89 287>
LayerCount: 2
Fore
SplineSet
284 376 m 2
 299 376 308 369 308 358 c 2
 308 89 l 1
 395 89 l 2
 429 89 447 79 447 45 c 0
 447 11 429 0 395 0 c 2
 120 0 l 2
 86 0 68 11 68 45 c 0
 68 79 86 89 120 89 c 2
 208 89 l 1
 208 287 l 1
 162 287 l 2
 128 287 111 298 111 332 c 0
 111 366 128 376 162 376 c 2
 284 376 l 2
276 543 m 2
 388 454 l 2
 391 452 393 447 393 443 c 0
 393 434 385 423 374 423 c 0
 372 423 370 424 368 425 c 2
 251 479 l 1
 134 425 l 2
 132 424 130 423 128 423 c 0
 117 423 108 434 108 443 c 0
 108 447 110 452 113 454 c 2
 226 543 l 2
 233 548 241 551 251 551 c 0
 261 551 269 548 276 543 c 2
EndSplineSet
Validated: 1
EndChar

StartChar: idieresis
Encoding: 239 239 172
Width: 500
GlyphClass: 2
Flags: W
HStem: 0 89<72.227 208 308 442.773> 287 89<115.034 208> 433 104<109.388 191.18 311.004 392.819>
VStem: 98 103<443.387 525.687> 208 100<89 287> 300 103<442.66 526.164>
LayerCount: 2
Fore
SplineSet
284 376 m 2xf8
 299 376 308 369 308 358 c 2
 308 89 l 1
 395 89 l 2
 429 89 447 79 447 45 c 0
 447 11 429 0 395 0 c 2
 120 0 l 2
 86 0 68 11 68 45 c 0
 68 79 86 89 120 89 c 2
 208 89 l 1
 208 287 l 1
 162 287 l 2
 128 287 111 298 111 332 c 0
 111 366 128 376 162 376 c 2
 284 376 l 2xf8
98 485 m 0
 98 512 123 537 151 537 c 0
 179 537 201 513 201 485 c 0
 201 454 180 433 151 433 c 0
 122 433 98 456 98 485 c 0
300 485 m 0xf4
 300 512 324 537 352 537 c 0
 380 537 403 513 403 485 c 0
 403 454 381 433 352 433 c 0
 323 433 300 456 300 485 c 0xf4
EndSplineSet
Validated: 1
EndChar

StartChar: eth
Encoding: 240 240 173
Width: 500
GlyphClass: 2
Flags: W
HStem: -10 86<184.957 316.627> 299 81<184.697 293.482> 512 20G<158.5 185.5>
VStem: 28 114<119.464 255.187> 359 109<118.403 256.507>
LayerCount: 2
Fore
SplineSet
251 76 m 0
 315 76 359 124 359 188 c 0
 359 251 316 299 251 299 c 0
 187 299 142 252 142 188 c 0
 142 124 187 76 251 76 c 0
295 373 m 1
 281 395 263 415 241 434 c 1
 161 399 l 2
 153 396 147 393 139 393 c 0
 129 393 120 407 120 419 c 0
 120 429 127 436 141 442 c 2
 201 467 l 1
 156 500 130 507 130 517 c 0
 130 526 145 532 172 532 c 0
 199 532 224 514 265 492 c 1
 334 523 l 2
 342 526 348 529 356 529 c 0
 366 529 375 515 375 503 c 0
 375 493 367 488 354 482 c 2
 310 462 l 1
 416 377 468 286 468 188 c 0
 468 76 386 -10 251 -10 c 0
 116 -10 28 76 28 188 c 0
 28 296 114 380 242 380 c 0
 260 380 277 377 295 373 c 1
EndSplineSet
Validated: 1
EndChar

StartChar: ntilde
Encoding: 241 241 174
Width: 500
GlyphClass: 2
Flags: W
HStem: 0 90<38.425 85 186 232.575 274.657 322 422 467.807> 287 89<38.0342 85> 298 88<214.343 308.357> 448 57<224.351 367.193> 472 57<132.666 277.55>
VStem: 34 203<4.61948 85.6055> 85 101<90 273.299> 270 202<5.06713 85.155> 322 100<90 284.527>
LayerCount: 2
Fore
SplineSet
422 90 m 1xa280
 427 90 l 2
 458 90 472 75 472 45 c 0xa1
 472 12 457 0 422 0 c 2
 322 0 l 2xa080
 287 0 270 12 270 45 c 0xa1
 270 75 286 90 317 90 c 2
 322 90 l 1
 322 208 l 2
 322 267 309 298 262 298 c 0
 220 298 186 266 186 208 c 2
 186 90 l 1xa280
 191 90 l 2
 222 90 237 75 237 45 c 0xa4
 237 12 221 0 186 0 c 2
 85 0 l 2xa2
 50 0 34 12 34 45 c 0xa4
 34 75 49 90 80 90 c 2
 85 90 l 1
 85 287 l 1xc2
 78 287 l 2
 49 287 34 302 34 331 c 0xc4
 34 365 51 376 85 376 c 2
 154 376 l 2xc2
 170 376 178 369 178 358 c 2
 178 327 l 1
 204 366 240 386 292 386 c 0
 380 386 422 333 422 226 c 2
 422 90 l 1xa280
292 511 m 2
 306 508 318 505 326 505 c 0
 358 505 364 533 382 533 c 0
 392 533 399 527 399 516 c 0
 399 489 362 448 305 448 c 0x90
 290 448 274 450 256 454 c 2
 210 467 l 2
 198 470 186 472 175 472 c 0
 143 472 136 444 118 444 c 0
 107 444 102 450 102 461 c 0
 102 488 139 529 197 529 c 0x88
 213 529 228 527 245 523 c 2
 292 511 l 2
EndSplineSet
Validated: 1
EndChar

StartChar: ograve
Encoding: 242 242 175
Width: 500
GlyphClass: 2
Flags: W
HStem: -10 86<185.172 316.784> 299 86<184.957 316.999>
VStem: 28 114<119.249 256.294> 359 113<118.403 257.344>
LayerCount: 2
Fore
SplineSet
472 188 m 0
 472 76 386 -10 251 -10 c 0
 116 -10 28 76 28 188 c 0
 28 300 116 385 251 385 c 0
 386 385 472 300 472 188 c 0
251 76 m 0
 315 76 359 124 359 188 c 0
 359 252 316 299 251 299 c 0
 187 299 142 252 142 188 c 0
 142 123 188 76 251 76 c 0
338 442 m 1
 324 411 l 1
 112 487 l 2
 106 489 101 495 101 503 c 0
 101 505 101 508 102 510 c 2
 119 545 l 2
 123 553 130 558 138 558 c 0
 140 558 142 557 144 556 c 2
 338 442 l 1
EndSplineSet
Validated: 1
EndChar

StartChar: oacute
Encoding: 243 243 176
Width: 500
GlyphClass: 2
Flags: W
HStem: -10 86<185.172 316.784> 299 86<184.957 316.999>
VStem: 28 114<119.249 256.294> 359 113<118.403 257.344>
LayerCount: 2
Fore
SplineSet
472 188 m 0
 472 76 386 -10 251 -10 c 0
 116 -10 28 76 28 188 c 0
 28 300 116 385 251 385 c 0
 386 385 472 300 472 188 c 0
251 76 m 0
 315 76 359 124 359 188 c 0
 359 252 316 299 251 299 c 0
 187 299 142 252 142 188 c 0
 142 123 188 76 251 76 c 0
163 442 m 1
 357 556 l 2
 359 557 361 558 363 558 c 0
 371 558 378 553 382 545 c 2
 399 510 l 2
 400 508 401 505 401 503 c 0
 401 495 396 489 390 487 c 2
 177 411 l 1
 163 442 l 1
EndSplineSet
Validated: 1
EndChar

StartChar: ocircumflex
Encoding: 244 244 177
Width: 500
GlyphClass: 2
Flags: W
HStem: -10 86<185.172 316.784> 299 86<184.957 316.999>
VStem: 28 114<119.249 256.294> 359 113<118.403 257.344>
LayerCount: 2
Fore
SplineSet
472 188 m 0
 472 76 386 -10 251 -10 c 0
 116 -10 28 76 28 188 c 0
 28 300 116 385 251 385 c 0
 386 385 472 300 472 188 c 0
251 76 m 0
 315 76 359 124 359 188 c 0
 359 252 316 299 251 299 c 0
 187 299 142 252 142 188 c 0
 142 123 188 76 251 76 c 0
276 543 m 2
 388 454 l 2
 391 452 393 447 393 443 c 0
 393 434 385 423 374 423 c 0
 372 423 370 424 368 425 c 2
 251 479 l 1
 134 425 l 2
 132 424 130 423 128 423 c 0
 117 423 108 434 108 443 c 0
 108 447 110 452 113 454 c 2
 226 543 l 2
 233 548 241 551 251 551 c 0
 261 551 269 548 276 543 c 2
EndSplineSet
Validated: 1
EndChar

StartChar: otilde
Encoding: 245 245 178
Width: 500
GlyphClass: 2
Flags: W
HStem: -10 86<185.172 316.784> 299 86<184.957 316.999> 448 57<224.351 367.193> 472 57<132.666 277.55>
VStem: 28 114<119.249 256.294> 359 113<118.403 257.344>
LayerCount: 2
Fore
SplineSet
472 188 m 0xcc
 472 76 386 -10 251 -10 c 0
 116 -10 28 76 28 188 c 0
 28 300 116 385 251 385 c 0
 386 385 472 300 472 188 c 0xcc
251 76 m 0
 315 76 359 124 359 188 c 0
 359 252 316 299 251 299 c 0
 187 299 142 252 142 188 c 0
 142 123 188 76 251 76 c 0
292 511 m 2
 306 508 318 505 326 505 c 0
 358 505 364 533 382 533 c 0
 392 533 399 527 399 516 c 0
 399 489 362 448 305 448 c 0xec
 290 448 274 450 256 454 c 2
 210 467 l 2
 198 470 186 472 175 472 c 0
 143 472 136 444 118 444 c 0
 107 444 102 450 102 461 c 0
 102 488 139 529 197 529 c 0xdc
 213 529 228 527 245 523 c 2
 292 511 l 2
EndSplineSet
Validated: 1
EndChar

StartChar: odieresis
Encoding: 246 246 179
Width: 500
GlyphClass: 2
Flags: W
HStem: -10 86<185.172 316.784> 299 86<184.957 316.999> 433 104<109.388 191.18 311.004 392.819>
VStem: 28 114<119.249 256.294> 98 103<443.387 525.687> 300 103<442.66 526.164> 359 113<118.403 257.344>
LayerCount: 2
Fore
SplineSet
472 188 m 0xf2
 472 76 386 -10 251 -10 c 0
 116 -10 28 76 28 188 c 0
 28 300 116 385 251 385 c 0
 386 385 472 300 472 188 c 0xf2
251 76 m 0
 315 76 359 124 359 188 c 0
 359 252 316 299 251 299 c 0
 187 299 142 252 142 188 c 0
 142 123 188 76 251 76 c 0
98 485 m 0xe8
 98 512 123 537 151 537 c 0
 179 537 201 513 201 485 c 0
 201 454 180 433 151 433 c 0
 122 433 98 456 98 485 c 0xe8
300 485 m 0xe4
 300 512 324 537 352 537 c 0
 380 537 403 513 403 485 c 0
 403 454 381 433 352 433 c 0
 323 433 300 456 300 485 c 0xe4
EndSplineSet
Validated: 1
EndChar

StartChar: divide
Encoding: 247 247 180
Width: 500
GlyphClass: 2
Flags: W
HStem: 72 114<207.171 295.152> 215 83<34.5708 466.021> 328 114<207.171 295.152>
VStem: 194 114<83.6131 172.745 339.613 428.745>
LayerCount: 2
Fore
SplineSet
251 72 m 0
 219 72 194 96 194 128 c 0
 194 160 220 186 251 186 c 0
 283 186 308 160 308 128 c 0
 308 96 283 72 251 72 c 0
68 298 m 2
 432 298 l 2
 456 298 470 284 470 257 c 0
 470 231 455 215 432 215 c 2
 68 215 l 2
 45 215 31 231 31 257 c 0
 31 284 45 298 68 298 c 2
251 328 m 0
 219 328 194 352 194 384 c 0
 194 416 220 442 251 442 c 0
 283 442 308 416 308 384 c 0
 308 352 283 328 251 328 c 0
EndSplineSet
Validated: 1
EndChar

StartChar: oslash
Encoding: 248 248 181
Width: 500
GlyphClass: 2
Flags: W
HStem: -10 87<210.014 316.894> 300 85<185.161 282.721>
VStem: 28 114<121.848 256.475> 359 113<118.595 257.339>
LayerCount: 2
Fore
SplineSet
162 121 m 1
 283 295 l 1
 272 298 263 300 255 300 c 0
 186 300 142 252 142 188 c 0
 142 163 148 142 162 121 c 1
333 263 m 1
 209 84 l 1
 222 78 236 77 250 77 c 0
 316 77 359 124 359 188 c 0
 359 216 351 241 333 263 c 1
153 8 m 1
 112 -52 l 2
 108 -58 100 -62 92 -62 c 0
 78 -62 62 -50 62 -28 c 0
 62 -26 62 -23 64 -21 c 2
 102 36 l 1
 52 78 28 127 28 188 c 0
 28 300 116 385 251 385 c 0
 281 385 310 382 338 371 c 1
 370 420 l 2
 374 426 381 430 389 430 c 0
 403 430 420 418 420 396 c 0
 420 394 420 390 418 388 c 2
 390 346 l 1
 442 311 472 252 472 188 c 0
 472 76 386 -10 251 -10 c 0
 217 -10 185 -6 153 8 c 1
EndSplineSet
Validated: 1
EndChar

StartChar: ugrave
Encoding: 249 249 182
Width: 500
GlyphClass: 2
Flags: W
HStem: -9 87<191.643 286.678> 0 89<415 461.966> 287 89<32.4949 78 267.707 315>
VStem: 28 150<291.152 371.695> 78 100<92.4726 287> 263 152<291.596 371.414> 315 100<103.224 287>
LayerCount: 2
Fore
SplineSet
415 89 m 1x62
 422 89 l 2
 451 89 466 74 466 45 c 0
 466 11 449 0 415 0 c 2
 347 0 l 2x62
 331 0 322 7 322 18 c 2
 322 49 l 1
 296 10 260 -9 208 -9 c 0
 120 -9 78 44 78 151 c 2
 78 287 l 1xaa
 72 287 l 2
 43 287 28 303 28 332 c 0
 28 366 45 376 79 376 c 2
 156 376 l 2
 171 376 178 369 178 358 c 2xb0
 178 169 l 2
 178 110 191 78 238 78 c 0
 280 78 315 111 315 169 c 2
 315 287 l 1xaa
 308 287 l 2
 279 287 263 303 263 332 c 0xa4
 263 366 281 376 315 376 c 2xa2
 392 376 l 2
 407 376 415 369 415 358 c 2xa4
 415 89 l 1x62
313 442 m 1
 299 411 l 1
 87 487 l 2
 81 489 76 495 76 503 c 0
 76 505 77 508 78 510 c 2x28
 94 545 l 2
 98 553 105 558 113 558 c 0
 115 558 117 557 119 556 c 2
 313 442 l 1
EndSplineSet
Validated: 1
EndChar

StartChar: uacute
Encoding: 250 250 183
Width: 500
GlyphClass: 2
Flags: W
HStem: -9 87<191.643 286.678> 0 89<415 461.966> 287 89<32.4949 78 267.707 315>
VStem: 28 150<291.152 371.695> 78 100<92.4726 287> 263 152<291.596 371.414> 315 100<103.224 287>
LayerCount: 2
Fore
SplineSet
415 89 m 1x62
 422 89 l 2
 451 89 466 74 466 45 c 0
 466 11 449 0 415 0 c 2
 347 0 l 2x62
 331 0 322 7 322 18 c 2
 322 49 l 1
 296 10 260 -9 208 -9 c 0
 120 -9 78 44 78 151 c 2
 78 287 l 1xaa
 72 287 l 2
 43 287 28 303 28 332 c 0
 28 366 45 376 79 376 c 2
 156 376 l 2
 171 376 178 369 178 358 c 2xb0
 178 169 l 2
 178 110 191 78 238 78 c 0
 280 78 315 111 315 169 c 2
 315 287 l 1xaa
 308 287 l 2
 279 287 263 303 263 332 c 0xa4
 263 366 281 376 315 376 c 2xa2
 392 376 l 2
 407 376 415 369 415 358 c 2xa4
 415 89 l 1x62
138 442 m 1
 332 556 l 2
 334 557 336 558 338 558 c 0
 346 558 354 553 358 545 c 2
 374 510 l 2
 375 508 376 505 376 503 c 0
 376 495 371 489 365 487 c 2
 152 411 l 1
 138 442 l 1
EndSplineSet
Validated: 1
EndChar

StartChar: ucircumflex
Encoding: 251 251 184
Width: 500
GlyphClass: 2
Flags: W
HStem: -9 87<191.643 286.678> 0 89<415 461.966> 287 89<32.4949 78 267.707 315>
VStem: 28 150<291.152 371.695> 78 100<92.4726 287> 263 152<291.596 371.414> 315 100<103.224 287>
LayerCount: 2
Fore
SplineSet
415 89 m 1x62
 422 89 l 2
 451 89 466 74 466 45 c 0
 466 11 449 0 415 0 c 2
 347 0 l 2x62
 331 0 322 7 322 18 c 2
 322 49 l 1
 296 10 260 -9 208 -9 c 0
 120 -9 78 44 78 151 c 2
 78 287 l 1xaa
 72 287 l 2
 43 287 28 303 28 332 c 0
 28 366 45 376 79 376 c 2
 156 376 l 2
 171 376 178 369 178 358 c 2xb0
 178 169 l 2
 178 110 191 78 238 78 c 0
 280 78 315 111 315 169 c 2
 315 287 l 1xaa
 308 287 l 2
 279 287 263 303 263 332 c 0xa4
 263 366 281 376 315 376 c 2xa2
 392 376 l 2
 407 376 415 369 415 358 c 2xa4
 415 89 l 1x62
251 543 m 2
 363 454 l 2
 366 452 368 447 368 443 c 0
 368 434 360 423 349 423 c 0
 347 423 344 424 342 425 c 2
 226 479 l 1
 109 425 l 2
 107 424 104 423 102 423 c 0
 91 423 83 434 83 443 c 0
 83 447 85 452 88 454 c 2
 201 543 l 2
 208 548 216 551 226 551 c 0
 236 551 244 548 251 543 c 2
EndSplineSet
Validated: 1
EndChar

StartChar: udieresis
Encoding: 252 252 185
Width: 500
GlyphClass: 2
Flags: W
HStem: -9 87<191.643 286.678> 0 89<415 461.966> 287 89<32.4949 78 267.707 315> 433 104<84.3878 166.18 286.388 368.18>
VStem: 28 150<291.152 371.695> 78 100<92.4726 287 442.66 526.164> 263 152<291.596 371.414> 275 103<443.387 525.687> 315 100<103.224 287>
LayerCount: 2
Fore
SplineSet
415 89 m 1x7080
 422 89 l 2
 451 89 466 74 466 45 c 0
 466 11 449 0 415 0 c 2
 347 0 l 2x7080
 331 0 322 7 322 18 c 2
 322 49 l 1
 296 10 260 -9 208 -9 c 0
 120 -9 78 44 78 151 c 2
 78 287 l 1xb480
 72 287 l 2
 43 287 28 303 28 332 c 0
 28 366 45 376 79 376 c 2
 156 376 l 2
 171 376 178 369 178 358 c 2xb8
 178 169 l 2
 178 110 191 78 238 78 c 0
 280 78 315 111 315 169 c 2
 315 287 l 1xb480
 308 287 l 2
 279 287 263 303 263 332 c 0xb2
 263 366 281 376 315 376 c 2xb080
 392 376 l 2
 407 376 415 369 415 358 c 2xb2
 415 89 l 1x7080
73 485 m 0
 73 512 98 537 126 537 c 0
 154 537 176 513 176 485 c 0
 176 454 155 433 126 433 c 0
 97 433 73 456 73 485 c 0
275 485 m 0x31
 275 512 300 537 328 537 c 0
 356 537 378 513 378 485 c 0
 378 454 357 433 328 433 c 0
 299 433 275 456 275 485 c 0x31
EndSplineSet
Validated: 1
EndChar

StartChar: yacute
Encoding: 253 253 186
Width: 500
GlyphClass: 2
Flags: W
HStem: -162 90<50.7069 161 258 323.293> 287 89<28.7069 76 179 226.293 282.495 329 425 472.293>
VStem: 24 207<291.596 371.476> 46 282<-157.476 -77.1135> 278 199<291.596 371.476>
LayerCount: 2
Fore
SplineSet
425 376 m 2xe8
 459 376 477 366 477 332 c 0xe8
 477 303 461 287 432 287 c 2
 425 287 l 1
 258 -72 l 1
 276 -72 l 2
 310 -72 328 -84 328 -118 c 0
 328 -152 310 -162 276 -162 c 2
 98 -162 l 2
 64 -162 46 -152 46 -118 c 0xd0
 46 -84 64 -72 98 -72 c 2
 161 -72 l 1
 199 9 l 1
 76 287 l 1
 69 287 l 2
 40 287 24 303 24 332 c 0
 24 366 42 376 76 376 c 2
 179 376 l 2
 213 376 231 366 231 332 c 0
 231 303 215 287 186 287 c 2
 179 287 l 1
 252 113 l 1
 329 287 l 1
 322 287 l 2
 293 287 278 303 278 332 c 0
 278 366 295 376 329 376 c 2
 425 376 l 2xe8
163 442 m 1
 357 556 l 2
 359 557 361 558 363 558 c 0
 371 558 378 553 382 545 c 2
 399 510 l 2
 400 508 401 505 401 503 c 0
 401 495 396 489 390 487 c 2
 177 411 l 1
 163 442 l 1
EndSplineSet
Validated: 1
EndChar

StartChar: thorn
Encoding: 254 254 187
Width: 500
GlyphClass: 2
Flags: W
HStem: -162 90<6.28281 77 173 271.505> 2 86<210.19 324.051> 299 87<209.936 323.927> 442 90<30.8096 77>
VStem: 2 274<-157.886 -76.6601> 26 141<446.364 527.886> 77 96<-72 38 126.478 259.906> 360 112<124.153 263.843>
LayerCount: 2
Fore
SplineSet
175 193 m 0xf1
 175 131 215 88 268 88 c 0
 320 88 360 131 360 193 c 0
 360 255 321 299 268 299 c 0
 215 299 175 255 175 193 c 0xf1
225 -72 m 2
 259 -72 276 -84 276 -118 c 0
 276 -152 259 -162 225 -162 c 2
 52 -162 l 2
 17 -162 2 -152 2 -118 c 0xf9
 2 -84 18 -72 52 -72 c 2
 77 -72 l 1
 77 442 l 1xf3
 70 442 l 2
 41 442 26 459 26 488 c 0xf5
 26 522 42 532 77 532 c 2xf3
 142 532 l 2
 158 532 167 526 167 515 c 2
 167 330 l 1xf5
 195 367 234 386 283 386 c 0
 391 386 472 305 472 198 c 0
 472 84 391 2 284 2 c 0
 240 2 201 15 173 38 c 1
 173 -72 l 1xf3
 225 -72 l 2
EndSplineSet
Validated: 1
EndChar

StartChar: ydieresis
Encoding: 255 255 188
Width: 500
GlyphClass: 2
Flags: W
HStem: -162 90<50.7069 161 258 323.293> 287 89<28.7069 76 179 226.293 282.495 329 425 472.293> 433 104<109.388 191.18 311.004 392.819>
VStem: 24 207<291.596 371.476> 46 282<-157.476 -77.1135> 98 103<443.387 525.687> 278 199<291.596 371.476> 300 103<442.66 526.164>
LayerCount: 2
Fore
SplineSet
425 376 m 2xf2
 459 376 477 366 477 332 c 0xf2
 477 303 461 287 432 287 c 2
 425 287 l 1
 258 -72 l 1
 276 -72 l 2
 310 -72 328 -84 328 -118 c 0xe8
 328 -152 310 -162 276 -162 c 2
 98 -162 l 2xe4
 64 -162 46 -152 46 -118 c 0xe8
 46 -84 64 -72 98 -72 c 2xe4
 161 -72 l 1
 199 9 l 1
 76 287 l 1
 69 287 l 2
 40 287 24 303 24 332 c 0
 24 366 42 376 76 376 c 2
 179 376 l 2
 213 376 231 366 231 332 c 0
 231 303 215 287 186 287 c 2
 179 287 l 1
 252 113 l 1
 329 287 l 1
 322 287 l 2
 293 287 278 303 278 332 c 0
 278 366 295 376 329 376 c 2
 425 376 l 2xf2
98 485 m 0xe4
 98 512 123 537 151 537 c 0
 179 537 201 513 201 485 c 0
 201 454 180 433 151 433 c 0
 122 433 98 456 98 485 c 0xe4
300 485 m 0xe1
 300 512 324 537 352 537 c 0
 380 537 403 513 403 485 c 0
 403 454 381 433 352 433 c 0
 323 433 300 456 300 485 c 0xe1
EndSplineSet
Validated: 1
EndChar

StartChar: dotlessi
Encoding: 305 305 189
Width: 500
GlyphClass: 2
Flags: W
HStem: 0 89<72.227 208 308 442.773> 287 89<115.034 208>
VStem: 208 100<89 287>
LayerCount: 2
Fore
SplineSet
284 376 m 2
 299 376 308 369 308 358 c 2
 308 89 l 1
 395 89 l 2
 429 89 447 79 447 45 c 0
 447 11 429 0 395 0 c 2
 120 0 l 2
 86 0 68 11 68 45 c 0
 68 79 86 89 120 89 c 2
 208 89 l 1
 208 287 l 1
 162 287 l 2
 128 287 111 298 111 332 c 0
 111 366 128 376 162 376 c 2
 284 376 l 2
EndSplineSet
Validated: 1
EndChar

StartChar: Lslash
Encoding: 321 321 190
Width: 500
GlyphClass: 2
Flags: W
HStem: 0 213<395.579 474.265> 0 89<22.0119 103 206 391> 392 90<22.4687 103 206 287.531>
VStem: 18 274<396.893 477.421> 103 103<89 170 296 392> 391 88<89 208.966>
LayerCount: 2
Fore
SplineSet
68 0 m 2x6c
 35 0 18 12 18 45 c 0x74
 18 78 35 89 68 89 c 2
 103 89 l 1
 103 170 l 1
 78 154 l 2
 71 150 66 148 59 148 c 0
 42 148 28 166 28 181 c 0
 28 192 34 198 46 206 c 2
 103 243 l 1
 103 392 l 1x6c
 68 392 l 2
 35 392 18 405 18 438 c 0
 18 470 35 482 68 482 c 2
 242 482 l 2
 275 482 292 470 292 438 c 0x74
 292 405 275 392 242 392 c 2
 206 392 l 1
 206 296 l 1x6c
 292 350 l 2x74
 299 354 306 357 312 357 c 0
 329 357 342 338 342 322 c 0
 342 306 333 304 324 298 c 2
 206 222 l 1
 206 89 l 1
 391 89 l 1x6c
 391 162 l 2
 391 197 403 213 435 213 c 0
 468 213 479 196 479 162 c 2
 479 37 l 2
 479 8 471 0 437 0 c 2xac
 68 0 l 2x6c
EndSplineSet
Validated: 1
EndChar

StartChar: lslash
Encoding: 322 322 191
Width: 500
GlyphClass: 2
Flags: W
HStem: 0 89<65.8414 200 301 434.966> 442 90<107.707 200>
VStem: 103 198<447.114 527.351> 200 101<89 215 335 442>
LayerCount: 2
Fore
SplineSet
200 215 m 1xd0
 121 162 l 2
 115 158 110 155 102 155 c 0
 89 155 74 172 74 185 c 0
 74 196 82 201 92 208 c 2
 200 280 l 1
 200 442 l 1xd0
 155 442 l 2
 121 442 103 454 103 488 c 0
 103 522 121 532 155 532 c 2
 277 532 l 2
 292 532 301 526 301 515 c 2xe0
 301 335 l 1
 380 387 l 2
 386 391 391 395 399 395 c 0
 412 395 426 378 426 365 c 0
 426 354 419 349 409 342 c 2
 301 270 l 1
 301 89 l 1
 388 89 l 2
 422 89 439 79 439 45 c 0
 439 11 422 0 388 0 c 2
 112 0 l 2
 78 0 62 11 62 45 c 0
 62 79 78 89 112 89 c 2
 200 89 l 1
 200 215 l 1xd0
EndSplineSet
Validated: 1
EndChar

StartChar: OE
Encoding: 338 338 192
Width: 500
GlyphClass: 2
Flags: W
HStem: 0 186<434.597 500.519> 0 87<152.81 228 312 431> 173 155<345.929 404.49> 217 69<312 344> 302 180<435.324 500.183> 397 85<150.838 228 312 431>
VStem: 6 103<136.71 349.766> 228 84<87 217 286 397> 344 63<174.345 217 286 326.759> 431 73<87 183.56 304.675 397>
LayerCount: 2
Fore
SplineSet
228 397 m 1x47c0
 223 398 217 398 212 398 c 0
 145 398 109 344 109 242 c 0
 109 142 148 87 210 87 c 0
 216 87 222 87 228 88 c 1
 228 397 l 1x47c0
278 0 m 1
 258 0 l 2
 205 0 157 2 116 24 c 0
 48 63 6 143 6 242 c 0
 6 342 49 423 116 460 c 0
 156 482 210 482 278 482 c 2x47c0
 469 482 l 2
 499 482 504 473 504 445 c 2
 504 354 l 2
 504 320 496 302 468 302 c 0x0bc0
 440 302 431 321 431 354 c 2
 431 397 l 1
 312 397 l 1
 312 286 l 1
 344 286 l 1x17c0
 344 292 l 2
 344 315 355 328 375 328 c 0x23c0
 398 328 407 314 407 286 c 2x13c0
 407 216 l 2
 407 188 398 173 375 173 c 0x23c0
 356 173 343 186 343 208 c 0
 343 210 344 214 344 217 c 1
 312 217 l 1
 312 87 l 1
 431 87 l 1x53c0
 431 135 l 2
 431 169 440 186 468 186 c 0
 496 186 504 169 504 135 c 2
 504 37 l 2
 504 9 499 0 469 0 c 2x83c0
 278 0 l 1
EndSplineSet
Validated: 1
EndChar

StartChar: oe
Encoding: 339 339 193
Width: 500
GlyphClass: 2
Flags: W
HStem: -10 86<122.398 195.354 329.968 432.178> 164 64<313 406> 299 86<122.187 195.302> 307 78<327.76 390.851>
VStem: 2 96<100.872 274.583> 219 94<100.704 164 228 274.525>
LayerCount: 2
Fore
SplineSet
158 76 m 0xec
 191 76 219 118 219 188 c 0
 219 257 192 299 158 299 c 0
 124 299 98 257 98 188 c 0
 98 118 125 76 158 76 c 0xec
313 228 m 1
 406 228 l 1
 402 280 384 307 359 307 c 0xdc
 334 307 317 280 313 228 c 1
257 52 m 1
 230 11 194 -10 147 -10 c 0
 62 -10 2 70 2 188 c 0
 2 306 62 385 147 385 c 0xec
 194 385 228 366 257 324 c 1
 283 365 318 385 365 385 c 0
 446 385 500 310 500 204 c 0
 500 172 491 164 461 164 c 2
 313 164 l 1
 314 105 335 76 377 76 c 0
 426 76 446 119 468 119 c 0
 483 119 500 100 500 82 c 0
 500 43 442 -10 369 -10 c 0
 320 -10 282 11 257 52 c 1
EndSplineSet
Validated: 1
EndChar

StartChar: Scaron
Encoding: 352 352 194
Width: 500
GlyphClass: 2
Flags: W
HStem: -12 192<52.7507 128.133> -12 77<178.738 322.066> 327 169<352.847 425.598> 416 80<190.978 317.904> 535 21G<246 256>
VStem: 47 96<98.9763 168.217> 58 116<322.144 398.131> 336 117<80.241 165.562>
LayerCount: 2
Fore
SplineSet
134 8 m 1x5b
 125 -8 114 -12 96 -12 c 0
 63 -12 50 -2 49 32 c 2
 47 128 l 1
 47 132 l 2
 47 167 58 180 92 180 c 0
 124 180 128 157 143 128 c 0x8d
 165 86 202 65 257 65 c 0
 306 65 336 86 336 124 c 0
 336 176 290 177 198 201 c 0
 106 225 58 256 58 338 c 0
 58 430 134 496 245 496 c 0x5b
 283 496 317 488 352 473 c 1
 361 493 371 496 393 496 c 0
 420 496 427 487 428 452 c 2
 429 374 l 1
 429 370 l 2
 429 339 420 327 388 327 c 0x2b
 355 327 351 345 341 365 c 0
 324 397 295 416 256 416 c 0
 205 416 174 389 174 356 c 0
 174 314 221 310 305 292 c 0
 406 271 453 225 453 143 c 0
 453 43 384 -12 257 -12 c 0
 215 -12 176 -8 134 8 c 1x5b
226 543 m 2
 113 632 l 2
 110 634 108 638 108 642 c 0
 108 651 117 662 128 662 c 0
 130 662 132 662 134 661 c 2
 251 608 l 1
 368 661 l 2
 370 662 372 662 374 662 c 0
 385 662 393 651 393 642 c 0
 393 638 391 634 388 632 c 2
 276 543 l 2
 269 538 261 535 251 535 c 0
 241 535 233 538 226 543 c 2
EndSplineSet
Validated: 1
EndChar

StartChar: scaron
Encoding: 353 353 195
Width: 500
GlyphClass: 2
Flags: W
HStem: -12 149<70.6154 142.298> -10 69<181.019 324.049> 260 128<337.517 407.625> 318 68<178.272 306.842>
VStem: 65 106<250.849 308.909> 332 107<69.3026 130.414>
LayerCount: 2
Fore
SplineSet
143 5 m 1x5c
 128 -6 114 -12 99 -12 c 0
 72 -12 67 4 67 32 c 2
 67 88 l 2
 67 124 78 137 107 137 c 0x8c
 142 137 141 113 161 95 c 0
 189 71 223 59 268 59 c 0
 310 59 332 78 332 100 c 0
 332 138 293 139 205 151 c 0
 111 164 65 201 65 266 c 0
 65 342 122 386 225 386 c 0x5c
 262 386 299 380 337 368 c 1
 348 381 361 388 377 388 c 0
 399 388 410 375 410 347 c 2
 410 297 l 2
 410 274 397 260 375 260 c 0x2c
 334 260 311 318 238 318 c 0
 194 318 171 302 171 279 c 0
 171 244 205 248 278 237 c 0
 382 222 439 198 439 118 c 0
 439 39 378 -10 264 -10 c 0
 222 -10 182 -6 143 5 c 1x5c
226 433 m 2
 113 522 l 2
 110 524 108 528 108 532 c 0
 108 541 117 552 128 552 c 0
 130 552 132 552 134 551 c 2
 251 498 l 1
 368 551 l 2
 370 552 372 552 374 552 c 0
 385 552 393 541 393 532 c 0
 393 528 391 524 388 522 c 2
 276 433 l 2
 269 428 261 425 251 425 c 0
 241 425 233 428 226 433 c 2
EndSplineSet
Validated: 1
EndChar

StartChar: Ydieresis
Encoding: 376 376 196
Width: 500
GlyphClass: 2
Flags: W
HStem: 0 89<98.0342 198 303 403.479> 392 90<37.0267 82 191 229.801 279.911 315 412 457.226> 543 104<109.388 191.18 311.004 392.819>
VStem: 32 202<396.828 477.886> 98 103<553.387 635.687> 198 105<89 178> 276 186<396.364 477.886> 300 103<552.66 636.164>
LayerCount: 2
Fore
SplineSet
82 392 m 1xe4
 76 392 l 2
 48 392 32 409 32 438 c 0
 32 472 49 482 82 482 c 2
 189 482 l 2
 219 482 234 472 234 438 c 0
 234 408 221 392 195 392 c 2
 191 392 l 1
 254 260 l 1
 315 392 l 1
 313 392 l 2
 288 392 276 409 276 438 c 0
 276 472 290 482 320 482 c 2
 412 482 l 2
 446 482 462 472 462 438 c 0xf2
 462 409 447 392 419 392 c 2
 412 392 l 1
 303 189 l 1
 303 89 l 1
 357 89 l 2
 391 89 408 79 408 45 c 0
 408 13 391 0 356 0 c 2
 145 0 l 2
 111 0 94 11 94 45 c 0
 94 79 111 89 145 89 c 2
 198 89 l 1
 198 178 l 1
 82 392 l 1xe4
98 595 m 0xe8
 98 622 123 647 151 647 c 0
 179 647 201 623 201 595 c 0
 201 564 180 543 151 543 c 0
 122 543 98 566 98 595 c 0xe8
300 595 m 0xe1
 300 622 324 647 352 647 c 0
 380 647 403 623 403 595 c 0
 403 564 381 543 352 543 c 0
 323 543 300 566 300 595 c 0xe1
EndSplineSet
Validated: 1
EndChar

StartChar: Zcaron
Encoding: 381 381 197
Width: 500
GlyphClass: 2
Flags: W
HStem: 0 90<198 334> 393 89<162 288> 535 21G<246 256>
VStem: 69 90<288.657 393> 334 90<90 203.343>
LayerCount: 2
Fore
SplineSet
162 393 m 1
 159 336 l 2
 157 299 145 284 112 284 c 0
 83 284 69 300 69 331 c 2
 69 336 l 1
 73 432 l 2
 75 475 77 482 122 482 c 2
 381 482 l 2
 410 482 426 465 426 443 c 0
 426 430 422 416 415 407 c 2
 198 90 l 1
 334 90 l 1
 334 156 l 2
 334 193 349 208 381 208 c 0
 410 208 424 192 424 161 c 2
 424 156 l 1
 419 51 l 2
 417 11 418 0 372 0 c 2
 102 0 l 2
 74 0 58 17 58 39 c 0
 58 53 62 66 68 75 c 2
 288 393 l 1
 162 393 l 1
226 543 m 2
 113 632 l 2
 110 634 108 638 108 642 c 0
 108 651 117 662 128 662 c 0
 130 662 132 662 134 661 c 2
 251 608 l 1
 368 661 l 2
 370 662 372 662 374 662 c 0
 385 662 393 651 393 642 c 0
 393 638 391 634 388 632 c 2
 276 543 l 2
 269 538 261 535 251 535 c 0
 241 535 233 538 226 543 c 2
EndSplineSet
Validated: 1
EndChar

StartChar: zcaron
Encoding: 382 382 198
Width: 500
GlyphClass: 2
Flags: W
HStem: 0 82<200 332> 294 82<161 286>
VStem: 78 83<226.773 294> 332 86<82 156.319>
LayerCount: 2
Fore
SplineSet
200 82 m 1
 332 82 l 1
 335 110 l 2
 337 143 344 161 375 161 c 0
 409 161 418 144 418 110 c 2
 418 50 l 2
 418 5 409 0 370 0 c 2
 118 0 l 2
 86 0 68 14 68 41 c 0
 68 56 76 73 88 86 c 2
 286 294 l 1
 161 294 l 1
 161 275 l 2
 161 240 148 223 120 223 c 0
 86 223 78 241 78 275 c 2
 78 327 l 2
 78 372 86 376 125 376 c 2
 365 376 l 2
 398 376 414 361 414 335 c 0
 414 318 407 304 393 289 c 2
 200 82 l 1
226 433 m 2
 113 522 l 2
 110 524 108 528 108 532 c 0
 108 541 117 552 128 552 c 0
 130 552 132 552 134 551 c 2
 251 498 l 1
 368 551 l 2
 370 552 372 552 374 552 c 0
 385 552 393 541 393 532 c 0
 393 528 391 524 388 522 c 2
 276 433 l 2
 269 428 261 425 251 425 c 0
 241 425 233 428 226 433 c 2
EndSplineSet
Validated: 1
EndChar

StartChar: florin
Encoding: 402 402 199
Width: 500
GlyphClass: 2
Flags: W
HStem: -116 88<42.7338 165.9> 264 68<124.366 205 318 405.878> 438 89<337.991 457.993>
LayerCount: 2
Fore
SplineSet
280 28 m 2
 268 -72 220 -116 118 -116 c 0
 60 -116 33 -101 33 -64 c 0
 33 -41 48 -26 76 -26 c 0
 88 -26 100 -28 114 -28 c 0
 157 -28 172 -11 177 31 c 2
 205 264 l 1
 144 264 l 2
 133 264 122 274 122 292 c 0
 122 320 134 332 157 332 c 2
 212 332 l 1
 221 383 l 1
 236 484 279 527 382 527 c 0
 440 527 468 512 468 475 c 0
 468 452 453 437 425 437 c 0
 413 437 401 438 387 438 c 0
 343 438 330 422 324 380 c 2
 318 332 l 1
 386 332 l 2
 397 332 408 321 408 303 c 0
 408 276 397 264 374 264 c 2
 310 264 l 1
 280 28 l 2
EndSplineSet
Validated: 1
EndChar

StartChar: circumflex
Encoding: 710 710 200
Width: 500
GlyphClass: 2
Flags: W
HStem: 423 128
VStem: 108 285<434 447>
LayerCount: 2
Fore
SplineSet
276 543 m 2
 388 454 l 2
 391 452 393 447 393 443 c 0
 393 434 385 423 374 423 c 0
 372 423 370 424 368 425 c 2
 251 479 l 1
 134 425 l 2
 132 424 130 423 128 423 c 0
 117 423 108 434 108 443 c 0
 108 447 110 452 113 454 c 2
 226 543 l 2
 233 548 241 551 251 551 c 0
 261 551 269 548 276 543 c 2
EndSplineSet
Validated: 1
EndChar

StartChar: caron
Encoding: 711 711 201
Width: 500
GlyphClass: 2
Flags: W
HStem: 425 127
VStem: 108 285<528 541>
LayerCount: 2
Fore
SplineSet
226 433 m 2
 113 522 l 2
 110 524 108 528 108 532 c 0
 108 541 117 552 128 552 c 0
 130 552 132 552 134 551 c 2
 251 498 l 1
 368 551 l 2
 370 552 372 552 374 552 c 0
 385 552 393 541 393 532 c 0
 393 528 391 524 388 522 c 2
 276 433 l 2
 269 428 261 425 251 425 c 0
 241 425 233 428 226 433 c 2
EndSplineSet
Validated: 1
EndChar

StartChar: breve
Encoding: 728 728 202
Width: 500
GlyphClass: 2
Flags: W
HStem: 441 61<151.5 350.477>
VStem: 95 312<487.574 546>
LayerCount: 2
Fore
SplineSet
251 502 m 0
 299 502 333 507 352 518 c 0
 370 529 376 550 395 550 c 0
 403 550 407 546 407 534 c 0
 407 491 350 441 251 441 c 0
 152 441 95 491 95 534 c 0
 95 546 99 550 107 550 c 0
 125 550 131 529 150 518 c 0
 168 508 202 502 251 502 c 0
EndSplineSet
Validated: 1
EndChar

StartChar: dotaccent
Encoding: 729 729 203
Width: 500
GlyphClass: 2
Flags: W
HStem: 436 110<208.155 294.462>
VStem: 196 110<447.613 533.726>
LayerCount: 2
Fore
SplineSet
196 492 m 0
 196 521 222 546 251 546 c 0
 281 546 306 522 306 492 c 0
 306 460 282 436 251 436 c 0
 220 436 196 461 196 492 c 0
EndSplineSet
Validated: 1
EndChar

StartChar: ring
Encoding: 730 730 204
Width: 500
GlyphClass: 2
Flags: W
HStem: 417 58<209.586 291.628> 579 58<207.755 291.991>
VStem: 141 57<485.88 568.128> 302 59<485.503 568.49>
LayerCount: 2
Fore
SplineSet
141 527 m 0
 141 588 189 637 251 637 c 0
 312 637 361 588 361 527 c 0
 361 465 312 417 251 417 c 0
 190 417 141 465 141 527 c 0
198 528 m 0
 198 499 222 475 251 475 c 0
 279 475 302 499 302 528 c 0
 302 556 279 579 251 579 c 0
 222 579 198 556 198 528 c 0
EndSplineSet
Validated: 1
EndChar

StartChar: ogonek
Encoding: 731 731 205
Width: 500
GlyphClass: 2
Flags: W
HStem: -190 52<249.5 330.955>
VStem: 201 72<-135.418 -66.0337>
LayerCount: 2
Fore
SplineSet
340 12 m 1
 296 -25 273 -57 273 -96 c 0
 273 -123 286 -138 308 -138 c 0
 328 -138 338 -129 352 -109 c 1
 367 -118 l 1
 345 -166 313 -190 271 -190 c 0
 228 -190 201 -166 201 -128 c 0
 201 -79 239 -35 317 12 c 1
 340 12 l 1
EndSplineSet
Validated: 1
EndChar

StartChar: tilde
Encoding: 732 732 206
Width: 500
GlyphClass: 2
Flags: W
HStem: 448 57<224.351 367.193> 472 57<132.666 277.55>
VStem: 102 297<475.79 501.21>
LayerCount: 2
Fore
SplineSet
292 511 m 2x60
 306 508 318 505 326 505 c 0
 358 505 364 533 382 533 c 0
 392 533 399 527 399 516 c 0
 399 489 362 448 305 448 c 0xa0
 290 448 274 450 256 454 c 2
 210 467 l 2
 198 470 186 472 175 472 c 0
 143 472 136 444 118 444 c 0
 107 444 102 450 102 461 c 0
 102 488 139 529 197 529 c 0
 213 529 228 527 245 523 c 2
 292 511 l 2x60
EndSplineSet
Validated: 1
EndChar

StartChar: hungarumlaut
Encoding: 733 733 207
Width: 500
GlyphClass: 2
Flags: W
HStem: 419 136
VStem: 138 307
LayerCount: 2
Fore
SplineSet
138 442 m 1
 252 546 l 2
 259 552 264 555 268 555 c 0
 274 555 279 552 282 548 c 2
 305 521 l 2
 307 518 309 513 309 510 c 0
 309 504 306 500 299 496 c 2
 161 419 l 1
 138 442 l 1
274 442 m 1
 388 546 l 2
 395 552 400 555 404 555 c 0
 410 555 415 552 418 548 c 2
 441 521 l 2
 443 518 445 513 445 510 c 0
 445 504 442 500 435 496 c 2
 298 419 l 1
 274 442 l 1
EndSplineSet
Validated: 1
EndChar

StartChar: mu
Encoding: 956 956 208
Width: 500
GlyphClass: 2
Flags: W
HStem: -162 21G<50.5 79> -8 79<167.42 259.701> 0 82<398 443.04> 294 84<67.3809 111>
VStem: 61 151<297.25 370.451>
LayerCount: 2
Fore
SplineSet
398 82 m 1xb8
 414 82 l 2
 434 82 449 67 449 45 c 0
 449 17 430 0 397 0 c 2
 342 0 l 2xb8
 312 0 298 11 298 38 c 0
 298 40 298 46 299 56 c 1
 271 14 236 -8 198 -8 c 0
 175 -8 156 -1 141 17 c 1
 114 -115 l 2
 107 -147 93 -162 65 -162 c 0
 36 -162 21 -149 21 -122 c 0
 21 -116 21 -110 23 -103 c 2
 111 294 l 1
 97 294 l 2
 78 294 61 310 61 332 c 0
 61 360 81 378 114 378 c 2
 168 378 l 2
 198 378 212 365 212 338 c 0
 212 333 212 328 211 320 c 1
 169 138 l 2
 166 125 165 114 165 107 c 0
 165 84 180 71 208 71 c 0xd8
 270 71 308 114 328 200 c 2
 358 328 l 2
 365 359 373 378 408 378 c 0
 437 378 451 364 451 336 c 0
 451 331 450 325 448 317 c 2
 398 82 l 1xb8
EndSplineSet
Validated: 1
EndChar

StartChar: endash
Encoding: 8211 8211 209
Width: 500
GlyphClass: 2
Flags: W
HStem: 149 78<-17.9767 520.954>
LayerCount: 2
Fore
SplineSet
502 227 m 2
 514 227 521 219 521 207 c 2
 521 172 l 2
 521 160 512 149 502 149 c 2
 0 149 l 2
 -10 149 -18 158 -18 172 c 2
 -18 207 l 2
 -18 219 -10 227 0 227 c 2
 502 227 l 2
EndSplineSet
Validated: 1
EndChar

StartChar: emdash
Encoding: 8212 8212 210
Width: 500
GlyphClass: 2
Flags: W
HStem: 149 78<-17.9767 520.954>
LayerCount: 2
Fore
SplineSet
0 227 m 2
 502 227 l 2
 514 227 521 219 521 207 c 2
 521 172 l 2
 521 160 512 149 502 149 c 2
 0 149 l 2
 -11 149 -18 158 -18 172 c 2
 -18 207 l 2
 -18 219 -10 227 0 227 c 2
EndSplineSet
Validated: 1
EndChar

StartChar: quoteleft
Encoding: 8216 8216 211
Width: 500
GlyphClass: 2
Flags: W
HStem: 273 224<266.359 283.734>
VStem: 168 164
LayerCount: 2
Fore
SplineSet
283 292 m 2
 279 278 275 273 260 273 c 2
 180 273 l 2
 172 273 168 277 168 281 c 0
 168 283 170 286 172 290 c 2
 271 485 l 2
 275 493 280 497 287 497 c 0
 289 497 292 496 294 495 c 2
 320 486 l 2
 328 484 332 478 332 472 c 0
 332 469 331 466 330 464 c 2
 283 292 l 2
EndSplineSet
Validated: 1
EndChar

StartChar: quoteright
Encoding: 8217 8217 212
Width: 500
GlyphClass: 2
Flags: W
HStem: 259 223<220.25 236.688>
VStem: 172 163
LayerCount: 2
Fore
SplineSet
221 463 m 2
 225 477 228 482 243 482 c 2
 323 482 l 2
 331 482 335 479 335 475 c 0
 335 473 334 469 332 465 c 2
 232 271 l 2
 228 263 224 259 217 259 c 0
 215 259 212 259 210 260 c 2
 184 269 l 2
 176 271 172 276 172 282 c 0
 172 285 172 289 173 291 c 2
 221 463 l 2
EndSplineSet
Validated: 1
EndChar

StartChar: quotesinglbase
Encoding: 8218 8218 213
Width: 500
GlyphClass: 2
Flags: W
HStem: -132 223<211.266 228.641>
VStem: 164 163
LayerCount: 2
Fore
SplineSet
315 91 m 2
 323 91 327 87 327 83 c 0
 327 81 325 78 323 74 c 2
 224 -121 l 2
 221 -129 215 -132 208 -132 c 0
 206 -132 203 -132 201 -131 c 2
 176 -122 l 2
 168 -120 164 -114 164 -108 c 0
 164 -105 164 -102 165 -100 c 2
 212 72 l 2
 216 86 220 91 235 91 c 2
 315 91 l 2
EndSplineSet
Validated: 1
EndChar

StartChar: quotedblleft
Encoding: 8220 8220 214
Width: 500
GlyphClass: 2
Flags: W
HStem: 273 224<179.359 196.734 338.359 356.734>
VStem: 82 322
LayerCount: 2
Fore
SplineSet
196 292 m 2
 192 278 188 273 173 273 c 2
 93 273 l 2
 85 273 82 277 82 281 c 0
 82 283 83 286 85 290 c 2
 184 485 l 2
 188 493 193 497 200 497 c 0
 202 497 206 496 208 495 c 2
 232 486 l 2
 240 484 245 478 245 472 c 0
 245 469 244 466 243 464 c 2
 196 292 l 2
356 292 m 2
 352 278 348 273 333 273 c 2
 253 273 l 2
 245 273 242 277 242 281 c 0
 242 283 242 286 244 290 c 2
 343 485 l 2
 347 493 352 497 359 497 c 0
 361 497 365 496 367 495 c 2
 392 486 l 2
 400 484 404 478 404 472 c 0
 404 469 404 466 403 464 c 2
 356 292 l 2
EndSplineSet
Validated: 1
EndChar

StartChar: quotedblright
Encoding: 8221 8221 215
Width: 500
GlyphClass: 2
Flags: W
HStem: 259 223<140.25 157.641 300.25 316.688>
VStem: 92 323
LayerCount: 2
Fore
SplineSet
141 463 m 2
 145 477 149 482 164 482 c 2
 243 482 l 2
 251 482 255 479 255 475 c 0
 255 473 254 469 252 465 c 2
 153 271 l 2
 149 263 144 259 137 259 c 0
 135 259 132 259 130 260 c 2
 104 269 l 2
 96 271 92 276 92 282 c 0
 92 285 92 289 93 291 c 2
 141 463 l 2
301 463 m 2
 305 477 308 482 323 482 c 2
 403 482 l 2
 411 482 415 479 415 475 c 0
 415 473 414 469 412 465 c 2
 312 271 l 2
 308 263 303 259 296 259 c 0
 294 259 291 259 289 260 c 2
 264 269 l 2
 256 271 252 276 252 282 c 0
 252 285 252 289 253 291 c 2
 301 463 l 2
EndSplineSet
Validated: 1
EndChar

StartChar: quotedblbase
Encoding: 8222 8222 216
Width: 500
GlyphClass: 2
Flags: W
HStem: -132 223<133.281 151.641 293.266 311.641>
VStem: 86 322
LayerCount: 2
Fore
SplineSet
134 72 m 2
 138 86 143 91 158 91 c 2
 238 91 l 2
 246 91 249 87 249 83 c 0
 249 81 248 78 246 74 c 2
 147 -121 l 2
 144 -129 138 -132 131 -132 c 0
 129 -132 125 -132 123 -131 c 2
 98 -122 l 2
 90 -120 86 -114 86 -108 c 0
 86 -105 87 -102 88 -100 c 2
 134 72 l 2
294 72 m 2
 298 86 303 91 318 91 c 2
 397 91 l 2
 405 91 408 87 408 83 c 0
 408 81 408 78 406 74 c 2
 307 -121 l 2
 304 -129 298 -132 291 -132 c 0
 289 -132 285 -132 283 -131 c 2
 258 -122 l 2
 250 -120 246 -114 246 -108 c 0
 246 -105 246 -102 247 -100 c 2
 294 72 l 2
EndSplineSet
Validated: 1
EndChar

StartChar: dagger
Encoding: 8224 8224 217
Width: 500
GlyphClass: 2
Flags: W
HStem: -12 21G<237 268.5> 292 84<104.629 204 300 397.715> 476 20G<235.5 267>
VStem: 204 96<-6.50168 292 376 490.775>
LayerCount: 2
Fore
SplineSet
300 26 m 2
 300 4 284 -12 253 -12 c 0
 221 -12 204 5 204 26 c 2
 204 292 l 1
 126 292 l 2
 115 292 101 306 101 333 c 0
 101 361 117 376 126 376 c 2
 204 376 l 1
 204 459 l 2
 204 481 220 496 251 496 c 0
 283 496 300 480 300 459 c 2
 300 376 l 1
 376 376 l 2
 387 376 401 361 401 334 c 0
 401 306 385 292 376 292 c 2
 300 292 l 1
 300 26 l 2
EndSplineSet
Validated: 1
EndChar

StartChar: daggerdbl
Encoding: 8225 8225 218
Width: 500
GlyphClass: 2
Flags: W
HStem: -12 21G<237 268.5> 108 84<107.417 204 300 399.371> 292 84<104.629 204 300 397.715> 476 20G<235.5 267>
VStem: 204 96<-6.77493 108 192 292 376 490.775>
LayerCount: 2
Fore
SplineSet
300 192 m 1
 378 192 l 2
 389 192 403 178 403 151 c 0
 403 123 387 108 378 108 c 2
 300 108 l 1
 300 25 l 2
 300 3 284 -12 253 -12 c 0
 221 -12 204 4 204 25 c 2
 204 108 l 1
 128 108 l 2
 117 108 104 122 104 149 c 0
 104 177 119 192 128 192 c 2
 204 192 l 1
 204 292 l 1
 126 292 l 2
 115 292 101 306 101 333 c 0
 101 361 117 376 126 376 c 2
 204 376 l 1
 204 459 l 2
 204 481 220 496 251 496 c 0
 283 496 300 480 300 459 c 2
 300 376 l 1
 376 376 l 2
 387 376 401 361 401 334 c 0
 401 306 385 292 376 292 c 2
 300 292 l 1
 300 192 l 1
EndSplineSet
Validated: 1
EndChar

StartChar: bullet
Encoding: 8226 8226 219
Width: 500
GlyphClass: 2
Flags: W
HStem: 213 131<202.85 299.15>
VStem: 186 130<229.85 326.697>
LayerCount: 2
Fore
SplineSet
186 278 m 0
 186 315 215 344 251 344 c 0
 287 344 316 314 316 278 c 0
 316 242 287 213 251 213 c 0
 215 213 186 241 186 278 c 0
EndSplineSet
Validated: 1
EndChar

StartChar: ellipsis
Encoding: 8230 8230 220
Width: 500
GlyphClass: 2
Flags: W
HStem: -10 121<37.1072 128.323 205.677 296.323 372.677 463.323>
VStem: 22 121<4.67733 95.8928> 191 120<3.74536 96.8479> 358 120<3.74536 96.8479>
LayerCount: 2
Fore
SplineSet
191 50 m 0
 191 83 218 111 251 111 c 0
 284 111 311 83 311 50 c 0
 311 17 284 -10 251 -10 c 0
 218 -10 191 17 191 50 c 0
22 50 m 0
 22 83 50 111 83 111 c 0
 116 111 143 83 143 50 c 0
 143 17 116 -10 83 -10 c 0
 50 -10 22 17 22 50 c 0
358 50 m 0
 358 83 385 111 418 111 c 0
 451 111 478 83 478 50 c 0
 478 17 451 -10 418 -10 c 0
 385 -10 358 17 358 50 c 0
EndSplineSet
Validated: 1
EndChar

StartChar: perthousand
Encoding: 8240 8240 221
Width: 500
GlyphClass: 2
Flags: W
HStem: -13 61<130.946 222.918 387.876 479.506> 147 61<130.808 222.918 387.738 479.506> 176 51<-33.2718 -18> 288 50<275 291.421> 305 62<36.7384 129.192> 466 61<37.0823 128.848>
VStem: -37 65<376.86 456.731> 58 64<57.269 137.079> 138 64<376.66 455.312> 232 65<58.3404 136.932> 314 65<57.269 137.079> 488 65<56.719 137.272>
LayerCount: 2
Fore
SplineSet
-37 416 m 0x8ff0
 -37 478 13 527 83 527 c 0
 153 527 202 478 202 416 c 0
 202 353 153 305 83 305 c 0
 13 305 -37 354 -37 416 c 0x8ff0
138 416 m 0
 138 444 116 466 83 466 c 0
 50 466 28 445 28 416 c 0
 28 387 50 367 83 367 c 0
 116 367 138 387 138 416 c 0
-18 227 m 2xb7f0
 256 335 l 2
 260 337 264 338 267 338 c 0
 282 338 292 326 292 310 c 0
 292 301 285 292 275 288 c 2
 2 178 l 2
 -2 176 -6 176 -9 176 c 0
 -24 176 -34 189 -34 205 c 0
 -34 214 -29 223 -18 227 c 2xb7f0
58 98 m 0
 58 160 107 208 177 208 c 0xc7f0
 247 208 297 160 297 98 c 0
 297 35 247 -13 177 -13 c 0
 106 -13 58 36 58 98 c 0
232 98 m 0
 232 126 210 147 177 147 c 0
 144 147 122 127 122 98 c 0
 122 69 144 48 177 48 c 0
 210 48 232 69 232 98 c 0
314 98 m 0
 314 160 364 208 434 208 c 0
 504 208 553 160 553 98 c 0
 553 35 504 -13 434 -13 c 0
 363 -13 314 36 314 98 c 0
488 98 m 0
 488 126 467 147 434 147 c 0
 401 147 379 127 379 98 c 0
 379 69 401 48 434 48 c 0
 467 48 488 69 488 98 c 0
EndSplineSet
Validated: 1
EndChar

StartChar: guilsinglleft
Encoding: 8249 8249 222
Width: 500
GlyphClass: 2
Flags: W
HStem: 30 312<252.938 300>
VStem: 187 129
LayerCount: 2
Fore
SplineSet
262 186 m 1
 312 76 l 2
 314 72 316 66 316 61 c 0
 316 43 300 30 282 30 c 0
 271 30 261 36 257 44 c 2
 192 169 l 2
 188 177 187 183 187 188 c 0
 187 194 188 200 192 208 c 2
 257 328 l 2
 261 336 272 342 282 342 c 0
 300 342 316 329 316 311 c 0
 316 306 314 301 312 297 c 2
 262 186 l 1
EndSplineSet
Validated: 1
EndChar

StartChar: guilsinglright
Encoding: 8250 8250 223
Width: 500
GlyphClass: 2
Flags: W
HStem: 30 312<201 248.062>
VStem: 185 130
LayerCount: 2
Fore
SplineSet
239 186 m 1
 188 297 l 2
 186 301 185 306 185 311 c 0
 185 329 201 342 219 342 c 0
 230 342 240 336 244 328 c 2
 309 203 l 2
 313 195 315 189 315 184 c 0
 315 178 313 172 309 164 c 2
 244 44 l 2
 240 36 229 30 219 30 c 0
 201 30 185 43 185 61 c 0
 185 66 186 72 188 76 c 2
 239 186 l 1
EndSplineSet
Validated: 1
EndChar

StartChar: fraction
Encoding: 8260 8260 224
Width: 500
GlyphClass: 2
Flags: W
LayerCount: 2
Fore
SplineSet
177 -5 m 2
 165 -33 152 -48 134 -48 c 0
 113 -48 87 -34 87 -8 c 0
 87 4 91 17 98 32 c 2
 337 542 l 2
 349 570 361 585 379 585 c 0
 400 585 427 570 427 544 c 0
 427 532 422 521 415 506 c 2
 177 -5 l 2
EndSplineSet
Validated: 1
EndChar

StartChar: trademark
Encoding: 8482 8482 225
Width: 500
GlyphClass: 2
Flags: W
HStem: 274 47<50.0465 101 156 206.947 235.059 256 301 324.941 378.066 406 451 470.947> 445 46<72 101 156 184 241.023 261 445 465.974>
VStem: 28 44<383.021 445> 101 55<321 445> 186 43<383.005 445> 235 90<274.053 320.993 472 490.682> 256 45<321 426> 378 93<274.375 320.854 472 489.974> 406 45<321 426>
LayerCount: 2
Fore
SplineSet
229 408 m 1xf8
 229 405 l 2
 229 390 222 383 208 383 c 0
 191 383 187 390 186 408 c 2
 184 445 l 1
 156 445 l 1
 156 321 l 1
 182 321 l 2
 199 321 207 315 207 298 c 0
 207 281 199 274 182 274 c 2
 74 274 l 2
 57 274 50 281 50 298 c 0
 50 315 57 321 74 321 c 2
 101 321 l 1
 101 445 l 1
 72 445 l 1
 72 408 l 2
 71 390 65 383 49 383 c 0
 34 383 28 390 28 405 c 2
 28 408 l 1
 29 468 l 2
 30 486 31 491 50 491 c 2
 208 491 l 2
 227 491 227 486 228 468 c 2
 229 408 l 1xf8
259 274 m 2
 242 274 235 282 235 298 c 0xfc
 235 312 244 321 256 321 c 1
 261 445 l 1
 249 445 241 454 241 468 c 0
 241 482 249 491 257 491 c 2
 299 491 l 2
 311 491 318 485 323 472 c 2
 353 384 l 1
 382 472 l 2
 387 486 396 491 408 491 c 2
 442 491 l 2
 458 491 466 484 466 468 c 0
 466 454 457 445 445 445 c 1
 451 321 l 1xfa80
 452 321 l 2
 464 321 471 312 471 298 c 0xf9
 471 282 463 274 447 274 c 2
 406 274 l 2xf880
 388 274 378 281 378 298 c 0xf9
 378 313 387 321 403 321 c 2
 406 321 l 1
 403 426 l 1
 377 343 l 2
 373 331 365 326 353 326 c 0
 341 326 334 331 330 343 c 2
 303 426 l 1
 301 321 l 1xfa80
 304 321 l 2
 316 321 325 312 325 298 c 0xfc
 325 282 317 274 301 274 c 2xfa
 259 274 l 2
EndSplineSet
Validated: 1
EndChar

StartChar: minus
Encoding: 8722 8722 226
Width: 500
GlyphClass: 2
Flags: W
HStem: 214 85<34.9988 467.001>
LayerCount: 2
Fore
SplineSet
75 214 m 2
 48 214 30 232 30 257 c 0
 30 283 48 299 75 299 c 2
 427 299 l 2
 454 299 472 282 472 257 c 0
 472 231 454 214 427 214 c 2
 75 214 l 2
EndSplineSet
Validated: 1
EndChar

StartChar: fi
Encoding: 64257 64257 227
Width: 500
GlyphClass: 2
Flags: W
HStem: 0 89<22.3945 70 171 233.773 282.034 329 430 476.966> 287 89<22.3945 70 171 233.773 282.495 329> 432 128<331.072 416.744> 450 82<184.129 300.338>
VStem: 18 220<4.81892 84.1904 292.062 371.19> 70 101<89 287 376 436.566> 278 203<4.38684 85.0601> 278 152<291.152 371.695> 326 95<434.716 556.343> 329 101<89 287>
LayerCount: 2
Fore
SplineSet
70 287 m 1xd4
 63 287 l 2
 33 287 18 303 18 332 c 0xd8
 18 361 33 376 63 376 c 2
 70 376 l 1
 70 388 l 2
 70 483 124 532 230 532 c 0
 282 532 307 519 307 488 c 0
 307 463 292 449 270 449 c 0
 252 449 240 450 234 450 c 0
 187 450 171 428 171 376 c 1xd4
 186 376 l 2
 220 376 238 366 238 332 c 0xd8
 238 298 220 287 186 287 c 2
 171 287 l 1
 171 89 l 1xd4
 186 89 l 2
 220 89 238 79 238 45 c 0xd8
 238 11 220 0 186 0 c 2
 70 0 l 2xd4
 36 0 18 11 18 45 c 0xd8
 18 74 33 89 63 89 c 2
 70 89 l 1
 70 287 l 1xd4
326 481 m 0xe080
 326 546 331 560 373 560 c 0
 416 560 421 545 421 494 c 0
 421 442 416 432 373 432 c 0
 335 432 326 439 326 481 c 0xe080
329 287 m 1xc040
 322 287 l 2
 293 287 278 303 278 332 c 0xc1
 278 366 295 376 329 376 c 2xc040
 406 376 l 2
 421 376 430 369 430 358 c 2xc1
 430 89 l 1xc040
 437 89 l 2
 466 89 481 74 481 45 c 0xc2
 481 11 464 0 430 0 c 2
 329 0 l 2xc040
 295 0 278 11 278 45 c 0xc2
 278 74 293 89 322 89 c 2
 329 89 l 1
 329 287 l 1xc040
EndSplineSet
Validated: 1
EndChar

StartChar: fl
Encoding: 64258 64258 228
Width: 500
GlyphClass: 2
Flags: W
HStem: 0 89<22.3945 70 171 233.773 282.034 329 430 476.966> 287 89<22.3945 70 171 233.773> 451 81<183.795 329>
VStem: 18 220<4.81892 84.1904 292.062 371.19> 70 101<89 287 376 437.103> 278 203<4.38684 85.0601> 329 101<89 451>
LayerCount: 2
Fore
SplineSet
70 287 m 1xe8
 63 287 l 2
 33 287 18 303 18 332 c 0xf0
 18 361 33 376 63 376 c 2
 70 376 l 1
 70 389 l 2
 70 483 123 532 230 532 c 2
 406 532 l 2
 421 532 430 526 430 515 c 2
 430 89 l 1xea
 437 89 l 2
 466 89 481 74 481 45 c 0xe4
 481 11 464 0 430 0 c 2
 329 0 l 2xe2
 295 0 278 11 278 45 c 0xe4
 278 74 293 89 322 89 c 2
 329 89 l 1
 329 451 l 1xe2
 284 451 l 1
 278 451 l 2
 199 451 172 448 171 376 c 1xec
 186 376 l 2
 220 376 238 366 238 332 c 0xf0
 238 298 220 287 186 287 c 2
 171 287 l 1
 171 89 l 1xe8
 186 89 l 2
 220 89 238 79 238 45 c 0xf0
 238 11 220 0 186 0 c 2
 70 0 l 2xe8
 36 0 18 11 18 45 c 0xf0
 18 74 33 89 63 89 c 2
 70 89 l 1
 70 287 l 1xe8
EndSplineSet
Validated: 1
EndChar
